<svg width="1439" height="865" viewBox="0 0 1439 865" fill="none" xmlns="http://www.w3.org/2000/svg">
<mask id="mask0_1_415" style="mask-type:luminance" maskUnits="userSpaceOnUse" x="0" y="0" width="1439" height="865">
<path d="M1439 0H0V865H1439V0Z" fill="white"/>
</mask>
<g mask="url(#mask0_1_415)">
<path d="M570.924 -402.519C496.324 -417.828 415.391 -411.172 345.92 -384.018C276.447 -356.862 218.937 -309.405 186.032 -252.075C142.288 -175.861 138.265 -80.5779 63.5251 -23.0675C11.6635 16.8384 -62.1687 28.4467 -129.761 46.1308C-237.596 74.3436 -339.907 123.5 -409.553 197.063C-479.199 270.624 -512.486 370.435 -481.747 460.274" stroke="#010214" stroke-miterlimit="10"/>
<path d="M572.689 -402.092C496.488 -416.676 414.62 -407.858 345.652 -378.5C329.8 -371.755 314.652 -363.935 300.377 -355.181C252.552 -325.837 214.398 -286.092 191.141 -240.939C177.369 -214.181 168.403 -185.342 159.884 -156.717C143.524 -101.991 128.796 -47.7914 83.4044 -8.77295C68.6614 3.9339 51.7714 14.1184 33.4405 22.7736C-7.79169 42.2396 -56.5642 53.687 -103.399 67.2605C-122.766 72.8727 -142.123 79.0193 -161.283 85.6608C-209.76 102.464 -256.687 122.473 -298.913 146.636C-332.967 166.132 -364.029 188.355 -390.901 213.838C-397.515 220.108 -403.847 226.59 -409.877 233.264C-440.207 266.814 -463.043 305.234 -475.388 345.969C-487.804 386.999 -489.49 430.554 -476.119 472.456" stroke="#010214" stroke-miterlimit="10"/>
<path d="M574.455 -401.664C496.651 -415.523 413.847 -404.543 345.383 -372.982C329.65 -365.737 314.696 -357.414 300.699 -348.166C253.801 -317.154 217.421 -275.961 196.253 -229.804C183.718 -202.443 176.12 -173.164 169.201 -144.263C155.851 -89.0687 144.978 -34.7381 103.288 5.52247C89.761 18.6549 74.0202 29.4225 56.6601 38.8112C17.6076 59.9224 -30.1576 73.4873 -77.0383 88.393C-96.4226 94.5552 -115.962 101.11 -135.444 107.961C-184.723 125.29 -233.045 144.587 -276.653 167.414C-311.806 185.835 -344.027 206.604 -372.252 230.618C-379.2 236.526 -385.878 242.645 -392.271 248.961C-424.44 280.707 -449.599 317.473 -464.336 357.519C-479.141 397.848 -483.199 441.858 -470.495 484.643" stroke="#010214" stroke-miterlimit="10"/>
<path d="M576.22 -401.237C496.814 -414.373 413.075 -401.228 345.116 -367.466C329.502 -359.719 314.742 -350.892 301.023 -341.151C255.052 -308.471 220.449 -265.828 201.364 -218.668C190.069 -190.703 183.839 -160.985 178.52 -131.807C168.177 -76.1457 161.158 -21.687 123.167 19.8191C110.859 33.3789 96.2671 44.7277 79.8759 54.8482C43.0068 77.6046 -3.7511 93.2853 -50.6778 109.525C-70.0794 116.235 -89.8014 123.199 -109.606 130.262C-159.687 148.119 -209.403 166.7 -254.392 188.193C-290.647 205.54 -324.025 224.854 -353.603 247.397C-360.886 252.944 -367.912 258.699 -374.668 264.656C-408.674 294.599 -436.157 329.711 -453.285 369.068C-470.478 408.699 -476.91 453.162 -464.87 496.827" stroke="#010214" stroke-miterlimit="10"/>
<path d="M577.985 -400.809C496.979 -413.22 412.304 -397.913 344.848 -361.946C329.352 -353.698 314.786 -344.368 301.344 -334.135C256.297 -299.787 223.473 -255.697 206.473 -207.533C196.418 -178.964 191.556 -148.807 187.837 -119.354C180.504 -63.2254 177.202 -8.71136 143.048 34.1131C131.912 48.0742 118.516 60.0319 103.094 70.8842C68.4042 95.2859 22.6536 113.084 -24.3173 130.656C-43.7361 137.916 -63.6423 145.288 -83.7672 152.561C-134.65 170.944 -185.762 188.81 -232.13 208.968C-269.485 225.238 -304.021 243.099 -334.951 264.174C-342.568 269.358 -349.944 274.749 -357.062 280.349C-392.907 308.489 -422.715 341.946 -442.234 380.616C-461.816 419.547 -470.618 464.464 -459.245 509.012" stroke="#010214" stroke-miterlimit="10"/>
<path d="M579.75 -400.381C497.142 -412.069 411.531 -394.598 344.581 -356.429C329.205 -347.678 314.83 -337.845 301.668 -327.119C257.548 -291.104 226.501 -245.565 211.587 -196.397C202.771 -167.224 199.353 -136.623 197.158 -106.897C192.982 -50.2946 193.354 4.33704 162.931 48.4105C153.002 62.7955 140.767 75.338 126.316 86.9221C93.8056 112.969 49.0623 132.883 2.0454 151.787C-17.3907 159.596 -37.4791 167.377 -57.9264 174.861C-109.611 193.77 -162.116 210.922 -209.868 229.746C-248.323 244.942 -284.016 261.348 -316.3 280.952C-324.253 285.775 -331.973 290.803 -339.454 296.045C-377.137 322.38 -409.269 354.185 -431.178 392.165C-453.147 430.395 -464.325 475.769 -453.615 521.197" stroke="#010214" stroke-miterlimit="10"/>
<path d="M581.515 -399.954C497.305 -410.917 410.76 -391.281 344.312 -350.912C329.055 -341.66 314.874 -331.323 301.99 -320.104C258.797 -282.421 229.526 -235.432 216.696 -185.261C209.119 -155.484 207.08 -124.448 206.475 -94.4427C205.326 -37.3786 209.501 17.3863 182.811 62.7036C174.088 77.5141 163.014 90.6397 149.531 102.957C119.207 130.651 75.4688 152.681 28.4078 172.917C8.95633 181.276 -11.3163 189.466 -32.0878 197.159C-84.5748 216.596 -138.474 233.031 -187.605 250.521C-227.161 264.643 -264.01 279.594 -297.648 297.729C-305.935 302.189 -314.005 306.855 -321.849 311.737C-361.369 336.27 -395.825 366.419 -420.125 403.713C-444.482 441.243 -458.032 487.071 -447.989 533.38" stroke="#010214" stroke-miterlimit="10"/>
<path d="M583.28 -399.526C497.468 -409.765 409.986 -387.967 344.045 -345.395C328.907 -335.641 314.92 -324.802 302.314 -313.09C260.048 -273.742 232.554 -225.303 221.809 -174.128C215.47 -143.748 214.808 -112.275 215.796 -81.9901C217.672 -24.4658 225.656 30.4392 202.695 76.997C195.182 92.2348 185.266 105.942 172.755 118.991C144.608 148.328 101.879 172.477 54.772 194.045C35.3033 202.953 14.8464 211.553 -6.2455 219.455C-59.5346 239.418 -114.829 255.138 -165.341 271.295C-205.996 284.341 -244.005 297.838 -278.997 314.503C-287.62 318.602 -296.037 322.904 -304.243 327.428C-345.602 350.159 -382.381 378.654 -409.073 415.259C-435.82 452.089 -451.743 498.371 -442.364 545.562" stroke="#010214" stroke-miterlimit="10"/>
<path d="M585.046 -399.099C497.631 -408.614 409.215 -384.652 343.777 -339.876C328.76 -329.62 314.963 -318.278 302.635 -306.073C261.294 -265.057 235.576 -215.169 226.917 -162.99C221.817 -132.006 222.529 -100.098 225.111 -69.5339C230.008 -11.5495 241.81 43.4991 222.573 91.2938C216.268 106.959 207.511 121.247 195.969 135.03C170.003 166.013 128.28 192.277 81.1289 215.179C61.6429 224.637 41.0038 233.645 19.5896 241.759C-34.5015 262.247 -91.1904 277.253 -143.083 292.076C-184.839 304.047 -224.004 316.09 -260.35 331.286C-269.306 335.023 -278.07 338.962 -286.639 343.128C-329.838 364.054 -368.94 390.895 -398.022 426.812C-427.155 462.941 -445.451 509.679 -436.738 557.752" stroke="#010214" stroke-miterlimit="10"/>
<path d="M586.813 -398.67C497.796 -407.461 408.444 -381.336 343.51 -334.358C328.612 -323.602 315.009 -311.755 302.959 -299.057C262.545 -256.373 238.604 -205.037 232.03 -151.853C228.17 -120.265 230.253 -87.9226 234.43 -57.0767C242.345 1.36787 257.972 56.5635 242.454 105.592C237.36 121.686 229.758 136.554 219.187 151.068C195.403 183.696 154.687 212.078 107.491 236.311C87.9882 246.317 67.1649 255.735 45.4302 264.058C-9.46284 285.072 -67.5466 299.364 -120.82 312.851C-163.676 323.746 -204 334.336 -241.698 348.062C-250.988 351.437 -260.102 355.011 -269.033 358.819C-314.07 377.942 -355.496 403.129 -386.97 438.357C-418.492 473.788 -439.162 520.979 -431.113 569.934" stroke="#010214" stroke-miterlimit="10"/>
<path d="M588.578 -398.243C497.959 -406.308 407.673 -378.021 343.244 -328.84C328.464 -317.583 315.055 -305.233 303.284 -292.041C263.796 -247.689 241.631 -194.904 237.143 -140.718C234.523 -108.526 237.978 -75.748 243.751 -44.6219C254.68 14.2812 274.143 69.6291 262.339 119.887C258.458 136.412 252.011 151.859 242.41 167.106C220.806 201.379 181.099 231.879 133.858 257.443C114.337 268 93.3317 277.826 71.2747 286.36C15.5796 307.902 -43.8991 321.477 -98.5523 333.631C-142.507 343.452 -183.991 352.584 -223.041 364.843C-232.667 367.857 -242.126 371.068 -251.422 374.517C-298.295 391.838 -342.046 415.37 -375.911 449.911C-409.821 484.64 -432.863 532.286 -425.482 582.123" stroke="#010214" stroke-miterlimit="10"/>
<path d="M590.343 -397.816C498.122 -405.158 406.899 -374.706 342.975 -323.322C328.314 -311.563 315.099 -298.709 303.606 -285.027C265.044 -239.007 244.657 -184.773 242.253 -129.583C240.871 -96.787 245.695 -63.5744 253.068 -32.168C267.007 27.1952 290.315 82.6936 282.218 134.182C279.551 151.138 274.258 167.163 265.626 183.141C246.203 219.059 207.502 251.675 160.216 278.573C140.678 289.678 119.49 299.912 97.1092 308.658C40.6122 330.725 -20.2613 343.588 -76.296 354.406C-121.352 363.153 -163.991 370.83 -204.396 381.619C-214.356 384.269 -224.164 387.118 -233.82 390.21C-282.533 405.728 -328.606 427.605 -364.862 461.456C-401.161 495.485 -426.575 543.588 -419.858 594.305" stroke="#010214" stroke-miterlimit="10"/>
<path d="M592.108 -397.388C498.287 -404.006 406.128 -371.392 342.706 -317.805C328.165 -305.544 315.141 -292.187 303.926 -278.012C266.291 -230.324 247.68 -174.641 247.362 -118.448C247.218 -85.049 253.41 -51.4006 262.385 -19.7139C279.331 40.1095 306.493 95.7584 302.1 148.477C300.649 165.863 296.507 182.466 288.844 199.178C271.6 236.743 233.908 271.475 186.577 299.705C167.024 311.36 145.65 322.003 122.948 330.957C65.6489 353.551 3.38044 365.699 -54.0357 375.181C-100.191 382.852 -143.989 389.078 -185.746 398.396C-196.042 400.685 -206.197 403.171 -216.217 405.902C-266.768 419.616 -315.164 439.84 -353.812 473.004C-392.498 506.334 -420.286 554.89 -414.235 606.489" stroke="#010214" stroke-miterlimit="10"/>
<path d="M593.873 -396.961C498.45 -402.853 405.355 -368.075 342.44 -312.288C328.017 -299.526 315.187 -285.667 304.25 -270.996C267.541 -221.641 250.708 -164.509 252.475 -107.312C253.571 -73.3091 261.126 -39.2246 271.706 -7.25942C291.656 53.0259 322.681 108.824 321.983 162.77C321.753 180.587 318.757 197.768 312.065 215.212C297.004 254.42 260.317 291.269 212.941 320.832C193.371 333.035 171.815 344.088 148.791 353.254C90.6894 376.375 27.0281 387.807 -31.7694 395.955C-79.0262 402.552 -123.981 407.321 -167.091 415.17C-177.721 417.097 -188.223 419.218 -198.607 421.594C-250.994 433.505 -301.718 452.075 -342.755 484.55C-383.829 517.18 -413.991 566.191 -408.603 618.67" stroke="#010214" stroke-miterlimit="10"/>
<path d="M595.638 -396.532C498.613 -401.701 404.583 -364.759 342.171 -306.767C327.869 -293.503 315.231 -279.141 304.573 -263.979C268.79 -212.956 253.732 -154.377 257.585 -96.1744C259.92 -61.5674 268.84 -27.047 281.023 5.19843C303.974 65.9456 338.871 121.892 341.862 177.069C342.852 195.315 341.004 213.075 335.281 231.252C322.401 272.108 286.721 311.073 239.3 341.967C219.712 354.721 197.974 366.182 174.627 375.557C115.724 399.204 50.668 409.922 -9.50911 416.736C-57.8653 422.258 -103.979 425.575 -148.444 431.953C-159.409 433.519 -170.259 435.276 -181.003 437.294C-235.231 447.402 -288.276 464.316 -331.705 496.103C-375.169 528.032 -407.701 577.498 -402.982 630.86" stroke="#010214" stroke-miterlimit="10"/>
<path d="M597.404 -396.105C498.777 -400.549 403.81 -361.444 341.905 -301.25C327.722 -287.485 315.277 -272.619 304.897 -256.964C270.041 -204.273 256.76 -144.244 262.698 -85.0401C266.273 -49.8294 276.555 -14.8713 290.342 17.651C316.292 78.8618 355.067 134.952 361.745 191.362C363.956 210.039 363.255 228.377 358.501 247.286C347.801 289.787 313.128 330.869 265.662 363.096C246.058 376.398 224.135 388.269 200.468 397.855C140.761 422.03 74.31 432.033 12.7515 437.513C-36.704 441.959 -83.9762 443.821 -129.794 448.731C-141.093 449.933 -152.29 451.329 -163.399 452.986C-219.465 461.29 -274.834 476.553 -320.653 507.651C-366.504 538.881 -401.41 588.8 -397.356 643.044" stroke="#010214" stroke-miterlimit="10"/>
<path d="M599.169 -395.677C498.94 -399.397 403.039 -358.129 341.636 -295.733C327.572 -281.466 315.321 -266.097 305.219 -249.949C271.29 -195.591 259.785 -134.113 267.807 -73.9042C272.619 -38.0898 284.266 -2.69398 299.659 30.1068C328.606 91.7831 371.264 148.015 381.625 205.659C385.059 224.765 385.502 243.684 381.719 263.325C373.2 307.471 339.535 350.669 292.023 384.229C272.401 398.081 250.296 410.361 226.305 420.156C165.798 444.857 97.9517 454.144 35.0117 458.29C-15.5451 461.662 -63.9723 462.071 -111.145 465.51C-122.777 466.351 -134.324 467.383 -145.796 468.683C-203.697 475.184 -261.392 488.79 -309.602 519.202C-357.841 549.731 -395.121 600.106 -391.73 655.232" stroke="#010214" stroke-miterlimit="10"/>
<path d="M600.934 -395.25C499.103 -398.246 402.266 -354.814 341.367 -290.214C327.422 -275.447 315.363 -259.573 305.54 -242.933C272.535 -186.909 262.809 -123.98 272.917 -62.7695C278.968 -26.353 291.975 9.48395 308.976 42.5598C340.918 104.701 387.463 161.07 401.504 219.952C406.162 239.486 407.749 258.986 404.934 279.359C398.597 325.15 365.94 370.466 318.382 405.358C298.744 419.759 276.453 432.448 252.141 442.453C190.832 467.68 121.592 476.252 57.2721 479.063C5.61584 481.361 -43.9702 480.314 -92.4952 482.283C-104.464 482.762 -116.358 483.43 -128.19 484.373C-187.932 489.071 -247.947 501.024 -298.55 530.745C-349.178 560.574 -388.829 611.405 -386.105 667.41" stroke="#010214" stroke-miterlimit="10"/>
<path d="M602.699 -394.823C499.268 -397.095 401.494 -351.5 341.1 -284.698C327.275 -269.429 315.409 -253.051 305.864 -235.919C273.786 -178.227 265.837 -113.85 278.03 -51.6343C285.321 -14.614 299.607 21.6917 318.297 55.015C353.084 117.683 403.67 174.127 421.389 234.248C427.272 254.209 430.002 274.291 428.156 295.397C423.998 342.833 392.348 390.265 344.748 426.489C325.093 441.44 302.62 454.538 277.986 464.753C215.875 490.506 145.241 498.364 79.5382 499.841C26.7825 501.063 -23.9623 498.561 -73.84 499.063C-86.1425 499.18 -98.3836 499.485 -110.581 500.07C-172.16 502.964 -234.501 513.263 -287.493 542.297C-340.51 571.427 -382.534 622.711 -380.476 679.599" stroke="#010214" stroke-miterlimit="10"/>
<path d="M604.464 -394.394C499.431 -395.941 400.723 -348.182 340.832 -279.18C327.125 -263.409 315.454 -246.529 306.187 -228.902C275.035 -169.543 268.863 -103.716 283.14 -40.4967C291.67 -2.87269 307.324 33.8725 327.614 67.4726C365.41 130.607 419.875 187.183 441.268 248.545C448.377 268.933 452.249 289.596 451.374 311.435C449.398 360.517 418.755 410.066 371.108 447.623C351.436 463.124 328.781 476.63 303.825 487.055C240.912 513.335 168.883 520.476 101.801 520.62C47.9436 520.767 -3.95824 516.812 -55.1886 515.842C-67.8249 515.598 -80.4152 515.539 -92.9748 515.764C-156.392 516.856 -221.057 525.5 -276.442 553.846C-331.845 582.276 -376.243 634.015 -374.85 691.785" stroke="#010214" stroke-miterlimit="10"/>
<path d="M606.23 -393.967C499.594 -394.79 399.95 -344.867 340.565 -273.661C326.977 -257.388 315.498 -240.005 306.511 -221.887C276.286 -160.859 271.888 -93.5849 288.253 -29.3621C298.023 8.86575 315.043 46.0504 336.935 79.9255C377.739 143.526 436.084 200.233 461.153 262.838C469.488 283.652 474.502 304.898 474.596 327.47C474.799 378.197 445.163 429.863 397.473 468.752C377.784 484.801 354.944 498.715 329.667 509.353C265.952 536.159 192.529 542.586 124.065 541.394C69.1084 540.467 16.0477 535.056 -36.5372 532.618C-49.5093 532.013 -62.445 531.591 -75.3672 531.457C-140.623 530.746 -207.611 537.735 -265.386 565.393C-323.178 593.121 -369.95 645.316 -369.221 703.966" stroke="#010214" stroke-miterlimit="10"/>
<path d="M607.994 -393.539C499.757 -393.638 399.178 -341.552 340.296 -268.143C326.827 -251.369 315.542 -233.483 306.831 -214.871C277.531 -152.176 274.912 -83.452 293.36 -18.2258C304.367 20.6058 322.758 58.2298 346.25 92.3818C390.063 156.449 452.421 213.241 481.031 277.135C490.635 298.359 496.746 320.204 497.811 343.509C500.196 395.881 471.568 449.663 423.831 489.886C404.125 506.485 381.103 520.808 355.502 531.655C290.985 558.987 216.166 564.701 146.323 562.174C90.2672 560.17 36.0477 553.306 -17.8899 549.398C-31.1958 548.429 -44.4807 547.643 -57.7655 547.154C-124.859 544.638 -194.171 549.975 -254.337 576.944C-314.518 603.974 -363.66 656.621 -363.599 716.154" stroke="#010214" stroke-miterlimit="10"/>
<path d="M609.76 -393.111C499.92 -392.487 398.405 -338.237 340.028 -262.626C326.68 -245.35 315.586 -226.96 307.154 -207.856C278.782 -143.493 277.938 -73.3209 298.473 -7.08955C310.72 32.3458 330.479 70.4093 355.571 104.836C402.392 169.372 468.605 226.294 500.914 291.431C511.735 313.082 518.997 335.509 521.031 359.544C525.598 413.562 497.975 469.461 450.194 511.014C430.472 528.162 407.266 542.895 381.343 553.953C316.023 581.811 239.81 586.811 168.585 582.949C111.428 579.872 56.0538 571.552 0.76164 566.175C-12.8801 564.845 -26.5122 563.696 -40.1597 562.847C-109.092 558.529 -180.727 562.21 -243.285 588.492C-305.855 614.821 -357.371 667.924 -357.973 728.339" stroke="#010214" stroke-miterlimit="10"/>
<path d="M611.525 -392.684C500.083 -391.335 397.634 -334.923 339.761 -257.107C326.532 -239.33 315.632 -220.437 307.478 -200.839C280.031 -134.809 280.966 -63.1883 303.585 4.04642C317.071 44.0855 338.196 82.5867 364.888 117.292C414.718 182.295 484.786 239.345 520.795 305.727C532.835 327.804 541.246 350.815 544.249 375.583C550.995 431.246 524.381 489.263 476.555 532.148C456.815 549.846 433.425 564.987 407.181 576.254C341.06 604.64 263.452 608.924 190.848 603.728C132.591 599.575 76.0578 589.802 19.413 582.955C5.43743 581.263 -8.54196 579.751 -22.5521 578.543C-93.3221 572.422 -167.283 574.45 -232.23 600.042C-297.186 625.67 -351.076 679.229 -352.344 740.525" stroke="#010214" stroke-miterlimit="10"/>
<path d="M613.29 -392.255C500.246 -390.181 396.861 -331.606 339.493 -251.589C326.382 -233.311 315.674 -213.913 307.8 -193.824C281.28 -126.126 283.991 -53.0555 308.694 15.1826C323.42 55.8255 345.912 94.766 374.205 129.747C427.043 195.217 500.966 252.397 540.674 320.022C553.93 342.525 563.491 366.118 567.467 391.619C576.394 448.927 550.786 509.06 502.915 553.278C483.159 571.525 459.586 587.076 433.02 598.552C366.097 627.464 287.094 631.033 213.108 624.504C153.75 619.276 96.0598 608.048 38.0624 599.732C23.7511 597.679 9.42439 595.803 -4.94835 594.238C-77.5564 586.313 -153.841 586.686 -221.18 611.591C-288.525 636.521 -344.788 690.533 -346.72 752.709" stroke="#010214" stroke-miterlimit="10"/>
<path d="M615.055 -391.828C500.409 -389.03 396.089 -328.29 339.226 -246.072C326.235 -227.293 315.72 -207.391 308.124 -186.809C282.529 -117.443 287.017 -42.9246 313.807 26.3169C329.771 67.5636 353.633 106.944 383.526 142.201C439.373 208.138 517.15 265.448 560.557 334.317C575.032 357.245 585.742 381.422 590.686 407.656C601.793 466.609 577.194 528.859 529.277 574.41C509.504 593.207 485.747 609.166 458.86 620.854C391.135 650.292 310.737 653.146 235.372 645.282C174.915 638.979 116.066 626.297 56.7156 616.51C42.0705 614.095 27.3965 611.855 12.6592 609.931C-61.7869 600.203 -140.395 598.923 -210.125 623.139C-279.859 647.368 -338.493 701.835 -341.093 764.894" stroke="#010214" stroke-miterlimit="10"/>
<path d="M616.821 -391.4C474.024 -387.074 347.81 -293.147 308.445 -179.794C269.08 -66.4406 308.485 59.4809 392.843 154.655C471.303 243.178 590.237 315.77 613.904 423.691C632.676 509.295 577.851 602.419 484.699 643.152C416.172 673.117 334.381 675.256 257.633 666.057C180.884 656.859 106.547 637.156 30.2631 625.625C-46.0211 614.095 -126.952 611.159 -199.075 634.687C-271.196 658.215 -332.206 713.137 -335.469 777.078" stroke="#010214" stroke-miterlimit="10"/>
<path d="M-333.338 779.431C-330.469 727.578 -289.302 681.862 -235.317 654.324C-222.609 647.846 -209.196 642.363 -195.389 638.017C-150.585 623.907 -102.493 619.96 -54.3271 621.819C-24.6012 622.97 5.1727 626.33 34.2827 630.919C110.563 642.943 184.952 662.711 261.662 672.706C309.556 678.946 359.518 681.2 407.143 674.358C439.829 669.666 471.111 660.265 498.903 646.52C557.062 617.754 598.4 569.451 615.017 515.037C624.096 485.319 625.946 453.913 619.177 423.376C614.741 403.36 607.3 384.477 597.692 366.426C573.58 321.094 535.887 280.983 497.662 241.865C468.268 211.726 438.684 182.159 413.572 150.862C382.544 112.191 358.273 68.7816 342.987 22.7411C327.591 -23.5917 320.968 -72.5576 324.581 -120.283C326.166 -141.291 329.788 -161.983 335.763 -182.165C342.806 -205.885 353.459 -228.604 367.26 -249.748C392.726 -288.801 428.711 -322.617 471.791 -347.991C515.116 -373.498 565.822 -390.772 621.276 -393.957" stroke="#030516" stroke-miterlimit="10"/>
<path d="M-331.206 781.784C-328.111 729.841 -286.267 684.264 -231.888 657.26C-219.079 650.904 -205.583 645.56 -191.706 641.349C-146.703 627.681 -98.4948 624.215 -50.3228 626.468C-20.5797 627.864 9.18458 631.437 38.3023 636.217C114.581 648.733 189.015 668.619 265.693 679.358C315.987 686.4 368.643 689.423 418.664 681.691C452.97 676.396 485.401 665.234 513.107 649.892C569.176 618.846 607.642 570.354 622.235 515.49C630.209 485.53 631.356 453.897 624.451 423.065C619.929 402.867 612.615 383.742 603.342 365.406C580.07 319.324 544.6 278.181 509.698 238.534C482.89 207.958 456.685 178.258 434.302 147.069C406.696 108.603 385.086 65.742 371.669 19.8192C358.146 -26.3857 352.24 -75.6508 354.545 -123.234C355.548 -144.188 358.249 -164.668 363.083 -184.532C368.8 -207.871 377.81 -230.086 389.867 -250.706C412.091 -288.794 444.269 -321.705 483.803 -347.275C523.573 -372.972 571.2 -391.846 625.735 -396.509" stroke="#060719" stroke-miterlimit="10"/>
<path d="M-329.076 784.138C-325.755 732.105 -283.233 686.666 -228.459 660.197C-215.549 653.966 -201.97 648.756 -188.02 644.682C-142.82 631.455 -94.4942 628.471 -46.3184 631.117C-16.558 632.759 13.1986 636.544 42.3221 641.515C118.597 654.526 193.076 674.573 269.724 686.009C322.421 693.87 377.766 697.646 430.186 689.024C466.109 683.123 499.675 670.253 527.313 653.265C581.314 620.073 616.886 571.256 629.453 515.944C636.322 485.742 636.767 453.882 629.726 422.754C625.117 402.375 617.93 383.008 608.993 364.388C586.56 317.557 553.311 275.379 521.735 235.205C497.512 204.193 474.697 174.378 455.035 143.28C430.858 105.042 411.905 62.7052 400.355 16.8982C388.705 -29.1786 383.519 -78.7414 384.512 -126.185C384.933 -147.085 386.717 -167.35 390.407 -186.899C394.798 -209.858 402.164 -231.57 412.479 -251.664C431.46 -288.788 459.832 -320.794 495.82 -346.558C532.035 -372.444 576.582 -392.92 630.196 -399.06" stroke="#080A1B" stroke-miterlimit="10"/>
<path d="M-326.945 786.491C-323.397 734.367 -280.198 689.067 -225.031 663.133C-212.021 657.024 -198.358 651.954 -184.336 648.015C-138.937 635.23 -90.496 632.727 -42.3145 635.764C-12.5368 637.654 17.2102 641.648 46.3413 646.81C122.612 660.315 197.131 680.565 273.753 692.659C328.852 701.356 386.889 705.869 441.706 696.354C479.248 689.849 513.942 675.321 541.517 656.633C593.482 621.419 626.126 572.156 636.669 516.394C642.435 485.948 642.177 453.864 634.998 422.438C630.303 401.875 623.24 382.268 614.639 363.362C593.046 315.784 562.019 272.57 533.769 231.87C512.132 200.422 492.71 170.516 475.762 139.483C455.017 101.499 438.716 59.6623 429.035 13.9713C419.257 -31.9775 414.791 -81.8396 414.472 -129.141C414.311 -149.988 415.174 -170.038 417.72 -189.273C420.784 -211.851 426.51 -233.059 435.08 -252.629C450.819 -288.789 475.384 -319.889 507.827 -345.848C540.486 -371.924 581.954 -394.001 634.649 -401.62" stroke="#0A0C1D" stroke-miterlimit="10"/>
<path d="M-324.815 788.843C-321.041 736.63 -277.165 691.47 -221.604 666.067C-208.492 660.083 -194.747 655.147 -180.652 651.345C-135.055 639.001 -86.4973 636.978 -38.31 640.411C-8.51503 642.546 21.2243 646.753 50.3612 652.106C126.63 666.103 201.182 686.59 277.785 699.309C335.285 708.855 396.013 714.09 453.227 703.686C492.389 696.577 528.217 680.436 555.723 660.005C605.7 622.881 635.37 573.058 643.889 516.849C648.55 486.161 647.59 453.849 640.274 422.128C635.493 401.384 628.557 381.534 620.292 362.345C599.539 314.017 570.615 269.817 545.807 228.541C526.666 196.692 510.728 166.687 496.493 135.694C479.179 97.9954 465.532 56.6259 457.717 11.0525C449.812 -34.7683 446.065 -84.9296 444.436 -132.089C443.694 -152.881 443.636 -172.718 445.04 -191.638C446.779 -213.835 450.862 -234.542 457.686 -253.586C470.183 -288.782 490.939 -318.976 519.838 -345.13C548.942 -371.395 587.331 -395.074 639.106 -404.17" stroke="#0D0F20" stroke-miterlimit="10"/>
<path d="M-322.685 791.198C-318.685 738.897 -274.13 693.873 -218.176 669.005C-204.962 663.143 -191.134 658.346 -176.968 654.678C-131.174 642.778 -82.4989 641.236 -34.3078 645.061C-4.49745 647.442 25.2361 651.862 54.3787 657.405C130.644 671.895 205.224 692.649 281.814 705.961C341.714 716.374 405.134 722.315 464.747 711.018C505.526 703.304 542.505 685.597 569.924 663.377C617.97 624.441 644.61 573.962 651.103 517.303C654.66 486.372 652.997 453.834 645.545 421.817C640.677 400.891 633.868 380.8 625.938 361.326C606.026 312.249 579.301 267.017 557.841 225.213C541.267 192.929 528.738 162.884 517.223 131.904C503.328 94.5217 492.347 53.5899 486.399 8.13239C480.365 -37.5586 477.339 -88.021 474.4 -135.041C473.074 -155.778 472.053 -175.402 472.358 -194.006C472.717 -215.825 475.211 -236.026 480.292 -254.544C489.548 -288.777 506.495 -318.066 531.849 -344.414C557.397 -370.869 592.707 -396.15 643.563 -406.722" stroke="#0F1122" stroke-miterlimit="10"/>
<path d="M-320.554 793.55C-316.327 741.159 -271.094 696.274 -214.747 671.938C-201.431 666.201 -187.521 661.541 -173.283 658.006C-127.288 646.547 -78.4967 645.486 -30.3017 649.706C-0.474075 652.332 29.2499 656.963 58.4002 662.698C134.663 677.682 209.269 698.727 285.845 712.609C348.142 723.902 414.259 730.535 476.269 718.347C518.667 710.029 556.82 690.795 584.13 666.745C630.305 626.081 653.853 574.859 658.323 517.752C660.775 486.579 658.409 453.814 650.821 421.502C645.867 400.394 639.184 380.061 631.59 360.301C612.519 310.477 587.993 264.206 569.88 221.877C555.878 189.154 546.741 159.104 537.956 128.106C527.46 91.075 519.164 50.5463 515.085 5.20473C510.923 -40.3583 508.615 -91.1182 504.365 -137.998C502.458 -158.682 500.511 -178.089 499.68 -196.38C498.707 -217.815 499.563 -237.516 502.901 -255.51C508.915 -288.778 522.056 -317.162 543.863 -343.705C565.857 -370.349 598.087 -397.231 648.024 -409.281" stroke="#111424" stroke-miterlimit="10"/>
<path d="M-318.424 795.904C-313.971 743.423 -268.061 698.677 -211.32 674.875C-197.903 669.261 -183.91 664.737 -169.601 661.34C-123.409 650.321 -74.5018 649.743 -26.3011 654.356C3.54378 657.227 33.2601 662.071 62.4162 667.995C138.675 683.472 213.3 704.832 289.872 719.258C354.564 731.448 423.379 738.756 487.786 725.678C531.805 716.755 571.162 696.033 598.332 670.116C642.7 627.793 663.093 575.762 665.538 518.205C666.886 486.79 663.816 453.797 656.092 421.19C651.052 399.9 644.496 379.325 637.235 359.282C619.002 308.709 596.682 261.398 581.911 218.548C570.479 185.385 564.714 155.356 558.681 124.317C551.557 87.6682 545.974 47.5097 543.764 2.28574C541.475 -43.1493 539.886 -94.2085 534.326 -140.946C531.837 -161.576 528.965 -180.767 526.996 -198.744C524.692 -219.796 523.959 -238.994 525.506 -256.463C528.364 -288.763 537.61 -316.247 555.872 -342.984C574.313 -369.818 603.461 -398.301 652.479 -411.83" stroke="#131627" stroke-miterlimit="10"/>
<path d="M-316.292 798.258C-311.613 745.687 -265.025 701.079 -207.889 677.812C-194.372 672.321 -180.295 667.936 -165.913 664.673C-119.523 654.097 -70.4976 654.001 -22.293 659.005C7.5691 662.123 37.2777 667.18 66.4415 673.294C142.697 689.263 217.337 710.957 293.907 725.912C360.989 739.011 432.508 746.981 499.312 733.011C544.947 723.484 585.548 701.304 612.54 673.487C655.167 629.561 672.339 576.664 672.759 518.658C673.003 487 669.231 453.781 661.37 420.876C656.243 399.405 649.814 378.588 642.89 358.259C625.497 306.937 605.381 258.585 593.952 215.214C585.095 181.608 582.67 151.628 579.416 120.52C575.623 84.2804 572.795 44.4679 572.451 -0.641832C572.035 -45.9488 571.166 -97.3073 564.295 -143.903C561.223 -164.48 557.428 -183.453 554.32 -201.118C550.684 -221.786 548.318 -240.487 548.115 -257.429C547.741 -288.77 553.171 -315.343 567.887 -342.275C582.772 -369.298 608.841 -399.383 656.94 -414.389" stroke="#161929" stroke-miterlimit="10"/>
<path d="M-314.163 800.611C-309.257 747.951 -261.992 703.482 -204.463 680.748C-190.844 675.381 -176.684 671.131 -162.231 668.005C-115.644 657.87 -66.5011 658.254 -18.2927 663.652C11.5867 667.017 41.2857 672.283 70.4572 678.589C146.711 695.051 221.358 717.1 297.934 732.561C367.403 746.586 441.627 755.203 510.829 740.343C558.084 730.212 599.965 706.601 626.742 676.859C667.69 631.377 681.579 577.565 679.973 519.11C679.112 487.211 674.64 453.765 666.641 420.564C661.428 398.912 655.125 377.852 648.536 357.24C631.984 305.17 614.079 255.773 605.986 211.885C599.706 177.835 600.585 147.923 600.143 116.731C599.637 80.9222 599.606 41.4315 601.132 -3.56064C602.586 -48.7396 602.438 -100.397 594.257 -146.851C590.604 -167.373 585.886 -186.131 581.638 -203.483C576.672 -223.767 572.672 -241.972 570.721 -258.386C567.11 -288.772 568.727 -314.431 579.898 -341.558C591.227 -368.771 614.217 -400.457 661.395 -416.939" stroke="#181B2B" stroke-miterlimit="10"/>
<path d="M-312.031 802.963C-306.898 750.214 -258.957 705.883 -201.034 683.682C-187.314 678.438 -173.071 674.326 -158.545 671.335C-111.758 661.641 -62.5005 662.508 -14.2863 668.298C15.6103 671.909 45.3017 677.388 74.4789 683.884C150.729 700.84 225.382 723.257 301.967 739.209C373.82 754.176 450.752 763.423 522.353 747.673C571.227 736.936 614.43 711.919 640.95 680.227C680.282 633.223 690.824 578.465 687.195 519.56C685.231 487.418 680.054 453.746 671.919 420.249C666.62 398.415 660.443 377.115 654.189 356.215C638.477 303.397 622.786 252.957 618.024 208.549C614.324 174.055 618.461 144.224 620.877 112.934C623.607 77.5675 626.424 38.3882 629.816 -6.488C633.143 -51.5389 633.715 -103.494 624.221 -149.808C619.985 -170.276 614.346 -188.816 608.956 -205.857C602.663 -225.757 597.022 -243.467 593.327 -259.35C586.477 -288.779 584.282 -313.525 591.909 -340.847C599.683 -368.248 619.593 -401.537 665.852 -419.496" stroke="#1A1E2E" stroke-miterlimit="10"/>
<path d="M-309.901 805.318C-304.543 752.478 -255.922 708.285 -197.606 686.619C-183.784 681.5 -169.459 677.522 -154.86 674.666C-107.875 665.414 -58.5004 666.762 -10.2824 672.947C19.6296 676.803 49.3133 682.493 78.4982 689.181C154.746 706.631 229.397 729.431 305.996 745.861C380.226 761.782 459.875 771.647 533.873 755.004C584.364 743.664 628.935 717.259 655.153 683.598C692.93 635.098 700.066 579.367 694.411 520.014C691.341 487.631 685.463 453.731 677.189 419.939C671.804 397.921 665.754 376.381 659.835 355.197C644.963 301.63 631.49 250.145 630.057 205.222C628.943 170.283 636.287 140.536 641.604 109.145C647.517 74.2264 653.237 35.3515 658.496 -9.40701C663.695 -54.3299 664.987 -106.585 654.183 -152.757C649.365 -173.171 642.805 -191.493 636.274 -208.222C628.655 -227.736 621.371 -244.953 615.93 -260.307C605.84 -288.781 599.836 -312.612 603.917 -340.129C608.137 -367.721 624.967 -402.61 670.307 -422.048" stroke="#1D2030" stroke-miterlimit="10"/>
<path d="M-307.77 807.671C-302.184 754.742 -252.886 710.687 -194.177 689.555C-180.253 684.559 -165.846 680.72 -151.176 677.999C-103.994 669.19 -54.5017 671.018 -6.27791 677.596C23.6514 681.698 53.3274 687.6 82.518 694.479C158.762 712.421 233.41 735.618 310.028 752.512C386.631 769.402 468.999 779.87 545.394 762.336C597.505 750.393 643.484 722.617 669.358 686.969C705.634 636.989 709.308 580.269 701.63 520.467C697.456 487.841 690.873 453.715 682.464 419.625C676.992 397.426 671.069 375.643 665.486 354.176C651.453 299.861 640.203 247.329 642.095 201.889C643.567 166.505 654.073 136.838 662.335 105.352C671.382 70.8744 680.052 32.311 687.18 -12.3299C694.252 -57.1248 696.261 -109.679 684.149 -155.711C678.749 -176.071 671.27 -194.175 663.596 -210.593C654.651 -229.723 645.723 -246.446 638.54 -261.27C625.205 -288.789 615.397 -311.706 615.932 -339.418C616.596 -367.198 630.347 -403.689 674.768 -424.604" stroke="#1F2232" stroke-miterlimit="10"/>
<path d="M-305.64 810.023C-299.828 757.004 -249.852 713.087 -190.75 692.488C-176.726 687.617 -162.235 683.914 -147.492 681.328C-100.11 672.96 -50.503 675.27 -2.2735 682.242C27.673 686.589 57.3414 692.705 86.5377 699.773C162.778 718.21 237.418 741.816 314.059 759.161C393.029 777.033 478.124 788.092 556.916 769.667C610.646 757.118 658.078 727.984 683.563 690.34C718.391 638.895 718.55 581.17 708.848 520.919C703.569 488.051 696.284 453.698 687.739 419.313C682.18 396.932 676.384 374.907 671.136 353.154C657.944 298.09 648.922 244.514 654.131 198.558C658.193 162.73 671.815 133.127 683.066 101.558C695.2 67.5086 706.868 29.2721 715.864 -15.2546C724.807 -59.9215 727.537 -112.775 714.112 -158.665C708.13 -178.971 699.734 -196.86 690.914 -212.962C680.645 -231.71 670.069 -247.934 661.146 -262.229C644.563 -288.792 630.954 -310.796 627.945 -338.702C625.054 -366.673 635.725 -404.764 679.227 -427.157" stroke="#212535" stroke-miterlimit="10"/>
<path d="M-303.51 812.379C-297.472 759.271 -246.819 715.493 -187.322 695.427C-173.196 690.678 -158.622 687.113 -143.808 684.663C-96.229 676.738 -46.5048 679.528 1.72852 686.893C31.6923 691.486 61.3511 697.813 90.5551 705.074C166.793 724.003 241.418 748.028 318.086 765.816C399.42 784.686 487.243 796.317 568.434 777.002C623.783 763.849 672.711 733.366 697.765 693.714C731.192 640.807 727.79 582.076 716.062 521.375C709.678 488.265 701.693 453.685 693.009 419.004C687.364 396.442 681.692 374.175 676.781 352.138C664.428 296.325 657.636 241.707 666.163 195.23C672.817 158.959 689.515 129.402 703.792 97.7709C718.976 64.1276 733.679 26.2389 744.542 -18.172C755.358 -62.7108 758.808 -115.863 744.072 -161.611C737.508 -181.863 728.195 -199.537 718.23 -215.326C706.639 -233.69 694.413 -249.418 683.749 -263.185C663.916 -288.789 646.508 -309.883 639.952 -337.983C633.505 -366.142 641.097 -405.836 683.68 -429.706" stroke="#242737" stroke-miterlimit="10"/>
<path d="M-301.378 814.732C-295.114 761.534 -243.784 717.895 -183.893 698.363C-169.666 693.737 -155.009 690.31 -140.122 687.993C-92.3454 680.509 -42.5042 683.781 5.73488 691.54C35.716 696.381 65.367 702.918 94.5768 710.369C170.811 729.792 245.419 754.244 322.119 772.464C405.809 792.345 496.369 804.538 579.957 784.332C636.924 770.573 687.393 738.75 711.973 697.083C744.044 642.718 737.037 582.976 723.284 521.825C715.797 488.473 707.107 453.667 698.287 418.69C692.556 395.945 687.013 373.436 682.435 351.114C670.923 294.553 666.364 238.892 678.205 191.897C687.454 155.183 707.194 125.645 724.529 93.9754C742.733 60.7127 760.5 23.196 773.232 -21.0972C785.92 -65.5081 790.09 -118.958 774.044 -164.566C766.897 -184.764 756.668 -202.221 745.555 -217.698C732.645 -235.68 718.765 -250.909 706.361 -264.148C683.276 -288.792 662.069 -308.976 651.971 -337.272C641.969 -365.622 646.481 -406.917 688.145 -432.265" stroke="#262A3A" stroke-miterlimit="10"/>
<path d="M-299.249 817.084C-292.758 763.797 -240.749 720.296 -180.466 701.297C-166.137 696.796 -151.398 693.504 -136.44 691.324C-88.4641 684.281 -38.5077 688.035 9.73523 696.185C39.7317 701.271 69.3751 708.022 98.5925 715.661C174.823 735.577 249.409 760.465 326.146 779.111C412.187 800.016 505.49 812.758 591.475 791.66C650.061 777.298 702.107 744.137 726.173 700.451C756.927 644.624 746.273 583.875 730.496 522.275C721.904 488.68 712.512 453.648 703.556 418.373C697.736 395.447 692.32 372.698 688.08 350.09C677.408 292.78 675.085 236.079 690.234 188.562C702.082 151.406 724.838 121.861 745.252 90.1781C766.457 57.2701 787.307 20.1529 801.909 -24.0243C816.469 -68.3054 821.358 -122.057 804.002 -167.523C796.273 -187.667 785.13 -204.91 772.87 -220.071C758.637 -237.672 743.103 -252.398 728.963 -265.112C702.623 -288.794 677.621 -308.071 663.976 -336.563C650.418 -365.101 651.852 -407.998 692.594 -434.823" stroke="#282C3C" stroke-miterlimit="10"/>
<path d="M-297.117 819.438C-290.4 766.061 -237.713 722.699 -177.036 704.234C-162.607 699.856 -147.785 696.702 -132.753 694.657C-84.5788 688.057 -34.5054 692.292 13.7433 700.835C43.757 706.167 73.3927 713.128 102.616 720.96C178.845 741.369 253.404 766.701 330.179 785.764C418.565 807.707 514.615 820.982 602.998 798.993C663.204 784.027 716.868 749.529 740.381 703.822C769.855 646.528 755.519 584.776 737.718 522.728C728.023 488.891 717.927 453.63 708.834 418.061C702.928 394.953 697.639 371.962 693.732 349.069C683.899 291.01 683.815 233.271 702.274 185.231C716.72 147.636 742.476 118.053 765.985 86.3872C790.178 53.8026 814.127 17.1145 830.595 -26.9451C847.028 -71.0999 852.634 -125.149 833.968 -170.473C825.658 -190.563 813.599 -207.592 800.191 -222.439C784.639 -239.659 767.451 -253.881 751.572 -266.071C721.981 -288.788 693.182 -307.16 675.992 -335.847C658.882 -364.575 657.233 -409.073 697.057 -437.375" stroke="#2B2F3E" stroke-miterlimit="10"/>
<path d="M-294.987 821.791C-288.044 768.325 -234.68 725.101 -173.609 707.17C-159.079 702.916 -144.172 699.899 -129.071 697.989C-80.6991 691.83 -30.5087 696.546 17.7439 705.483C47.7748 711.061 77.4029 718.235 106.632 726.257C182.857 747.159 257.385 772.943 334.207 792.414C424.931 815.409 523.735 829.204 614.516 806.325C676.34 790.753 731.657 754.921 754.583 707.194C782.812 648.426 764.759 585.679 744.932 523.181C734.132 489.102 723.333 453.614 714.105 417.75C708.115 394.46 702.95 371.226 699.379 348.05C690.386 289.243 692.541 230.467 714.308 181.9C731.354 143.868 760.099 114.218 786.715 82.5949C813.891 50.3079 840.94 14.0765 859.275 -29.8673C877.579 -73.8923 883.907 -128.242 863.93 -173.424C855.037 -193.461 842.064 -210.277 827.508 -224.807C810.635 -241.649 791.767 -255.338 774.176 -267.031C741.285 -288.732 708.736 -306.25 688.001 -335.133C667.335 -364.05 662.608 -410.151 701.512 -439.929" stroke="#2D3141" stroke-miterlimit="10"/>
<path d="M-292.856 824.144C-285.686 770.588 -231.644 727.503 -170.18 710.106C-155.548 705.974 -140.56 703.094 -125.385 701.321C-76.8138 695.603 -26.5083 700.802 21.75 710.132C51.7982 715.955 81.4167 723.342 110.653 731.554C186.876 752.949 261.37 779.192 338.24 799.066C431.295 823.127 532.862 837.428 626.04 813.658C689.482 797.483 746.486 760.312 768.791 710.566C795.805 650.313 774.004 586.582 752.154 523.636C740.25 489.313 728.75 453.6 719.383 417.44C713.305 393.969 708.268 370.493 705.033 347.032C696.881 287.477 701.392 227.709 726.348 178.574C746.087 140.138 777.724 110.361 807.448 78.8061C837.604 46.7873 867.755 11.0368 887.959 -32.7893C908.136 -76.6863 915.183 -131.334 893.895 -176.376C884.421 -196.357 870.566 -212.986 854.829 -227.174C836.677 -243.666 816.12 -256.823 796.784 -267.988C760.65 -288.724 724.295 -305.339 700.014 -334.413C675.793 -363.52 667.986 -411.222 705.971 -442.478" stroke="#2F3443" stroke-miterlimit="10"/>
<path d="M-290.726 826.499C-283.33 772.853 -228.611 729.906 -166.751 713.042C-152.018 709.035 -136.947 706.291 -121.701 704.651C-72.9325 699.375 -22.508 705.054 25.7542 714.779C55.8197 720.848 85.4304 728.446 114.673 736.85C190.892 758.738 265.35 785.442 342.269 805.714C437.65 830.851 541.983 845.648 637.559 820.987C702.621 804.208 761.344 765.698 782.992 713.935C808.818 652.187 783.244 587.48 759.368 524.086C746.359 489.522 734.157 453.582 724.651 417.125C718.489 393.473 713.577 369.754 710.678 346.008C703.366 285.706 710.098 224.902 738.38 175.238C760.705 136.367 795.345 106.474 828.175 75.0109C861.322 43.2429 894.571 7.99928 916.641 -35.7126C938.69 -79.4816 946.457 -134.428 923.859 -179.33C913.803 -199.258 899.03 -215.672 882.149 -229.545C862.671 -245.657 840.472 -258.31 819.391 -268.951C780.015 -288.723 739.851 -304.432 712.027 -333.703C684.25 -363.001 673.364 -412.303 710.43 -445.038" stroke="#313645" stroke-miterlimit="10"/>
<path d="M-288.594 828.852C-280.971 775.116 -225.576 732.307 -163.323 715.978C-148.487 712.094 -133.336 709.487 -118.015 707.984C-69.0489 703.15 -18.5074 709.311 29.7586 719.428C59.8414 725.742 89.4426 733.553 118.695 742.148C194.91 764.53 269.325 791.702 346.302 812.367C444.003 838.595 551.11 853.873 649.083 828.321C715.763 810.936 776.233 771.084 797.2 717.307C821.863 654.053 792.49 588.383 766.59 524.54C752.476 489.732 739.571 453.566 729.932 416.813C723.681 392.977 718.898 369.02 716.332 344.988C709.861 283.936 718.813 222.098 750.421 171.909C775.331 132.6 812.979 102.572 848.91 71.2191C885.056 39.6794 921.39 4.96008 945.329 -38.6342C969.251 -82.2752 977.737 -137.521 953.827 -182.281C943.188 -202.156 927.495 -218.357 909.471 -231.913C888.665 -247.644 864.824 -259.794 842.001 -269.911C799.382 -288.72 755.412 -303.523 724.042 -332.987C692.71 -362.473 678.744 -413.376 714.891 -447.589" stroke="#343948" stroke-miterlimit="10"/>
<path d="M-286.465 831.204C-278.615 777.379 -222.54 734.708 -159.896 718.913C-144.961 715.154 -129.725 712.684 -114.333 711.315C-65.1675 706.923 -14.5109 713.564 33.7608 724.074C63.859 730.636 93.4544 738.658 122.71 747.443C198.924 770.319 273.293 797.964 350.327 819.016C450.34 846.347 560.228 862.095 660.599 835.652C728.898 817.664 791.143 776.462 811.4 720.678C834.921 655.905 801.726 589.286 773.802 524.993C758.585 489.943 744.976 453.55 735.199 416.501C728.861 392.483 724.205 368.284 721.975 343.967C716.344 282.166 727.518 219.293 762.449 168.576C789.946 128.831 830.608 98.6513 869.632 67.4265C908.784 36.0979 948.195 1.92175 974.003 -41.5566C999.798 -85.0696 1009 -140.615 983.783 -185.233C972.562 -205.054 955.949 -221.041 936.783 -234.282C914.651 -249.632 889.168 -261.279 864.601 -270.87C818.741 -288.715 770.962 -302.612 736.047 -332.271C701.159 -361.947 684.114 -414.451 719.343 -450.141" stroke="#363B4A" stroke-miterlimit="10"/>
<path d="M-284.333 833.559C-276.257 779.643 -219.505 737.113 -156.465 721.849C-141.429 718.213 -126.11 715.879 -110.646 714.647C-61.2823 710.696 -10.5086 717.82 37.767 728.723C67.8824 735.53 97.4702 743.763 126.734 752.74C202.943 776.109 277.265 804.232 354.362 825.666C456.681 854.113 569.355 870.316 672.124 842.982C742.042 824.388 806.089 781.835 825.61 724.046C848.008 657.741 810.974 590.186 781.024 525.442C764.702 490.15 750.39 453.531 740.477 416.186C734.053 391.987 729.523 367.545 727.629 342.945C722.837 280.395 736.233 216.489 774.491 165.244C804.574 125.062 848.26 94.7174 890.369 63.6328C932.541 32.5014 975.018 -1.11939 1002.69 -44.4801C1030.36 -87.865 1040.28 -143.708 1013.75 -188.186C1001.95 -207.953 984.418 -223.725 964.109 -236.652C940.651 -251.622 913.525 -262.765 887.213 -271.831C838.11 -288.711 786.525 -301.705 748.063 -331.558C709.621 -361.423 689.496 -415.53 723.804 -452.698" stroke="#383E4C" stroke-miterlimit="10"/>
<path d="M-282.203 835.912C-273.901 781.908 -216.472 739.514 -153.038 724.785C-137.9 721.272 -122.499 719.076 -106.964 717.979C-57.4026 714.471 -6.51183 722.074 41.7695 733.371C71.9022 740.424 101.48 748.87 130.752 758.036C206.959 781.898 281.175 810.628 358.392 832.317C462.938 862.059 578.478 878.539 683.644 850.314C755.18 831.116 821.051 787.204 839.812 727.418C861.105 659.566 820.215 591.087 788.24 525.896C770.815 490.362 755.799 453.516 745.749 415.875C739.239 391.494 734.836 366.81 733.278 341.926C729.326 278.629 744.944 213.686 786.527 161.914C819.196 121.296 865.916 90.7748 911.098 59.8407C956.3 28.8945 1001.83 -4.15717 1031.38 -47.4037C1060.91 -90.6606 1071.56 -146.803 1043.72 -191.139C1031.33 -210.852 1012.88 -226.41 991.427 -239.022C966.644 -253.611 937.875 -264.252 909.818 -272.792C857.473 -288.708 802.081 -300.795 760.074 -330.845C718.076 -360.9 694.872 -416.608 728.261 -455.253" stroke="#3B404F" stroke-miterlimit="10"/>
<path d="M-280.074 838.264C-271.545 784.17 -213.438 741.915 -149.612 727.721C-85.7857 713.526 -17.6596 722.662 45.7715 738.018C154.395 764.315 255.511 808.252 362.419 838.966C469.327 869.681 587.597 886.761 695.162 857.645C768.317 837.844 836.032 792.564 854.014 730.788C874.219 661.377 829.453 591.988 795.454 526.347C764.926 467.407 742.035 404.947 738.923 340.901C735.81 276.855 753.648 210.878 798.558 158.58C833.812 117.523 883.578 86.8177 931.823 56.0462C980.068 25.2747 1028.64 -7.19743 1060.06 -50.3263C1091.47 -93.4552 1102.83 -149.897 1073.68 -194.091C1045.73 -236.467 988.01 -258.8 932.422 -273.752C876.834 -288.705 817.634 -299.886 772.083 -330.131C726.53 -360.375 700.246 -417.685 732.716 -457.807" stroke="#3D4351" stroke-miterlimit="10"/>
<path d="M734.21 -458.388C703.27 -417.084 731.277 -359.811 778.077 -329.565C824.877 -299.322 885.135 -288.153 941.731 -272.922C970.463 -265.185 999.677 -255.22 1024.28 -241.289C1051.04 -226.181 1071.06 -206.621 1084.38 -183.194C1109.71 -138.667 1099.6 -83.9816 1068.29 -41.3752C1036.99 1.22955 989.13 33.5581 941.672 64.2984C894.302 94.9419 845.531 125.598 810.919 166.268C770.335 213.961 752.079 272.881 751.808 331.31C751.785 336.379 751.897 341.443 752.14 346.494C755.197 409.774 777.848 471.464 807.881 529.769C841.326 594.692 884.774 663.141 865.852 731.848C848.432 795.101 780.755 842.359 706.361 863.527C688.863 868.503 671.038 872.259 653.005 874.906C558.33 888.815 458.099 872.601 366.247 846.17C258.918 815.3 157.482 771.104 48.7782 743.955C25.2707 738.083 1.14156 733.035 -23.1718 729.655C-64.5075 723.911 -106.473 722.975 -146.841 731.425C-158.893 733.943 -170.754 737.459 -182.145 741.881C-231.382 761.008 -271.651 797.542 -277.74 841.624" stroke="#3B404F" stroke-miterlimit="10"/>
<path d="M735.703 -458.97C706.29 -416.484 736.022 -359.247 784.067 -329.002C832.112 -298.756 893.429 -287.603 951.035 -272.093C981.893 -263.777 1013.22 -252.695 1038.34 -236.762C1065.62 -219.536 1082.97 -197.193 1095.08 -172.298C1116.78 -127.666 1107.72 -74.5101 1076.53 -32.4244C1045.33 9.65611 998.183 41.8393 951.511 72.5503C905.022 103.062 857.247 133.669 823.275 173.956C783.43 221.218 765.32 279.353 765.03 337.086C765.005 342.095 765.114 347.096 765.352 352.087C768.353 414.602 790.767 475.523 820.305 533.192C853.195 597.398 895.373 664.925 877.688 732.91C860.848 797.652 793.192 846.876 717.558 869.411C699.784 874.699 681.635 878.732 663.247 881.6C566.642 896.689 463.985 880.439 370.069 853.374C262.322 822.35 160.564 777.89 51.7791 749.892C28.2485 743.834 4.1213 738.573 -20.192 734.921C-61.5067 728.727 -103.535 727.168 -144.078 735.126C-156.195 737.497 -168.135 740.874 -179.624 745.183C-229.256 763.812 -270.16 800.756 -275.413 844.981" stroke="#383E4C" stroke-miterlimit="10"/>
<path d="M737.198 -459.551C709.314 -415.884 740.768 -358.681 790.061 -328.436C839.353 -298.19 901.727 -287.051 960.345 -271.261C993.326 -262.367 1026.78 -250.167 1052.41 -232.229C1080.21 -212.887 1094.9 -187.879 1105.78 -161.397C1124.09 -116.864 1115.86 -65.0347 1084.76 -23.4697C1053.68 18.0866 1007.24 50.1262 961.356 80.8043C915.745 111.188 868.966 141.744 835.635 181.644C796.531 228.477 778.566 285.825 778.255 342.863C778.229 347.809 778.334 352.75 778.57 357.68C781.513 419.429 803.689 479.581 832.734 536.614C865.069 600.102 906.019 666.719 889.53 733.971C873.289 800.213 805.635 851.391 728.761 875.295C710.711 880.896 692.238 885.206 673.496 888.294C574.961 904.563 469.878 888.276 373.9 860.577C265.733 829.398 163.653 784.679 54.7895 755.829C31.2379 749.586 7.11063 744.109 -17.2008 740.189C-58.4924 733.545 -100.586 731.362 -141.302 738.832C-153.486 741.055 -165.502 744.292 -177.089 748.487C-227.116 766.619 -268.655 803.972 -273.072 848.343" stroke="#363B4A" stroke-miterlimit="10"/>
<path d="M738.69 -460.131C712.336 -415.283 745.513 -358.117 796.053 -327.869C846.592 -297.622 910.024 -286.498 969.65 -270.43C1004.76 -260.956 1040.32 -247.641 1066.47 -227.699C1094.8 -206.24 1106.84 -178.671 1116.48 -150.499C1131.64 -106.232 1123.99 -55.5605 1093 -14.518C1062.02 26.5142 1016.29 58.4084 971.195 89.0571C926.461 119.311 880.679 149.816 847.989 189.333C809.624 235.735 791.807 292.297 791.477 348.642C791.448 353.527 791.552 358.408 791.782 363.274C794.67 424.258 816.606 483.641 845.157 540.039C876.936 602.808 916.701 668.528 901.367 735.034C885.745 802.786 818.071 855.911 739.961 881.179C721.635 887.094 702.834 891.682 683.74 894.99C583.275 912.439 475.766 896.118 377.726 867.782C269.141 836.446 166.738 791.468 57.796 761.768C34.2232 755.337 10.096 749.645 -14.2135 745.457C-55.484 738.362 -97.641 735.558 -138.532 742.537C-150.78 744.613 -162.874 747.71 -174.562 751.791C-224.985 769.425 -267.159 807.185 -270.739 851.702" stroke="#343948" stroke-miterlimit="10"/>
<path d="M740.185 -460.713C715.357 -414.683 750.26 -357.553 802.047 -327.306C853.834 -297.058 918.322 -285.948 978.959 -269.6C1016.19 -259.547 1053.88 -245.113 1080.54 -223.168C1109.39 -199.592 1118.83 -169.552 1127.19 -139.601C1139.43 -95.7382 1132.12 -46.0873 1101.24 -5.56548C1070.37 34.9425 1025.35 66.6915 981.043 97.309C937.188 127.433 892.401 157.888 860.355 197.021C822.728 242.992 805.057 298.769 804.708 354.418C804.677 359.243 804.777 364.061 805.003 368.867C807.835 429.085 829.534 487.697 857.59 543.46C888.815 605.512 927.432 670.342 913.212 736.094C898.231 805.367 830.518 860.426 751.167 887.063C732.566 893.292 713.441 898.155 693.993 901.685C591.598 920.313 481.664 903.956 381.559 874.985C272.548 843.494 169.823 798.255 60.8024 767.705C37.2067 761.089 13.0794 755.183 -11.2282 750.723C-52.4757 743.178 -94.6978 739.751 -135.763 746.239C-148.077 748.168 -160.249 751.126 -172.035 755.091C-222.855 772.229 -265.663 810.398 -268.406 855.059" stroke="#313645" stroke-miterlimit="10"/>
<path d="M741.678 -461.294C718.379 -414.083 755.005 -356.988 808.039 -326.74C861.071 -296.493 926.618 -285.397 988.267 -268.77C1027.62 -258.139 1067.43 -242.588 1094.61 -218.639C1123.98 -192.947 1130.88 -160.51 1137.89 -128.704C1147.45 -85.3515 1140.25 -36.614 1109.47 3.38532C1078.71 43.3691 1034.41 74.9727 990.886 105.561C947.91 135.556 904.118 165.96 872.711 204.707C835.825 250.249 818.3 305.239 817.929 360.193C817.897 364.955 817.995 369.713 818.215 374.458C820.992 433.911 842.45 491.754 870.012 546.882C900.682 608.216 938.188 672.169 925.047 737.154C910.73 807.955 842.953 864.943 762.363 892.946C743.485 899.489 724.036 904.631 704.233 908.379C599.906 928.188 487.547 911.795 385.381 882.191C275.956 850.546 172.91 805.045 63.8091 773.644C40.1922 766.841 16.065 760.721 -8.24067 755.992C-49.4671 747.998 -91.7526 743.946 -132.992 749.946C-145.372 751.728 -157.622 754.546 -169.507 758.397C-220.721 775.036 -264.166 813.615 -266.073 858.421" stroke="#2F3443" stroke-miterlimit="10"/>
<path d="M743.173 -461.876C721.403 -413.483 759.752 -356.424 814.033 -326.175C868.312 -295.926 934.916 -284.845 997.574 -267.938C1039.06 -256.727 1080.97 -240.059 1108.67 -214.109C1138.57 -186.299 1143 -151.523 1148.59 -117.805C1155.67 -75.0427 1148.38 -27.1391 1117.71 12.3378C1087.06 51.7974 1043.47 83.2575 1000.73 113.813C958.629 143.678 915.835 174.032 885.071 212.395C848.924 257.507 831.544 311.711 831.155 365.969C831.12 370.671 831.214 375.366 831.431 380.051C834.15 438.738 855.372 495.812 882.439 550.304C912.554 610.92 948.984 674.002 936.885 738.215C923.255 810.551 855.391 869.458 773.562 898.828C754.408 905.684 734.633 911.102 714.479 915.073C608.221 936.061 493.437 919.631 389.207 889.392C279.364 857.592 175.995 811.831 66.8137 779.579C43.1738 772.592 19.0485 766.256 -5.25528 761.257C-46.4586 752.811 -88.8094 748.138 -130.224 753.646C-142.67 755.281 -154.996 757.959 -166.98 761.696C-218.59 777.837 -262.669 816.824 -263.74 861.777" stroke="#2D3141" stroke-miterlimit="10"/>
<path d="M744.665 -462.458C724.423 -412.881 764.496 -355.86 820.023 -325.611C875.549 -295.362 943.211 -284.295 1006.88 -267.109C1050.48 -255.321 1094.52 -237.535 1122.73 -209.58C1153.16 -179.653 1155.22 -142.58 1159.29 -106.908C1164.09 -64.791 1156.51 -17.6675 1125.94 21.2886C1095.4 60.224 1052.6 91.6131 1010.57 122.063C969.423 151.872 927.547 182.104 897.425 220.081C862.018 264.762 844.785 318.181 844.374 371.743C844.34 376.385 844.43 381.02 844.643 385.642C847.306 443.564 868.289 499.867 894.862 553.726C924.423 613.623 959.811 675.843 948.721 739.275C935.805 813.155 867.83 873.973 784.759 904.71C765.329 911.879 745.229 917.574 724.721 921.766C616.533 943.934 499.321 927.47 393.031 896.594C282.767 864.639 179.079 818.618 69.8162 785.514C46.1533 778.34 22.0299 771.79 -2.27381 766.522C-43.4561 757.627 -85.8701 752.331 -127.457 757.35C-139.969 758.838 -152.373 761.376 -164.455 765C-216.46 780.644 -261.175 820.04 -261.409 865.136" stroke="#2B2F3E" stroke-miterlimit="10"/>
<path d="M746.16 -463.038C727.447 -412.28 769.243 -355.294 826.017 -325.045C882.79 -294.796 951.509 -283.743 1016.19 -266.278C1061.92 -253.91 1108.07 -235.009 1136.8 -205.05C1167.75 -173.007 1175.6 -133.435 1169.99 -96.01C1181.47 -55.6093 1164.64 -8.1934 1134.18 30.2403C1103.75 68.6515 1061.66 99.9004 1020.41 130.316C980.151 160.001 939.264 190.177 909.784 227.768C875.115 272.02 858.03 324.652 857.6 377.52C857.563 382.1 857.65 386.674 857.859 391.234C860.466 448.39 881.211 503.925 907.29 557.146C936.296 616.326 970.675 677.688 960.561 740.334C948.386 815.762 880.269 878.489 795.961 910.592C776.256 918.074 755.83 924.048 734.968 928.46C624.85 951.808 505.214 935.307 396.861 903.798C286.179 871.688 182.166 825.405 72.825 791.452C49.141 784.093 25.0157 777.327 0.715753 771.791C-40.4435 762.445 -82.9228 756.525 -124.684 761.054C-137.261 762.393 -149.744 764.793 -161.924 768.303C-214.326 783.449 -259.674 823.255 -259.072 868.496" stroke="#282C3C" stroke-miterlimit="10"/>
<path d="M747.653 -463.619C730.467 -411.679 773.988 -354.729 832.009 -324.479C890.029 -294.228 959.805 -283.191 1025.49 -265.446C1073.35 -252.499 1121.62 -232.479 1150.87 -200.519C1182.34 -166.358 1188.54 -124.24 1180.69 -85.1107C1190.21 -45.1321 1172.77 1.28031 1142.42 39.1933C1112.09 77.0803 1070.73 108.189 1030.26 138.568C990.88 168.127 950.983 198.25 922.142 235.457C888.212 279.278 871.272 331.124 870.823 383.297C870.785 387.816 870.869 392.328 871.073 396.828C873.625 453.219 894.13 507.983 919.715 560.57C948.165 619.032 981.565 679.542 972.4 741.397C960.993 818.38 892.71 883.006 807.162 916.476C787.181 924.272 766.429 930.522 745.214 935.155C633.166 959.683 511.104 943.146 400.687 911.003C289.584 878.736 185.251 832.192 75.8296 797.39C52.1245 789.844 27.9992 782.865 3.70117 777.057C-37.437 767.262 -79.9795 760.719 -121.916 764.757C-134.558 765.949 -147.118 768.208 -159.399 771.604C-212.197 786.254 -258.18 826.466 -256.741 871.853" stroke="#262A3A" stroke-miterlimit="10"/>
<path d="M749.147 -464.203C733.491 -411.082 778.735 -354.168 838.003 -323.917C897.268 -293.667 968.104 -282.643 1034.8 -264.62C1084.78 -251.095 1135.17 -229.958 1164.93 -195.993C1196.93 -159.714 1201.49 -115.049 1191.39 -74.2161C1198.95 -34.6579 1180.9 10.7511 1150.65 48.1433C1120.44 85.5061 1079.79 116.471 1040.1 146.819C1001.61 176.252 962.699 206.321 934.5 243.144C901.311 286.534 884.517 337.595 884.047 389.073C884.006 393.531 884.089 397.98 884.287 402.42C886.783 458.044 907.048 512.041 932.138 563.991C960.034 621.735 992.482 681.398 984.236 742.456C973.627 820.998 905.146 887.522 818.359 922.359C798.102 930.469 777.025 936.997 755.458 941.849C641.479 967.557 516.99 950.985 404.512 918.205C292.99 885.785 188.336 838.982 78.836 803.326C55.1079 795.595 30.9845 788.4 6.68651 782.324C-34.4286 772.077 -77.0364 764.913 -119.147 768.462C-131.855 769.507 -144.493 771.626 -156.872 774.908C-210.065 789.059 -256.683 829.681 -254.408 875.213" stroke="#242737" stroke-miterlimit="10"/>
<path d="M750.64 -464.784C736.513 -410.481 783.48 -353.602 843.995 -323.351C904.507 -293.099 976.4 -282.091 1044.11 -263.788C1096.21 -249.683 1148.72 -227.43 1179 -191.461C1211.52 -153.068 1214.43 -105.854 1202.09 -63.3169C1207.69 -24.1808 1189.03 20.2248 1158.89 57.0963C1128.78 93.935 1088.85 124.758 1049.94 155.071C1012.33 184.376 974.416 214.393 946.86 250.83C914.41 293.79 897.763 344.067 897.272 394.848C897.23 399.244 897.309 403.633 897.502 408.01C899.941 462.87 919.97 516.097 944.565 567.412C971.906 624.438 1003.43 683.254 996.074 743.515C986.296 823.62 917.585 892.036 829.559 928.24C809.027 936.663 787.622 943.467 765.701 948.539C649.793 975.427 522.879 958.819 408.336 925.404C296.396 892.828 191.418 845.764 81.8388 809.261C58.0876 801.342 33.9661 793.935 9.67003 787.589C-31.424 776.892 -74.0951 769.104 -116.381 772.163C-129.155 773.06 -141.87 775.041 -154.347 778.207C-207.937 791.86 -255.19 832.892 -252.078 878.568" stroke="#212535" stroke-miterlimit="10"/>
<path d="M752.134 -465.365C739.535 -409.881 788.227 -353.038 849.986 -322.786C911.746 -292.533 984.698 -281.539 1053.42 -262.957C1107.64 -248.273 1162.27 -224.902 1193.06 -186.93C1226.1 -146.419 1218.02 -98.062 1212.79 -52.4177C1208.37 -13.7591 1197.16 29.7002 1167.12 66.0493C1137.12 102.364 1097.91 133.043 1059.78 163.325C1023.05 192.502 986.133 222.467 959.218 258.52C927.508 301.051 911.006 350.541 910.497 400.626C910.453 404.961 910.53 409.29 910.72 413.604C913.103 467.698 932.892 520.155 956.994 570.836C983.781 627.144 1014.41 685.118 1007.92 744.578C999.002 826.249 930.028 896.555 840.762 934.125C819.954 942.862 798.225 949.944 775.951 955.236C658.112 983.304 528.771 966.659 412.168 932.611C299.807 899.88 194.509 852.556 84.849 815.2C61.0768 807.096 36.9534 799.472 12.6611 792.858C-28.4098 781.712 -71.1481 773.301 -113.604 775.87C-126.444 776.621 -139.236 778.461 -151.813 781.513C-205.798 794.67 -253.686 836.11 -249.738 881.931" stroke="#1F2333" stroke-miterlimit="10"/>
<path d="M753.627 -465.946C742.556 -409.28 792.971 -352.474 855.979 -322.221C918.986 -291.969 992.994 -280.987 1062.72 -262.126C1119.08 -246.863 1175.82 -222.376 1207.13 -182.401C1240.69 -139.772 1230.96 -89.1177 1223.5 -41.5202C1217.53 -3.52076 1205.29 39.1739 1175.36 75.0005C1145.47 110.791 1106.96 141.325 1069.63 171.576C1033.78 200.623 997.851 230.538 971.576 266.207C940.605 308.307 924.25 357.011 923.721 406.401C923.675 410.676 923.748 414.942 923.934 419.196C926.261 472.525 945.81 524.212 969.42 574.258C995.65 629.848 1025.4 686.981 1019.75 745.638C1011.74 828.877 942.466 901.07 851.961 940.007C830.877 949.057 808.823 956.416 786.195 961.93C666.426 991.177 534.659 974.498 415.994 939.814C303.215 906.926 197.594 859.343 87.8538 821.137C64.0604 812.847 39.937 805.009 15.6448 798.125C-25.4051 786.527 -68.2067 777.495 -110.838 779.572C-123.743 780.176 -136.613 781.877 -149.288 784.814C-203.668 797.473 -252.191 839.321 -247.406 885.287" stroke="#1D2030" stroke-miterlimit="10"/>
<path d="M755.122 -466.527C745.58 -408.68 797.718 -351.91 861.973 -321.655C926.227 -291.401 1001.29 -280.436 1072.03 -261.296C1130.51 -245.454 1189.37 -219.848 1221.19 -177.872C1255.28 -133.127 1244.05 -80.1387 1234.2 -30.6227C1226.76 6.7488 1213.42 48.646 1183.6 83.9518C1153.81 119.218 1116.02 149.607 1079.47 179.828C1044.5 208.744 1009.57 238.61 983.932 273.894C953.7 315.562 937.493 363.482 936.942 412.178C936.895 416.39 936.966 420.596 937.146 424.79C939.418 477.352 958.729 528.271 981.841 577.68C1007.52 632.552 1036.42 688.846 1031.59 746.699C1024.5 831.509 954.901 905.586 863.156 945.891C841.796 955.254 819.418 962.892 796.437 968.625C674.737 999.051 540.546 982.337 419.816 947.018C306.616 913.976 200.673 866.13 90.8546 827.073C67.0382 818.598 42.9167 810.545 18.6264 803.391C-22.4004 791.344 -65.2673 781.689 -108.073 783.275C-121.043 783.73 -133.992 785.292 -146.765 788.117C-201.541 800.279 -250.699 842.536 -245.077 888.648" stroke="#1A1E2E" stroke-miterlimit="10"/>
<path d="M756.615 -467.109C748.6 -408.08 802.463 -351.344 867.965 -321.09C933.466 -290.836 1009.59 -279.885 1081.34 -260.466C1141.94 -244.044 1202.92 -217.323 1235.26 -173.341C1269.87 -126.479 1257.26 -71.1118 1244.9 -19.7239C1236.05 17.0542 1221.55 58.1209 1191.83 92.9043C1162.16 127.646 1125.08 157.887 1089.31 188.08C1055.22 216.864 1021.29 246.682 996.295 281.582C966.803 322.82 950.74 369.953 950.17 417.954C950.12 422.106 950.187 426.249 950.364 430.382C952.578 482.18 971.651 532.33 994.27 581.103C1019.39 635.258 1047.47 690.713 1043.43 747.761C1037.32 834.142 967.344 910.104 874.361 951.775C852.727 961.451 830.021 969.366 806.686 975.32C683.057 1006.93 546.438 990.176 423.647 954.223C310.028 921.024 203.762 872.918 93.8631 833.012C70.0256 824.35 45.9042 816.082 21.6158 808.661C-19.39 796.163 -62.3202 785.884 -105.3 786.982C-118.338 787.29 -131.361 788.712 -144.236 791.423C-199.409 803.087 -249.2 845.754 -242.742 892.01" stroke="#181B2B" stroke-miterlimit="10"/>
<path d="M758.109 -467.69C751.624 -407.479 807.21 -350.78 873.958 -320.526C940.705 -290.272 1017.89 -279.333 1090.65 -259.635C1153.37 -242.635 1216.47 -214.796 1249.33 -168.812C1284.46 -119.832 1270.61 -62.033 1255.6 -8.82687C1245.38 27.3959 1229.68 67.5924 1200.07 101.855C1170.5 136.073 1134.13 166.166 1099.16 196.332C1065.94 224.983 1033 254.754 1008.65 289.269C979.9 330.078 963.984 376.425 963.395 423.73C963.343 427.822 963.409 431.903 963.579 435.973C965.738 487.005 984.573 536.384 1006.7 584.525C1031.26 637.961 1058.53 692.576 1055.27 748.822C1050.17 836.773 979.782 914.62 885.561 957.659C863.649 967.649 840.62 975.841 816.932 982.015C691.372 1014.8 552.328 998.014 427.473 961.426C313.435 928.074 206.85 879.708 96.8716 838.951C73.011 830.102 48.8896 821.622 24.6031 813.928C-16.3796 800.979 -59.375 790.079 -102.53 790.686C-115.632 790.847 -128.735 792.129 -141.707 794.725C-197.275 805.891 -247.702 848.966 -240.407 895.368" stroke="#161929" stroke-miterlimit="10"/>
<path d="M759.602 -468.271C754.646 -406.878 811.955 -350.216 879.95 -319.96C947.944 -289.704 1026.18 -278.781 1099.95 -258.804C1164.81 -241.226 1230.02 -212.269 1263.39 -164.282C1299.05 -113.187 1284.09 -52.8928 1266.3 2.07098C1254.74 37.7799 1237.81 77.0665 1208.31 110.807C1178.85 144.5 1143.18 174.445 1109 204.583C1076.65 233.099 1044.72 262.827 1021.01 296.955C992.996 337.333 977.227 382.894 976.617 429.504C976.565 433.533 976.624 437.555 976.791 441.564C978.894 491.831 997.49 540.44 1019.12 587.944C1043.13 640.662 1069.61 694.436 1067.1 749.879C1063.06 839.401 992.219 919.132 896.758 963.537C874.57 973.841 851.214 982.31 827.173 988.704C699.684 1022.67 558.215 1005.85 431.297 968.624C316.841 935.115 209.931 886.488 99.8742 844.882C75.9925 835.848 51.8711 827.151 27.5865 819.19C-13.3751 805.791 -56.4338 794.267 -99.7612 794.383C-112.929 794.397 -126.11 795.541 -139.18 798.021C-195.144 808.69 -246.207 852.174 -238.076 898.721" stroke="#131627" stroke-miterlimit="10"/>
<path d="M761.097 -468.852C757.668 -406.278 816.702 -349.65 885.942 -319.394C955.183 -289.138 1034.48 -278.229 1109.26 -257.972C1176.24 -239.814 1243.57 -209.741 1277.46 -159.749C1313.64 -106.536 1297.69 -43.6838 1277 12.972C1264.13 48.2104 1245.94 86.542 1216.54 119.761C1187.19 152.931 1152.23 182.725 1118.84 212.839C1087.37 241.22 1056.43 270.903 1033.37 304.647C1006.09 344.594 990.47 389.37 989.84 435.284C989.786 439.253 989.844 443.213 990.007 447.161C992.054 496.661 1010.41 544.502 1031.55 591.372C1055.01 643.372 1080.72 696.303 1078.94 750.945C1075.99 842.035 1004.66 923.654 907.959 969.427C885.497 980.044 861.815 988.789 837.421 995.404C708.001 1030.55 564.105 1013.69 435.127 975.835C320.25 942.172 213.02 893.284 102.883 850.827C78.978 841.607 54.8585 832.696 30.5758 824.463C-10.3628 810.615 -53.4867 798.466 -96.9887 798.095C-110.222 797.961 -123.48 798.965 -136.649 801.331C-193.01 811.502 -244.707 855.396 -235.739 902.087" stroke="#111424" stroke-miterlimit="10"/>
<path d="M762.589 -469.435C760.69 -405.679 821.446 -349.087 891.934 -318.831C962.422 -288.575 1042.78 -277.68 1118.57 -257.145C1187.67 -238.407 1257.12 -207.217 1291.52 -155.223C1328.23 -99.8927 1311.41 -34.4105 1287.7 23.8663C1273.54 58.6808 1254.07 96.0125 1224.78 128.711C1195.53 161.356 1161.28 190.998 1128.68 221.088C1098.08 249.334 1068.15 278.972 1045.73 312.332C1019.19 351.85 1003.71 395.839 1003.06 441.058C1003.01 444.966 1003.06 448.863 1003.22 452.751C1005.21 501.486 1023.33 548.558 1043.97 594.791C1066.87 646.073 1091.84 698.158 1090.78 752.004C1088.97 844.66 1017.1 928.168 919.156 975.308C896.418 986.238 872.412 995.261 847.663 1002.1C716.311 1038.42 569.992 1021.53 438.949 983.035C323.652 949.217 216.101 900.07 105.884 856.761C81.9559 847.355 57.8382 838.229 33.5556 829.728C-7.36189 815.43 -50.5492 802.659 -94.2257 801.795C-107.524 801.515 -120.861 802.378 -134.128 804.631C-190.884 814.303 -243.216 858.605 -233.412 905.443" stroke="#0F1122" stroke-miterlimit="10"/>
<path d="M764.084 -470.017C763.714 -405.078 826.193 -348.524 897.928 -318.267C969.663 -288.009 1051.07 -277.129 1127.87 -256.315C1199.1 -237 1270.67 -204.692 1305.59 -150.694C1342.82 -93.2473 1325.24 -25.0593 1298.41 34.7641C1282.96 69.1997 1262.2 105.486 1233.02 137.663C1203.88 169.784 1170.33 199.272 1138.53 229.339C1108.8 257.446 1079.87 287.043 1058.09 320.017C1032.29 359.104 1016.96 402.308 1016.29 446.833C1016.24 450.679 1016.29 454.516 1016.44 458.341C1018.37 506.31 1036.25 552.614 1056.4 598.211C1078.75 648.776 1102.98 700.013 1102.63 753.064C1102 847.281 1029.54 932.684 930.361 981.19C907.347 992.433 883.014 1001.73 857.914 1008.79C724.632 1046.3 575.886 1029.37 442.782 990.238C327.067 956.264 219.192 906.857 108.896 862.697C84.947 853.104 60.8294 843.764 36.5486 834.995C-4.34582 820.245 -47.5983 806.853 -91.4494 805.5C-104.815 805.072 -118.228 805.796 -131.596 807.936C-188.747 817.112 -241.714 861.822 -231.073 908.803" stroke="#0D0F20" stroke-miterlimit="10"/>
<path d="M765.577 -470.599C766.734 -404.478 830.938 -347.959 903.92 -317.701C976.902 -287.444 1059.37 -276.577 1137.18 -255.483C1210.53 -235.588 1284.22 -202.165 1319.65 -146.163C1357.41 -86.5992 1339.16 -15.6294 1309.11 45.6628C1292.38 79.7663 1270.33 114.96 1241.25 146.615C1212.22 178.212 1179.3 207.499 1148.37 237.592C1119.44 265.518 1091.58 295.117 1070.44 327.706C1045.39 366.363 1030.2 408.781 1029.51 452.611C1029.45 456.396 1029.5 460.171 1029.65 463.935C1031.53 511.14 1049.17 556.672 1068.82 601.635C1090.62 651.481 1114.13 701.867 1114.46 754.125C1115.07 849.9 1041.98 937.201 941.557 987.073C918.266 998.63 893.609 1008.21 868.154 1015.49C732.942 1054.17 581.77 1037.21 446.602 997.443C330.467 963.315 222.272 913.645 111.895 868.636C87.9247 858.858 63.8052 849.303 39.5283 840.262C-1.34509 825.062 -44.6609 811.046 -88.6866 809.204C-102.117 808.627 -115.607 809.212 -129.075 811.238C-186.621 819.916 -240.223 865.036 -228.745 912.163" stroke="#0A0C1D" stroke-miterlimit="10"/>
<path d="M767.071 -471.179C769.757 -403.877 835.685 -347.394 909.914 -317.137C984.142 -286.877 1067.67 -276.027 1146.49 -254.654C1221.96 -234.18 1297.77 -199.638 1333.72 -141.635C1372 -79.9535 1353.18 -6.12403 1319.81 56.5591C1301.81 90.3788 1278.46 124.432 1249.49 155.565C1220.57 186.638 1188.36 215.78 1158.21 245.842C1130.17 273.638 1103.3 303.186 1082.8 335.392C1058.49 373.618 1043.45 415.25 1042.74 458.384C1042.68 462.109 1042.72 465.823 1042.87 469.526C1044.69 515.964 1062.09 560.728 1081.25 605.056C1102.49 654.184 1125.3 703.714 1126.3 755.185C1128.19 852.51 1054.42 941.715 952.764 992.956C929.199 1004.83 904.216 1014.68 878.408 1022.18C741.265 1062.04 587.666 1045.04 450.438 1004.65C333.884 970.362 225.366 920.433 114.909 874.572C90.9159 864.608 66.7982 854.838 42.5214 845.529C1.67102 829.88 -41.71 815.24 -85.9084 812.906C-99.4043 812.183 -112.973 812.628 -126.538 814.54C-184.482 822.721 -238.717 868.248 -226.403 915.52" stroke="#080A1B" stroke-miterlimit="10"/>
<path d="M768.564 -471.76C772.779 -403.276 840.43 -346.83 915.904 -316.571C991.379 -286.311 1075.97 -275.474 1155.79 -253.822C1233.39 -232.769 1311.32 -197.111 1347.78 -137.102C1386.59 -73.3049 1367.27 3.46554 1330.51 67.46C1311.22 101.039 1286.59 133.908 1257.72 164.52C1228.91 195.068 1197.42 224.065 1168.05 254.098C1140.88 281.764 1115.02 311.262 1095.16 343.082C1071.58 380.879 1056.69 421.724 1055.96 464.163C1055.9 467.827 1055.94 471.479 1056.08 475.121C1057.85 520.794 1075.01 564.788 1093.68 608.479C1114.36 656.89 1136.48 705.56 1138.14 756.247C1141.36 855.117 1066.85 946.234 963.957 998.84C940.116 1011.02 914.807 1021.16 888.646 1028.87C749.573 1069.92 593.549 1052.88 454.258 1011.85C337.284 977.411 228.444 927.222 117.91 880.51C93.8957 870.36 69.778 860.376 45.5031 850.797C4.67576 834.696 -38.7705 819.436 -83.1435 816.612C-96.7066 815.742 -110.352 816.048 -124.015 817.844C-182.354 825.527 -237.226 871.464 -224.073 918.881" stroke="#060719" stroke-miterlimit="10"/>
<path d="M770.059 -472.342C775.801 -402.677 845.176 -346.265 921.898 -316.006C998.62 -285.746 1084.26 -274.923 1165.1 -252.992C1244.83 -231.36 1324.87 -194.584 1361.85 -132.574C1401.18 -66.659 1381.43 13.1269 1341.21 78.3565C1320.63 111.742 1294.72 143.38 1265.96 173.47C1237.26 203.494 1206.47 232.347 1177.9 262.347C1151.6 289.884 1126.73 319.332 1107.52 350.768C1084.68 388.134 1069.93 428.195 1069.18 469.937C1069.12 473.539 1069.16 477.13 1069.3 480.711C1071.01 525.619 1087.93 568.844 1106.1 611.901C1126.23 659.593 1147.68 707.398 1149.97 757.307C1154.6 857.713 1079.29 950.749 975.156 1004.72C951.039 1017.22 925.405 1027.63 898.891 1035.57C757.888 1077.79 599.439 1060.72 458.083 1019.05C340.692 984.461 231.529 934.009 120.914 886.448C96.8771 876.111 72.7613 865.913 48.4864 856.064C7.68016 839.513 -35.8294 823.628 -80.377 820.315C-94.0053 819.298 -107.728 819.464 -121.49 821.146C-180.224 828.332 -235.731 874.677 -221.744 922.238" stroke="#030516" stroke-miterlimit="10"/>
<path d="M771.551 -472.923C778.823 -402.076 849.921 -345.701 927.89 -315.441C1005.86 -285.18 1092.56 -274.373 1174.41 -252.161C1256.26 -229.95 1338.42 -192.058 1375.91 -128.044C1415.76 -60.0121 1395.64 22.8653 1351.91 89.2541C1308.18 155.643 1243.38 210.589 1187.74 270.6C1132.1 330.61 1083.82 400.159 1082.41 475.714C1080.59 572.867 1156.03 661.32 1161.81 758.366C1169.29 883.897 1052.07 998.857 909.137 1042.26C766.204 1085.66 605.328 1068.56 461.911 1026.25C318.493 983.955 187.415 917.999 51.4739 861.329C-1.79785 839.123 -59.8318 817.759 -118.961 824.447C-178.091 831.135 -234.233 877.888 -219.409 925.597" stroke="#010214" stroke-miterlimit="10"/>
<path d="M772.578 -473.479C779.424 -425.085 815.717 -384.55 862.759 -354.456C886.958 -339.006 914.078 -326.247 941.952 -316.337C967.557 -307.225 993.975 -299.902 1020.78 -293.263C1079.93 -278.62 1140.62 -266.397 1198.17 -249.334C1277.37 -225.853 1357.61 -189.388 1394.21 -126.624C1433.12 -59.9168 1414.09 21.1423 1372.06 86.3408C1330.03 151.551 1266.94 205.444 1213.29 264.733C1164.47 318.678 1118.15 377.963 1103.63 443.228C1101.29 453.76 1099.8 464.441 1099.24 475.254C1094.1 575.298 1167.06 668.832 1169.72 768.324C1173 891.246 1060.15 1003.41 919.962 1046.31C779.8 1089.21 622.4 1072.55 481.069 1032.92C381.379 1004.97 286.724 965.923 193.049 925.166C148.983 905.992 105.045 886.577 60.6338 868.066C10.737 847.269 -43.0068 827.144 -97.969 828.044C-102.927 828.125 -107.894 828.379 -112.871 828.821C-139.85 831.194 -166.316 841.399 -186.372 856.421C-211.001 874.93 -225.911 900.861 -218.626 927.683" stroke="#010214" stroke-miterlimit="10"/>
<path d="M773.603 -474.034C782.49 -424.064 822.396 -383.491 872.368 -354.124C898.122 -339.04 926.708 -326.79 956.014 -317.237C982.9 -308.452 1010.56 -301.354 1038.57 -294.667C1100.38 -279.916 1163.1 -265.403 1221.93 -246.513C1298.49 -221.929 1376.81 -186.724 1412.51 -125.21C1450.46 -59.8268 1432.54 19.4124 1392.21 83.4207C1351.88 147.453 1290.56 200.343 1238.83 258.862C1189.12 315.099 1138.92 374.903 1121.66 441.87C1118.88 452.679 1116.99 463.657 1116.07 474.786C1107.61 577.721 1178.15 676.236 1177.62 778.275C1176.99 898.515 1068.23 1007.95 930.787 1050.36C793.398 1092.75 639.405 1076.63 500.227 1039.58C398.35 1012.45 300.906 974.066 205.088 932.839C160.011 913.444 115.128 893.687 69.7935 874.795C18.8606 853.572 -35.7581 832.983 -91.6354 832.736C-96.6719 832.715 -101.722 832.86 -106.783 833.189C-134.251 834.941 -161.293 844.313 -182.227 858.798C-207.855 876.641 -224.233 902.46 -217.847 929.768" stroke="#010214" stroke-miterlimit="10"/>
<path d="M774.627 -474.59C785.556 -423.045 829.077 -382.433 881.974 -353.791C909.285 -339.076 939.337 -327.333 970.072 -318.136C998.24 -309.678 1027.15 -302.805 1056.35 -296.072C1120.82 -281.213 1185.53 -264.456 1245.69 -243.689C1319.64 -218.161 1396 -184.058 1430.81 -123.795C1467.81 -59.7346 1450.98 17.6864 1412.35 80.5027C1373.72 143.357 1314.23 195.288 1264.37 252.991C1213.78 311.541 1159.69 371.843 1139.69 440.512C1136.45 451.598 1134.18 462.876 1132.9 474.322C1121.12 580.148 1189.31 683.557 1185.52 788.228C1181.26 905.725 1076.31 1012.5 941.607 1054.41C806.987 1096.3 656.345 1080.81 519.381 1046.24C415.278 1019.97 315.083 982.212 217.124 940.515C171.034 920.897 125.206 900.803 78.9492 881.529C26.9821 859.875 -28.5134 838.822 -85.3059 837.428C-90.423 837.305 -95.5536 837.342 -100.697 837.558C-128.654 838.689 -156.31 847.187 -178.085 861.174C-204.754 878.303 -222.556 904.057 -217.07 931.85" stroke="#010214" stroke-miterlimit="10"/>
<path d="M775.654 -475.145C788.624 -422.023 835.758 -381.373 891.585 -353.458C920.45 -339.109 951.97 -327.875 984.134 -319.033C1013.58 -310.904 1043.73 -304.253 1074.14 -297.472C1141.27 -282.506 1207.93 -263.555 1269.45 -240.863C1340.83 -214.534 1415.19 -181.389 1449.11 -122.375C1485.16 -59.6401 1469.42 15.9627 1432.5 77.5887C1395.57 139.263 1337.97 190.278 1289.92 247.125C1238.46 308.009 1180.46 368.789 1157.72 439.16C1154.04 450.523 1151.37 462.1 1149.73 473.862C1134.63 582.579 1200.56 690.806 1193.42 798.187C1185.79 912.892 1084.39 1017.05 952.432 1058.47C820.585 1099.85 673.237 1085.07 538.539 1052.91C432.176 1027.51 329.264 990.363 229.166 948.196C182.064 928.356 135.291 907.923 88.109 888.267C35.1078 866.185 -21.2627 844.667 -78.9723 842.124C-84.1681 841.899 -89.3811 841.827 -94.6095 841.93C-123.056 842.441 -151.295 850.094 -173.941 863.554C-201.615 880.002 -220.877 905.657 -216.291 933.937" stroke="#010214" stroke-miterlimit="10"/>
<path d="M776.678 -475.7C791.69 -421.001 842.436 -380.313 901.194 -353.126C931.614 -339.146 964.6 -328.418 998.194 -319.932C1028.93 -312.13 1060.32 -305.705 1091.92 -298.876C1161.72 -283.801 1230.31 -262.709 1293.21 -238.041C1362.05 -211.044 1434.39 -178.723 1467.4 -120.961C1502.51 -59.5499 1487.87 14.2329 1452.65 74.6687C1417.42 135.165 1361.75 185.297 1315.47 241.252C1263.15 304.489 1201.23 365.726 1175.75 437.801C1171.62 449.44 1168.56 461.317 1166.56 473.394C1148.14 585.001 1211.91 697.983 1201.32 808.137C1190.57 920.014 1092.47 1021.59 963.257 1062.52C834.181 1103.39 690.079 1089.41 557.699 1059.57C449.043 1035.07 343.447 998.503 241.207 955.867C193.094 935.806 145.373 915.034 97.2705 894.995C43.2351 872.484 -14.0122 850.501 -72.637 846.813C-77.9134 846.486 -83.207 846.306 -88.5178 846.297C-117.453 846.185 -146.274 852.996 -169.793 865.927C-198.471 881.698 -219.194 907.252 -215.507 936.018" stroke="#010214" stroke-miterlimit="10"/>
<path d="M777.703 -476.255C794.756 -419.98 849.118 -379.254 910.803 -352.792C942.779 -339.179 977.231 -328.96 1012.26 -320.829C1044.27 -313.353 1076.91 -307.153 1109.71 -300.276C1182.17 -285.094 1252.68 -261.914 1316.97 -235.214C1383.31 -207.669 1453.58 -176.054 1485.7 -119.543C1519.86 -59.4569 1506.32 12.5094 1472.8 71.755C1439.27 131.073 1385.59 180.356 1341.02 235.387C1287.87 300.997 1222.01 362.672 1193.78 436.449C1189.21 448.366 1185.76 460.541 1183.4 472.935C1161.65 587.433 1223.36 705.115 1209.23 818.096C1195.58 927.121 1100.55 1026.14 974.084 1066.57C847.78 1106.93 706.879 1093.84 576.859 1066.24C465.881 1042.67 357.632 1006.65 253.249 963.547C204.125 943.263 155.458 922.154 106.432 901.733C51.3608 878.795 -6.76134 856.346 -66.3014 851.511C-71.6564 851.08 -77.0325 850.793 -82.4278 850.672C-111.852 849.938 -141.254 855.905 -165.646 868.309C-195.326 883.402 -217.513 908.855 -214.726 938.106" stroke="#010214" stroke-miterlimit="10"/>
<path d="M778.729 -476.81C797.824 -418.959 855.8 -378.195 920.413 -352.459C953.946 -339.213 989.863 -329.502 1026.32 -321.728C1059.61 -314.581 1093.49 -308.606 1127.5 -301.679C1202.61 -286.389 1275.04 -261.172 1340.73 -232.389C1404.61 -204.404 1472.77 -173.385 1504 -118.124C1537.21 -59.361 1524.77 10.7853 1492.95 68.8406C1461.12 126.981 1409.47 175.442 1366.56 229.52C1312.61 297.521 1242.78 359.616 1211.81 435.094C1206.8 447.288 1202.95 459.762 1200.23 472.472C1175.16 589.863 1234.93 712.202 1217.13 828.051C1200.82 934.207 1108.64 1030.69 984.911 1070.62C861.378 1110.48 723.638 1098.35 596.018 1072.9C482.688 1050.3 371.814 1014.8 265.29 971.224C215.155 950.719 165.542 929.27 115.592 908.467C59.4862 885.1 0.487207 862.187 -59.9661 856.205C-65.4017 855.672 -70.8584 855.276 -76.3362 855.043C-106.25 853.688 -136.229 858.814 -161.498 870.687C-192.178 885.103 -215.831 910.455 -213.943 940.192" stroke="#010214" stroke-miterlimit="10"/>
<path d="M779.754 -477.366C800.89 -417.939 862.479 -377.137 930.02 -352.126C965.108 -339.248 1002.49 -330.045 1040.38 -322.626C1074.95 -315.807 1110.08 -310.056 1145.28 -303.083C1223.06 -287.686 1297.4 -260.492 1364.49 -229.566C1425.94 -201.239 1491.96 -170.72 1522.3 -116.71C1554.55 -59.2702 1543.21 9.05617 1513.09 65.9213C1482.97 122.883 1433.39 170.55 1392.11 223.649C1337.36 294.063 1263.55 356.556 1229.83 433.737C1224.38 446.208 1220.14 458.981 1217.06 472.006C1188.67 592.288 1246.62 719.256 1225.03 838.003C1206.25 941.282 1116.71 1035.23 995.73 1074.67C874.969 1114.02 740.354 1102.92 615.172 1079.56C499.465 1057.96 385.991 1022.94 277.328 978.899C226.182 958.17 175.623 936.385 124.75 915.199C67.6098 891.403 7.73592 868.027 -53.6345 860.898C-59.1488 860.263 -64.688 859.758 -70.2502 859.412C-100.653 857.434 -131.21 861.721 -157.356 873.063C-189.033 886.806 -214.154 912.051 -213.166 942.275" stroke="#010214" stroke-miterlimit="10"/>
<path d="M780.778 -477.921C803.956 -416.918 869.16 -376.078 939.629 -351.794C976.273 -339.283 1015.12 -330.588 1054.44 -323.524C1090.29 -317.031 1126.67 -311.506 1163.07 -304.484C1243.51 -288.978 1319.78 -259.865 1388.25 -226.741C1447.33 -198.161 1511.16 -168.052 1540.6 -115.293C1571.9 -59.1783 1561.65 7.32983 1533.24 63.0047C1504.82 118.789 1457.35 165.682 1417.65 217.779C1362.14 290.624 1284.32 353.496 1247.86 432.381C1241.96 445.129 1237.33 458.201 1233.89 471.542C1202.18 594.715 1258.45 726.294 1232.93 847.958C1211.88 948.36 1124.79 1039.78 1006.56 1078.72C888.565 1117.57 757.044 1107.58 634.33 1086.22C516.221 1065.67 400.172 1031.09 289.368 986.577C237.21 965.627 185.704 943.502 133.909 921.934C75.7336 897.709 14.9847 873.87 -47.3009 865.593C-52.8958 864.856 -58.5175 864.242 -64.1603 863.784C-95.0527 861.185 -126.183 864.633 -153.208 875.442C-185.88 888.512 -212.471 913.651 -212.381 944.36" stroke="#010214" stroke-miterlimit="10"/>
<path d="M781.805 -478.477C807.024 -415.898 875.841 -375.02 949.239 -351.46C987.44 -339.316 1027.75 -331.129 1068.5 -324.422C1105.64 -318.258 1143.25 -312.956 1180.85 -305.887C1263.95 -290.274 1342.18 -259.303 1412.01 -223.916C1468.75 -195.164 1530.36 -165.385 1558.9 -113.874C1589.25 -59.0835 1580.1 5.60639 1553.39 60.0893C1526.67 114.693 1481.34 160.838 1443.2 211.911C1386.96 287.209 1305.09 350.439 1265.89 431.026C1259.55 444.051 1254.53 457.422 1250.72 471.078C1215.69 597.142 1270.42 733.324 1240.84 857.912C1217.68 955.442 1132.87 1044.32 1017.38 1082.78C902.163 1121.11 773.71 1112.3 653.49 1092.89C532.956 1073.42 414.357 1039.23 301.409 994.253C248.241 973.08 195.788 950.615 143.071 928.667C83.8611 904.014 22.2355 879.708 -40.9654 870.285C-46.6408 869.444 -52.3431 868.724 -58.0703 868.152C-89.452 864.932 -121.158 867.541 -149.061 877.817C-182.73 890.216 -210.79 915.247 -211.6 946.443" stroke="#010214" stroke-miterlimit="10"/>
<path d="M782.829 -479.032C810.09 -414.877 882.519 -373.961 958.848 -351.128C998.605 -339.352 1040.39 -331.673 1082.56 -325.32C1120.98 -319.483 1159.84 -314.405 1198.64 -307.288C1284.4 -291.568 1364.62 -258.801 1435.77 -221.091C1490.22 -192.236 1549.55 -162.716 1577.19 -112.457C1606.6 -58.9899 1598.55 3.87999 1573.53 57.1726C1548.52 110.599 1505.37 156.011 1468.75 206.043C1411.81 283.811 1325.86 347.382 1283.92 429.671C1277.14 442.973 1271.72 456.643 1267.55 470.617C1229.21 599.571 1282.54 740.36 1248.74 867.868C1223.64 962.54 1140.96 1048.87 1028.21 1086.83C915.76 1124.66 790.349 1117.09 672.65 1099.55C549.669 1081.22 428.54 1047.38 313.451 1001.93C259.271 980.536 205.873 957.733 152.231 935.4C91.9866 910.319 29.4841 885.549 -34.632 874.978C-40.3861 874.035 -46.1709 873.207 -51.9806 872.523C-83.8516 868.683 -116.131 870.456 -144.915 880.196C-179.576 891.925 -209.11 916.846 -210.819 948.529" stroke="#010214" stroke-miterlimit="10"/>
<path d="M783.854 -479.587C813.156 -413.856 889.2 -372.901 968.456 -350.794C1009.77 -339.384 1053.02 -332.213 1096.62 -326.217C1136.32 -320.709 1176.42 -315.855 1216.42 -308.691C1304.85 -292.863 1387.09 -258.367 1459.53 -218.267C1511.73 -189.373 1568.74 -160.049 1595.49 -111.042C1623.95 -58.8994 1616.99 2.15231 1593.68 54.2547C1570.36 106.502 1529.43 151.199 1494.29 200.172C1436.7 280.435 1346.63 344.322 1301.95 428.314C1294.72 441.892 1288.91 455.86 1284.38 470.152C1242.71 601.997 1294.82 747.41 1256.64 877.821C1229.75 969.653 1149.03 1053.42 1039.03 1090.88C929.354 1128.2 806.966 1121.94 691.806 1106.21C566.361 1089.08 442.719 1055.53 325.49 1009.61C270.3 987.989 215.955 964.847 161.39 942.134C100.11 916.625 36.7345 891.39 -28.2987 879.672C-34.1333 878.627 -39.9987 877.69 -45.8928 876.894C-78.2531 872.431 -111.106 873.37 -140.771 882.575C-176.425 893.637 -207.431 918.447 -210.041 950.614" stroke="#010214" stroke-miterlimit="10"/>
<path d="M784.88 -480.143C816.224 -412.836 895.883 -371.843 978.065 -350.462C1020.93 -339.42 1065.65 -332.757 1110.68 -327.118C1151.66 -321.936 1193.01 -317.307 1234.21 -310.094C1325.3 -294.158 1409.62 -258.004 1483.29 -215.444C1533.28 -186.567 1587.94 -157.384 1613.79 -109.626C1641.3 -58.8068 1635.44 0.426701 1613.82 51.3371C1592.21 102.407 1553.52 146.402 1519.84 194.303C1461.63 277.08 1367.41 341.264 1319.98 426.958C1312.3 440.814 1306.1 455.081 1301.21 469.689C1256.22 604.425 1307.28 754.491 1264.54 887.777C1236 976.79 1157.12 1057.96 1049.86 1094.93C942.954 1131.74 823.572 1126.86 710.966 1112.88C583.042 1096.99 456.902 1063.67 337.532 1017.28C281.33 995.445 226.04 971.965 170.552 948.868C108.238 922.93 43.9854 897.231 -21.963 884.367C-27.8764 883.22 -33.8242 882.173 -39.8009 881.265C-72.6504 876.18 -106.075 876.286 -136.623 884.953C-173.269 895.351 -205.75 920.046 -209.256 952.7" stroke="#010214" stroke-miterlimit="10"/>
<path d="M785.905 -480.698C819.29 -411.813 902.562 -370.784 987.674 -350.128C1032.1 -339.454 1078.28 -333.298 1124.74 -328.013C1167.01 -323.159 1209.6 -318.754 1252 -311.495C1345.74 -295.451 1432.21 -257.711 1507.05 -212.617C1554.88 -183.806 1607.13 -154.714 1632.09 -108.206C1658.64 -58.711 1653.88 -1.29752 1633.97 48.4227C1614.06 98.3141 1577.63 141.621 1545.38 188.435C1486.61 273.75 1388.18 338.208 1338.01 425.604C1329.89 439.737 1323.29 454.303 1318.05 469.226C1269.74 606.853 1319.93 761.612 1272.44 897.732C1242.37 983.953 1165.2 1062.51 1060.68 1098.98C956.547 1135.29 840.161 1131.84 730.124 1119.54C599.708 1104.96 471.082 1071.82 349.571 1024.96C292.357 1002.9 236.121 979.081 179.71 955.602C116.359 929.235 51.2302 903.07 -15.6334 889.061C-21.6273 887.812 -27.6557 886.656 -33.7168 885.635C-67.0556 879.93 -101.052 879.203 -132.482 887.331C-170.122 897.062 -204.075 921.644 -208.48 954.785" stroke="#010214" stroke-miterlimit="10"/>
<path d="M786.93 -481.254C822.356 -410.793 909.243 -369.726 997.283 -349.796C1043.26 -339.489 1090.91 -333.842 1138.8 -328.914C1182.35 -324.388 1226.18 -320.206 1269.78 -312.899C1366.19 -296.748 1454.87 -257.496 1530.81 -209.794C1576.51 -181.092 1626.32 -152.049 1650.38 -106.79C1675.99 -58.6201 1672.33 -3.02479 1654.12 45.5069C1635.91 94.2185 1601.77 136.853 1570.93 182.566C1511.64 270.442 1408.95 335.149 1356.03 424.249C1347.47 438.658 1340.48 453.524 1334.88 468.764C1283.24 609.283 1332.77 768.789 1280.35 907.687C1248.84 991.149 1173.28 1067.06 1071.5 1103.04C970.143 1138.84 856.744 1136.87 749.28 1126.2C616.36 1113.01 485.263 1079.97 361.611 1032.64C303.385 1010.36 246.203 986.2 188.87 962.338C124.485 935.54 58.481 908.91 -9.29975 893.754C-15.3723 892.401 -21.4833 891.14 -27.6269 890.005C-61.4549 883.676 -96.0235 882.121 -128.336 889.707C-166.966 898.776 -202.394 923.242 -207.699 956.868" stroke="#010214" stroke-miterlimit="10"/>
<path d="M787.956 -481.809C825.422 -409.771 915.923 -368.667 1006.89 -349.464C1054.43 -339.523 1103.54 -334.385 1152.86 -329.811C1197.69 -325.612 1242.77 -321.656 1287.57 -314.301C1386.64 -298.043 1477.61 -257.362 1554.57 -206.97C1598.19 -178.413 1645.51 -149.382 1668.68 -105.374C1693.34 -58.5277 1690.78 -4.75236 1674.27 42.5891C1657.76 90.1226 1625.94 132.091 1596.47 176.697C1536.73 267.157 1429.72 332.091 1374.06 422.892C1365.06 437.577 1357.68 452.743 1351.71 468.297C1296.76 611.707 1345.83 776.031 1288.25 917.637C1255.42 998.376 1181.36 1071.6 1082.33 1107.08C983.741 1142.37 873.323 1141.95 768.439 1132.86C633.01 1121.13 499.446 1088.11 373.653 1040.31C314.416 1017.81 256.288 993.311 198.031 969.066C132.612 941.843 65.7335 914.75 -2.96248 898.444C-9.11565 896.989 -15.3072 895.619 -21.5352 894.372C-55.8524 887.423 -90.9947 885.037 -124.188 892.081C-163.81 900.489 -200.712 924.837 -206.917 958.949" stroke="#010214" stroke-miterlimit="10"/>
<path d="M788.981 -482.364C828.488 -408.751 922.602 -367.606 1016.5 -349.13C1065.59 -339.557 1116.17 -334.926 1166.92 -330.709C1213.03 -326.837 1259.36 -323.105 1305.35 -315.702C1407.08 -299.335 1500.46 -257.308 1578.33 -204.145C1619.91 -175.765 1664.71 -146.714 1686.98 -103.957C1710.69 -58.4359 1709.22 -6.47709 1694.41 39.6724C1679.61 86.0277 1650.12 127.338 1622.02 170.827C1561.87 263.898 1450.49 329.032 1392.09 421.535C1382.64 436.498 1374.87 451.963 1368.54 467.834C1310.26 614.134 1359.09 783.36 1296.15 927.591C1262.09 1005.65 1189.44 1076.15 1093.15 1111.13C997.334 1145.92 889.895 1147.09 787.594 1139.52C649.649 1129.33 513.623 1096.25 385.688 1047.99C325.44 1025.26 266.367 1000.42 207.185 975.798C140.732 948.146 72.9765 920.588 3.36533 903.136C-2.8665 901.579 -9.14054 900.1 -15.451 898.742C-50.2576 891.172 -85.9716 887.957 -120.047 894.458C-160.663 902.207 -199.037 926.436 -206.14 961.034" stroke="#010214" stroke-miterlimit="10"/>
<path d="M790.005 -482.919C831.554 -407.73 929.283 -366.548 1026.11 -348.798C1076.76 -339.592 1128.8 -335.47 1180.98 -331.608C1228.37 -328.065 1275.94 -324.559 1323.14 -317.108C1427.53 -300.633 1523.42 -257.348 1602.09 -201.322C1641.66 -173.144 1683.9 -144.049 1705.28 -102.541C1728.04 -58.3428 1727.67 -8.20394 1714.56 36.7553C1701.45 81.9325 1674.33 122.594 1647.56 164.959C1587.08 260.666 1471.26 325.975 1410.12 420.18C1400.22 435.42 1392.06 451.184 1385.37 467.371C1323.77 616.563 1372.59 790.788 1304.05 937.547C1268.83 1012.96 1197.52 1080.69 1103.98 1115.19C1010.93 1149.47 906.472 1152.27 806.751 1146.19C666.291 1137.62 527.806 1104.4 397.728 1055.66C336.469 1032.71 276.449 1007.54 216.345 982.534C148.856 954.455 80.225 926.432 9.69866 907.833C3.38624 906.174 -2.96838 904.586 -9.36329 903.115C-44.6591 894.922 -80.9449 890.882 -115.903 896.839C-157.511 903.928 -197.358 928.036 -205.361 963.122" stroke="#010214" stroke-miterlimit="10"/>
<path d="M791.032 -483.475C834.622 -406.709 935.966 -365.489 1035.72 -348.464C1087.92 -339.625 1141.43 -336.013 1195.05 -332.504C1243.72 -329.288 1292.53 -326.007 1340.92 -318.507C1447.98 -301.925 1546.5 -257.474 1625.85 -198.495C1663.46 -170.54 1703.09 -141.378 1723.58 -101.122C1745.39 -58.2476 1746.11 -9.92865 1734.71 33.8403C1723.3 77.8394 1698.56 117.858 1673.11 159.091C1612.38 257.464 1492.03 322.918 1428.15 418.826C1417.81 434.342 1409.25 450.405 1402.2 466.908C1337.29 618.99 1386.34 798.333 1311.95 947.502C1275.64 1020.32 1205.6 1085.24 1114.8 1119.24C1024.53 1153.01 923.057 1157.51 825.909 1152.85C682.936 1146 541.987 1112.55 409.77 1063.34C347.499 1040.17 286.532 1014.66 225.507 989.267C156.983 960.759 87.4777 932.271 16.0342 912.526C9.64317 910.765 3.20603 909.068 -3.27138 907.485C-39.0564 898.671 -75.9159 893.804 -111.755 899.216C-154.355 905.648 -195.675 929.634 -204.578 965.205" stroke="#010214" stroke-miterlimit="10"/>
<path d="M792.056 -484.03C837.688 -405.689 942.645 -364.43 1045.33 -348.132C1099.09 -339.662 1154.06 -336.556 1209.11 -333.404C1259.06 -330.517 1309.12 -327.458 1358.71 -319.912C1468.43 -303.223 1569.73 -257.703 1649.62 -195.674C1685.31 -167.958 1722.29 -138.714 1741.88 -99.709C1762.74 -58.1596 1764.56 -11.6572 1754.85 30.9198C1745.15 73.7408 1722.82 113.123 1698.66 153.217C1637.76 254.284 1512.81 319.854 1446.18 417.466C1435.39 433.261 1426.44 449.621 1419.03 466.441C1350.8 621.414 1400.34 806.005 1319.86 957.453C1282.51 1027.73 1213.68 1089.78 1125.63 1123.29C1038.12 1156.55 939.652 1162.78 845.071 1159.51C699.592 1154.48 556.172 1120.69 421.813 1071.01C358.532 1047.62 296.618 1021.77 234.668 995.999C165.111 967.061 94.7286 938.109 22.3718 917.218C15.9001 915.353 9.38242 913.55 2.82058 911.853C-33.4537 902.418 -70.885 896.726 -107.606 901.591C-151.2 907.367 -193.992 931.231 -203.793 967.288" stroke="#010214" stroke-miterlimit="10"/>
<path d="M793.081 -484.585C840.754 -404.668 949.324 -363.371 1054.94 -347.798C1110.25 -339.694 1166.69 -337.098 1223.17 -334.3C1274.4 -331.74 1325.7 -328.906 1376.49 -321.312C1488.87 -304.513 1593.12 -258.026 1673.37 -192.845C1707.2 -165.376 1741.48 -136.042 1760.17 -98.2868C1780.08 -58.0609 1783.01 -13.3784 1775 28.0084C1767 69.6495 1747.09 108.398 1724.2 147.354C1663.23 251.147 1533.57 316.802 1464.2 416.117C1452.97 432.188 1443.63 448.847 1435.86 465.984C1364.3 623.848 1414.6 813.84 1327.76 967.414C1289.42 1035.2 1221.76 1094.34 1136.45 1127.34C1051.72 1160.1 956.256 1168.11 864.225 1166.18C716.254 1163.09 570.349 1128.84 433.849 1078.7C369.556 1055.08 306.697 1028.89 243.824 1002.74C173.233 973.372 101.975 943.955 28.7032 921.917C22.1529 919.95 15.5527 918.038 8.90833 916.228C-27.8552 906.17 -65.8506 899.71 -103.462 903.973C-148.039 909.16 -192.314 932.833 -203.014 969.377" stroke="#010214" stroke-miterlimit="10"/>
<path d="M794.107 -485.14C843.822 -403.647 956.006 -362.312 1064.55 -347.465C1121.41 -339.73 1179.32 -337.64 1237.23 -335.199C1289.75 -332.966 1342.29 -330.357 1394.28 -322.716C1509.32 -305.81 1616.68 -258.458 1697.13 -190.023C1729.13 -162.808 1760.68 -133.377 1778.47 -96.8728C1797.43 -57.972 1801.45 -15.1077 1795.15 25.0888C1788.85 65.5518 1771.37 103.671 1749.75 141.481C1688.8 248.034 1554.35 313.741 1482.23 414.757C1470.56 431.106 1460.82 448.063 1452.69 465.516C1377.81 626.272 1429.14 821.835 1335.66 977.364C1296.38 1042.72 1229.84 1098.88 1147.27 1131.39C1065.31 1163.64 972.879 1173.46 883.383 1172.84C732.937 1171.79 584.531 1136.98 445.889 1086.37C380.585 1062.53 316.778 1036 252.984 1009.47C181.356 979.673 109.222 949.793 35.0349 926.607C28.404 924.538 21.7232 922.518 14.9963 920.597C-22.2565 909.918 -60.8294 902.626 -99.3178 906.349C-144.89 910.87 -190.635 934.43 -202.235 971.459" stroke="#010214" stroke-miterlimit="10"/>
<path d="M795.132 -485.696C846.888 -402.625 962.685 -361.253 1074.15 -347.131C1132.58 -339.763 1191.95 -338.182 1251.29 -336.096C1305.08 -334.191 1358.87 -331.805 1412.06 -324.116C1529.77 -307.103 1640.45 -258.993 1720.89 -187.196C1751.1 -160.234 1779.87 -130.708 1796.77 -95.4545C1814.78 -57.8772 1819.9 -16.8313 1815.29 22.1733C1810.7 61.4582 1795.68 98.9455 1775.29 135.615C1714.49 244.961 1575.12 310.685 1500.26 413.404C1488.14 430.029 1478.02 447.286 1469.52 465.055C1391.33 628.703 1443.96 830.03 1343.56 987.321C1303.36 1050.31 1237.92 1103.43 1158.1 1135.44C1078.91 1167.19 989.525 1178.86 902.541 1179.51C749.644 1180.64 598.712 1145.13 457.93 1094.05C391.615 1069.99 326.862 1043.12 262.143 1016.21C189.482 985.984 116.473 955.638 41.3683 931.304C34.6587 929.133 27.8954 927.003 21.0841 924.97C-16.658 913.67 -55.8065 905.544 -95.1737 908.729C-141.744 912.584 -188.956 936.032 -201.456 973.547" stroke="#010214" stroke-miterlimit="10"/>
<path d="M796.157 -486.251C849.954 -401.604 969.366 -360.195 1083.76 -346.799C1143.74 -339.798 1204.58 -338.725 1265.35 -336.995C1320.43 -335.417 1375.46 -333.257 1429.85 -325.52C1550.21 -308.4 1664.45 -259.638 1744.66 -184.375C1773.12 -157.662 1799.06 -128.044 1815.07 -94.0392C1832.13 -57.7853 1838.34 -18.5592 1835.44 19.2568C1832.55 57.3635 1820.01 94.2212 1800.84 129.745C1740.31 241.923 1595.89 307.627 1518.29 412.048C1505.73 428.95 1495.21 446.506 1486.36 464.592C1404.84 631.13 1459.06 838.434 1351.47 997.276C1310.36 1057.96 1246 1107.98 1168.93 1139.5C1092.51 1170.74 1006.2 1184.29 921.703 1186.17C766.387 1189.62 612.897 1153.28 469.974 1101.73C402.648 1077.44 336.949 1050.24 271.307 1022.94C197.609 992.288 123.725 961.477 47.7058 935.998C40.9156 933.723 34.0717 931.486 27.176 929.341C-11.0553 917.417 -50.7813 908.46 -91.0253 911.106C-138.593 914.295 -187.273 937.631 -200.671 975.632" stroke="#010214" stroke-miterlimit="10"/>
<path d="M797.183 -486.807C853.022 -400.584 976.047 -359.137 1093.37 -346.466C1154.91 -339.832 1217.22 -339.268 1279.41 -337.894C1335.77 -336.643 1392.05 -334.707 1447.64 -326.922C1570.66 -309.693 1688.69 -260.39 1768.42 -181.549C1795.19 -155.073 1818.26 -125.376 1833.37 -92.6214C1849.48 -57.6927 1856.79 -20.2849 1855.59 16.3409C1854.4 53.2695 1844.35 89.4957 1826.39 123.876C1766.28 238.924 1616.66 304.568 1536.32 410.693C1523.31 427.872 1512.4 445.727 1503.19 464.127C1418.35 633.556 1474.46 847.071 1359.37 1007.23C1317.37 1065.68 1254.08 1112.52 1179.75 1143.55C1106.1 1174.28 1022.9 1189.75 940.86 1192.83C783.165 1198.75 627.078 1161.42 482.013 1109.4C413.674 1084.9 347.031 1057.35 280.467 1029.67C205.735 998.593 130.974 967.318 54.0392 940.692C47.1685 938.315 40.244 935.971 33.2658 933.711C-5.45483 921.167 -45.7564 911.375 -86.8773 913.486C-135.443 916.007 -185.591 939.23 -199.889 977.718" stroke="#010214" stroke-miterlimit="10"/>
<path d="M798.208 -487.36C856.088 -399.561 982.728 -358.075 1102.98 -346.131C1223.24 -334.187 1345.96 -344.801 1465.42 -328.323C1591.11 -310.986 1713.2 -261.245 1792.18 -178.723C1871.16 -96.1999 1900.92 20.9332 1851.93 118.009C1792.41 235.969 1637.43 301.512 1554.35 409.337C1417.06 587.503 1503.48 838.455 1367.27 1017.18C1281.9 1129.2 1120.04 1190.95 960.016 1199.49C799.99 1208.04 641.259 1169.57 494.051 1117.08C346.845 1064.59 207.565 997.899 60.3689 945.386C14.8293 929.14 -33.1738 914.008 -82.7368 915.864C-132.3 917.72 -183.916 940.83 -199.114 979.803" stroke="#010214" stroke-miterlimit="10"/>
</g>
</svg>
