<svg width="23" height="22" viewBox="0 0 23 22" fill="none" xmlns="http://www.w3.org/2000/svg">
<path d="M8.84264 21.6671V14.3521H6.57481V10.9907H8.84264V9.54239C8.84264 5.79781 10.5366 4.06256 14.2125 4.06256C14.5801 4.06256 15.0879 4.10106 15.5581 4.15697C15.9104 4.19322 16.2598 4.25293 16.6041 4.33572V7.38364C16.405 7.36507 16.2054 7.35407 16.0055 7.35064C15.7816 7.34483 15.5576 7.34208 15.3336 7.34239C14.6855 7.34239 14.1795 7.43039 13.7981 7.62564C13.5418 7.75426 13.3263 7.95168 13.1757 8.19581C12.9392 8.58081 12.8329 9.10789 12.8329 9.80181V10.9907H16.4253L16.0715 12.9185L15.8084 14.3521H12.8329V21.9101C18.2797 21.2519 22.5001 16.6145 22.5001 10.9907C22.5001 4.91597 17.5748 -0.00927734 11.5001 -0.00927734C5.42531 -0.00927734 0.500061 4.91597 0.500061 10.9907C0.500061 16.1497 4.05123 20.4782 8.84264 21.6671Z" fill="white"/>
</svg>
