<svg width="57" height="56" viewBox="0 0 57 56" fill="none" xmlns="http://www.w3.org/2000/svg">
<rect x="0.5" width="56" height="56" rx="11" fill="#134EDF"/>
<path d="M39.3707 32.8096C39.6726 33.4761 39.4279 34.2866 38.8241 34.6198L29.5932 39.7151C28.905 40.095 28.095 40.095 27.4068 39.7151L18.1759 34.6198C17.5721 34.2866 17.3274 33.4761 17.6293 32.8096C17.9312 32.1431 18.6653 31.8729 19.269 32.2062L28.5 37.3015L37.731 32.2062C38.3347 31.8729 39.0688 32.1431 39.3707 32.8096ZM39.3707 27.4126C39.6726 28.0791 39.4279 28.8896 38.8241 29.2228L29.5932 34.3181C28.905 34.698 28.095 34.698 27.4068 34.3181L18.1759 29.2228C17.5721 28.8896 17.3274 28.0791 17.6293 27.4126C17.9312 26.7461 18.6653 26.4759 19.269 26.8092L28.5 31.9045L37.731 26.8092C38.3347 26.4759 39.0688 26.7461 39.3707 27.4126ZM29.4928 16.2326L37.4832 20.1531C38.0362 20.4244 38.4784 20.9125 38.7241 21.523C39.2724 22.8849 38.7168 24.4796 37.4832 25.0849L29.4928 29.0054C28.8607 29.3155 28.1393 29.3155 27.5072 29.0054L19.5168 25.0849C18.9638 24.8136 18.5216 24.3254 18.2759 23.715C17.7276 22.3531 18.2832 20.7583 19.5168 20.1531L27.5072 16.2326C28.1393 15.9225 28.8607 15.9225 29.4928 16.2326Z" fill="white"/>
</svg>
