<svg width="47" height="47" viewBox="0 0 47 47" fill="none" xmlns="http://www.w3.org/2000/svg">
<rect x="0.5" y="0.445068" width="46" height="46" rx="11" fill="white"/>
<path fill-rule="evenodd" clip-rule="evenodd" d="M15.9898 16.4973L13.7142 16.044C13.4954 16.0003 13.281 16.1435 13.2376 16.3624L11.5079 25.0448C11.4641 25.2637 11.6074 25.4781 11.8262 25.5214L14.1018 25.9748C14.3207 26.0185 14.535 25.8752 14.5784 25.6564L16.3082 16.9739C16.3519 16.7551 16.2086 16.5407 15.9898 16.4973ZM22.969 19.1634C22.6439 19.1873 22.3944 19.3289 22.2407 19.5826C22.1003 19.8142 22.1038 20.0627 22.0792 20.323C21.9587 21.6922 21.847 22.96 20.354 23.5301L19.5153 19.6878C19.4473 19.3765 19.5989 19.1177 19.833 18.9222L22.9511 16.3187C23.2398 16.0778 23.577 15.9681 23.9139 15.9767C24.2731 15.9859 24.6378 16.1279 24.952 16.3869C26.1965 17.4135 27.3447 17.8729 28.4096 17.9935C28.9439 18.0538 29.4534 18.0283 29.9405 17.9457L31.4358 25.4509L30.918 25.9687C29.1784 24.2042 27.2761 22.0885 25.4759 20.4477C24.8576 19.8844 24.2789 19.5143 23.8016 19.3238C23.4871 19.1985 23.2047 19.1461 22.969 19.1634ZM22.4152 26.2121L25.5706 29.3676C25.9049 29.7019 25.9049 30.2573 25.5706 30.5916C25.2344 30.9279 24.6831 30.9279 24.3465 30.5916L20.9668 27.2119C20.7859 27.0311 20.4928 27.0311 20.3115 27.2119C20.1307 27.3928 20.1307 27.686 20.3115 27.8672L21.8824 29.4381C22.2187 29.7746 22.2187 30.3256 21.8824 30.6621C21.7146 30.8299 21.4926 30.9139 21.2705 30.9139C21.0482 30.9139 20.8264 30.8299 20.6586 30.6621L15.5447 25.5482L17.1861 17.3086H20.3227L19.239 18.2133C18.7413 18.6287 18.4686 19.2361 18.6099 19.8837L19.5558 24.2182C19.6135 24.4849 19.8885 24.6435 20.1479 24.5618C22.6918 23.9222 22.8404 22.2368 23.0015 20.4031C23.0366 20.0056 23.0015 19.9986 23.4609 20.182C23.8383 20.3326 24.3159 20.6433 24.8503 21.1301L30.5326 26.8955C30.6753 27.2212 30.6051 27.6069 30.353 27.8586C30.0162 28.1955 29.4662 28.1958 29.129 27.8586L25.1734 23.9021C24.9925 23.7212 24.6994 23.7212 24.5182 23.9021C24.3373 24.083 24.3373 24.3762 24.5182 24.5574L28.4746 28.5135C28.809 28.8479 28.809 29.4033 28.4746 29.7376C28.1384 30.0739 27.5871 30.0739 27.2509 29.7376L23.0701 25.5569C22.8892 25.376 22.5961 25.376 22.4148 25.5569C22.2343 25.7377 22.2343 26.0312 22.4152 26.2121ZM31.0099 16.4973C30.7911 16.541 30.6478 16.7551 30.6915 16.9739L32.4213 25.6564C32.465 25.8752 32.679 26.0185 32.8979 25.9748L35.1738 25.5214C35.3926 25.4777 35.5359 25.2637 35.4921 25.0448L33.7624 16.3624C33.7187 16.1435 33.5046 16.0003 33.2858 16.044L31.0099 16.4973Z" fill="black"/>
</svg>
