<svg width="57" height="56" viewBox="0 0 57 56" fill="none" xmlns="http://www.w3.org/2000/svg">
<rect x="0.5" width="56" height="56" rx="11" fill="#134EDF"/>
<path d="M39.4299 15.9937H17.5191C16.9586 15.9937 16.5 16.4523 16.5 17.0128V22.5159H40.449V17.0128C40.449 16.4523 39.9904 15.9937 39.4299 15.9937ZM22.207 20.223C21.6465 20.223 21.1879 19.7644 21.1879 19.2548C21.1879 18.6943 21.6465 18.2357 22.207 18.2357C22.7675 18.2357 23.2261 18.6943 23.2261 19.2548C23.2261 19.8153 22.7166 20.223 22.207 20.223ZM27.8121 20.223C27.2516 20.223 26.793 19.7644 26.793 19.2548C26.793 18.6943 27.2516 18.2357 27.8121 18.2357C28.3726 18.2357 28.8312 18.6943 28.8312 19.2548C28.8312 19.8153 28.3726 20.223 27.8121 20.223Z" fill="white"/>
<path d="M28.4745 30.2229C27.3535 30.2229 26.4363 31.1401 26.4363 32.2611C26.4363 33.3821 27.3535 34.2993 28.4745 34.2993C29.5955 34.2993 30.5127 33.3821 30.5127 32.2611C30.5127 31.1401 29.5955 30.2229 28.4745 30.2229Z" fill="white"/>
<path d="M16.5 24.5159V38.9872C16.5 39.5477 16.9586 40.0063 17.5191 40.0063H39.4809C40.0414 40.0063 40.5 39.5477 40.5 38.9872V24.5159H16.5ZM32.449 33.2292H32.3471C32.2452 33.5859 32.0924 33.9426 31.9395 34.2484L32.0414 34.3503C32.449 34.7579 32.449 35.3694 32.0414 35.777C31.8376 35.9808 31.5828 36.0827 31.328 36.0827C31.0732 36.0827 30.8185 35.9808 30.6147 35.777L30.5127 35.6751C30.207 35.8789 29.8503 36.0318 29.4936 36.0827V36.1847C29.4936 36.7452 29.035 37.2038 28.4745 37.2038C27.914 37.2038 27.4554 36.7452 27.4554 36.1847V36.0827C27.0987 35.9808 26.742 35.828 26.4363 35.6751L26.3344 35.777C26.1306 35.9808 25.8758 36.0827 25.621 36.0827C25.3662 36.0827 25.1115 35.9808 24.9076 35.777C24.5 35.3694 24.5 34.7579 24.9076 34.3503L25.0096 34.2484C24.8057 33.9426 24.6529 33.5859 24.6019 33.2292H24.5C23.9395 33.2292 23.4809 32.7706 23.4809 32.2101C23.4809 31.6496 23.9395 31.191 24.5 31.191H24.6019C24.7038 30.8343 24.8567 30.4777 25.0096 30.1719L24.9076 30.07C24.5 29.6624 24.5 29.0509 24.9076 28.6433C25.3153 28.2356 25.9268 28.2356 26.3344 28.6433L26.4363 28.7452C26.742 28.5413 27.0987 28.3885 27.4554 28.3375V28.2356C27.4554 27.6751 27.914 27.2165 28.4745 27.2165C29.035 27.2165 29.4936 27.6751 29.4936 28.2356V28.3375C29.8503 28.4394 30.207 28.5923 30.5127 28.7452L30.6147 28.6433C31.0223 28.2356 31.6338 28.2356 32.0414 28.6433C32.449 29.0509 32.449 29.6624 32.0414 30.07L31.9395 30.1719C32.1433 30.4777 32.2962 30.8343 32.3471 31.191H32.449C33.0096 31.191 33.4682 31.6496 33.4682 32.2101C33.4682 32.7706 33.0096 33.2292 32.449 33.2292Z" fill="white"/>
</svg>
