<svg width="47" height="47" viewBox="0 0 47 47" fill="none" xmlns="http://www.w3.org/2000/svg">
<rect x="0.5" y="0.445068" width="46" height="46" rx="11" fill="white"/>
<path d="M23.5 11.9451C17.1461 11.9451 11.9738 17.0912 11.9738 23.4451C11.9738 29.799 17.1461 34.9451 23.5 34.9451C29.8539 34.9451 35.0263 29.799 35.0263 23.4451C35.0263 17.0912 29.8539 11.9451 23.5 11.9451ZM24.524 23.7864C24.524 23.9964 24.4452 24.2065 24.2877 24.3378L21.347 27.2784C21.1895 27.4359 20.9795 27.5147 20.7957 27.5147C20.6119 27.5147 20.4018 27.4359 20.2443 27.2784C19.9292 26.9633 19.9292 26.4645 20.2443 26.1757L22.9486 23.4713V17.8789C22.9486 17.4325 23.29 17.0912 23.7363 17.0912C24.1827 17.0912 24.524 17.4325 24.524 17.8789V23.7864Z" fill="black"/>
</svg>
