<svg width="47" height="47" viewBox="0 0 47 47" fill="none" xmlns="http://www.w3.org/2000/svg">
<rect x="0.5" y="0.445068" width="46" height="46" rx="11" fill="white"/>
<path d="M34.675 15.6451C34.6 15.3451 34.3 15.1951 34 15.1951H31.75V12.9451C31.75 12.6451 31.6 12.3451 31.3 12.2701C31 12.1201 30.7 12.1951 30.475 12.4201L27.475 15.4201C27.325 15.5701 27.25 15.7201 27.25 15.9451V18.6451L22.975 22.9201C22.675 23.2201 22.675 23.6701 22.975 23.9701C23.125 24.1201 23.35 24.1951 23.5 24.1951C23.65 24.1951 23.875 24.1201 24.025 23.9701L28.3 19.6951H31C31.225 19.6951 31.375 19.6201 31.525 19.4701L34.525 16.4701C34.75 16.2451 34.825 15.9451 34.675 15.6451Z" fill="black"/>
<path d="M25.075 25.0201C24.7 25.4701 24.1 25.6951 23.5 25.6951C22.9 25.6951 22.3 25.4701 21.925 25.0201C21.025 24.1201 21.025 22.6951 21.925 21.8701L24.025 19.7701C23.875 19.6951 23.65 19.6951 23.5 19.6951C21.4 19.6951 19.75 21.3451 19.75 23.4451C19.75 25.5451 21.4 27.1951 23.5 27.1951C25.6 27.1951 27.25 25.5451 27.25 23.4451C27.25 23.2951 27.25 23.0701 27.175 22.9201L25.075 25.0201Z" fill="black"/>
<path d="M32.575 20.5201C32.2 20.9701 31.6 21.1951 31 21.1951H28.9L28.375 21.7201C28.6 22.2451 28.675 22.8451 28.675 23.4451C28.675 26.3701 26.35 28.6951 23.425 28.6951C20.5 28.6951 18.175 26.3701 18.175 23.4451C18.175 20.5201 20.5 18.1951 23.425 18.1951C24.025 18.1951 24.625 18.3451 25.15 18.4951L25.75 18.0451V15.9451C25.75 15.3451 25.975 14.7451 26.425 14.3701L27.175 13.6201C25.975 13.1701 24.775 12.9451 23.5 12.9451C17.725 12.9451 13 17.6701 13 23.4451C13 29.2201 17.725 33.9451 23.5 33.9451C29.275 33.9451 34 29.2201 34 23.4451C34 22.1701 33.775 20.9701 33.325 19.7701L32.575 20.5201Z" fill="black"/>
</svg>
