<svg width="57" height="56" viewBox="0 0 57 56" fill="none" xmlns="http://www.w3.org/2000/svg">
<rect x="0.5" width="56" height="56" rx="11" fill="#134EDF"/>
<path d="M40.0827 21.0828C40.5878 20.5777 40.5878 19.7442 40.0827 19.2138L37.3297 16.4609C36.8246 15.9557 35.9911 15.9557 35.4608 16.4609L34.3242 17.5974L38.9462 22.2194L40.0827 21.0828Z" fill="white"/>
<path d="M40.3859 34.7466L33.3898 27.7506L38.2896 22.8508L33.6677 18.2289L28.7679 23.1287L21.7718 16.1326C21.595 15.9558 21.292 15.9558 21.0899 16.1326L16.6448 20.5777C16.5437 20.6788 16.4932 20.7798 16.4932 20.9061C16.4932 21.0324 16.5437 21.1586 16.6448 21.2344L23.6408 28.2305L18.0844 33.7869C17.9328 33.9384 17.8318 34.1152 17.8066 34.3173L16.8973 38.7372C16.8468 38.9392 16.8973 39.1413 16.9984 39.2928C17.1499 39.5201 17.453 39.6464 17.7055 39.5959L22.1507 38.6867C22.3527 38.6362 22.5548 38.5351 22.6811 38.4088L28.2375 32.8524L35.2336 39.8485C35.3346 39.9495 35.4609 40 35.5619 40C35.6629 40 35.8145 39.9495 35.8902 39.8485L40.3354 35.4033C40.4364 35.3023 40.4869 35.2013 40.4869 35.075C40.5374 34.9487 40.4869 34.8224 40.3859 34.7466ZM22.0497 37.8279L19.2462 38.4088L18.1602 37.3228L18.7411 34.5194L18.7663 34.4941L19.7261 34.6709L19.7008 35.5043C19.7008 35.5801 19.7513 35.6306 19.8271 35.6306L21.0141 35.5801L20.9636 36.7672C20.9636 36.8429 21.0141 36.8934 21.0899 36.8934L21.9234 36.8682L22.0497 37.8279ZM17.7055 20.9313L21.4688 17.1681L22.6558 18.3552L20.7868 20.2242C20.61 20.4009 20.61 20.704 20.7868 20.9061C20.8879 21.0071 21.0141 21.0576 21.1152 21.0576C21.2162 21.0576 21.3677 21.0071 21.4435 20.9061L23.3125 19.0371L24.4995 20.2242L22.6306 22.0931C22.4538 22.2699 22.4538 22.573 22.6306 22.7751C22.7316 22.8761 22.8579 22.9266 22.9589 22.9266C23.0599 22.9266 23.2115 22.8761 23.2872 22.7751L25.1562 20.9061L26.3433 22.0931L24.4743 23.9621C24.2975 24.1389 24.2975 24.442 24.4743 24.644C24.5753 24.7451 24.7016 24.7956 24.8026 24.7956C24.9289 24.7956 25.0552 24.7451 25.131 24.644L26.9999 22.7751L28.0607 23.8358L24.2975 27.5991L17.7055 20.9313ZM35.6124 38.8382L28.9699 32.1957L32.7332 28.4325L33.7939 29.4933L31.925 31.3623C31.7482 31.5391 31.7482 31.8421 31.925 32.0442C32.026 32.1452 32.1523 32.1957 32.2533 32.1957C32.3543 32.1957 32.5059 32.1452 32.5816 32.0442L34.4506 30.1752L35.6377 31.3623L33.7687 33.2313C33.5919 33.4081 33.5919 33.7111 33.7687 33.9132C33.8697 34.0142 33.996 34.0647 34.097 34.0647C34.198 34.0647 34.3496 34.0142 34.4253 33.9132L36.2943 32.0442L37.4814 33.2313L35.6124 35.1002C35.4356 35.277 35.4356 35.5801 35.6124 35.7822C35.7134 35.8832 35.8397 35.9337 35.9407 35.9337C36.0418 35.9337 36.1933 35.8832 36.2691 35.7822L38.1381 33.9132L39.3251 35.1002L35.6124 38.8382Z" fill="white"/>
</svg>
