<svg width="23" height="23" viewBox="0 0 23 23" fill="none" xmlns="http://www.w3.org/2000/svg">
<path d="M12.6303 0.950195C13.8683 0.952241 14.4956 0.958798 15.0377 0.974935L15.2513 0.981909C15.4979 0.990677 15.7412 1.00168 16.0346 1.01543C17.2051 1.06952 18.0037 1.25469 18.7049 1.52694C19.43 1.80654 20.0424 2.18422 20.6538 2.79566C21.2643 3.4071 21.642 4.02128 21.9225 4.74455C22.1938 5.44491 22.3791 6.24428 22.4341 7.41489C22.4471 7.70824 22.4577 7.95157 22.4664 8.19824L22.4733 8.41175C22.4894 8.95378 22.4968 9.58123 22.4991 10.8193L22.5 11.6394C22.5001 11.7397 22.5001 11.8431 22.5001 11.9498L22.5 12.2601L22.4993 13.0804C22.4972 14.3184 22.4907 14.9458 22.4745 15.4878L22.4675 15.7013C22.4588 15.9481 22.4478 16.1914 22.4341 16.4847C22.3799 17.6553 22.1938 18.4537 21.9225 19.155C21.6429 19.8802 21.2643 20.4925 20.6538 21.1039C20.0424 21.7145 19.4272 22.0921 18.7049 22.3726C18.0037 22.644 17.2051 22.8291 16.0346 22.8841C15.7412 22.8972 15.4979 22.9079 15.2513 22.9165L15.0377 22.9234C14.4956 22.9396 13.8683 22.9468 12.6303 22.9493L11.81 22.9501C11.7098 22.9501 11.6064 22.9501 11.4997 22.9501H11.1894L10.3691 22.9494C9.13109 22.9474 8.50365 22.9408 7.9616 22.9246L7.74811 22.9177C7.50142 22.9089 7.2581 22.8979 6.96476 22.8841C5.79413 22.8301 4.99661 22.644 4.29442 22.3726C3.57022 22.0931 2.95695 21.7145 2.34552 21.1039C1.73408 20.4925 1.35732 19.8774 1.07681 19.155C0.804552 18.4537 0.620295 17.6553 0.565293 16.4847C0.552225 16.1914 0.541566 15.9481 0.53293 15.7013L0.526011 15.4878C0.509917 14.9458 0.50258 14.3184 0.500204 13.0804L0.500061 10.8193C0.502107 9.58123 0.508652 8.95378 0.52479 8.41175L0.531775 8.19824C0.540542 7.95157 0.551543 7.70824 0.565293 7.41489C0.619371 6.24335 0.804552 5.44583 1.07681 4.74455C1.3564 4.02037 1.73408 3.4071 2.34552 2.79566C2.95695 2.18422 3.57115 1.80745 4.29442 1.52694C4.99569 1.25469 5.79322 1.07043 6.96476 1.01543C7.2581 1.00237 7.50142 0.991711 7.74811 0.983075L7.9616 0.976156C8.50365 0.960051 9.13109 0.952714 10.3691 0.950338L12.6303 0.950195ZM11.4997 6.44961C8.46037 6.44961 5.99948 8.91318 5.99948 11.9498C5.99948 14.9891 8.46305 17.45 11.4997 17.45C14.539 17.45 16.9999 14.9864 16.9999 11.9498C16.9999 8.9105 14.5362 6.44961 11.4997 6.44961ZM11.4997 8.64969C13.3223 8.64969 14.7998 10.1267 14.7998 11.9498C14.7998 13.7724 13.3228 15.2499 11.4997 15.2499C9.67704 15.2499 8.19955 13.773 8.19955 11.9498C8.19955 10.1271 9.67649 8.64969 11.4997 8.64969ZM17.2749 4.79956C16.5166 4.79956 15.8998 5.41548 15.8998 6.17367C15.8998 6.93187 16.5157 7.54874 17.2749 7.54874C18.033 7.54874 18.6499 6.93283 18.6499 6.17367C18.6499 5.41548 18.032 4.79861 17.2749 4.79956Z" fill="white"/>
</svg>
