<svg width="23" height="23" viewBox="0 0 23 23" fill="none" xmlns="http://www.w3.org/2000/svg">
<path d="M19.2431 19.6979H15.9853V14.5929C15.9853 13.3756 15.9606 11.809 14.2876 11.809C12.5891 11.809 12.3296 13.1336 12.3296 14.5031V19.6979H9.07181V9.2002H12.2013V10.6311H12.2435C12.6807 9.80611 13.7441 8.93528 15.3326 8.93528C18.6336 8.93528 19.2441 11.1078 19.2441 13.9357L19.2431 19.6979ZM5.39231 7.76378C4.34364 7.76378 3.50123 6.91495 3.50123 5.87086C3.50123 4.8277 4.34456 3.97978 5.39231 3.97978C6.43731 3.97978 7.28431 4.8277 7.28431 5.87086C7.28431 6.91495 6.43639 7.76378 5.39231 7.76378ZM7.02581 19.6979H3.75881V9.2002H7.02581V19.6979ZM20.873 0.950195H2.12348C1.22606 0.950195 0.500061 1.6597 0.500061 2.53511V21.3653C0.500061 22.2416 1.22606 22.9502 2.12348 22.9502H20.8702C21.7667 22.9502 22.5001 22.2416 22.5001 21.3653V2.53511C22.5001 1.6597 21.7667 0.950195 20.8702 0.950195H20.873Z" fill="white"/>
</svg>
