<svg width="212" height="58" viewBox="0 0 212 58" fill="none" xmlns="http://www.w3.org/2000/svg">
<circle cx="28.9751" cy="28.9751" r="28.9751" fill="#2575FC"/>
<path d="M28.5782 30.563H15.4799V34.9291H21.2352L15.4799 40.6844V44.0582H18.4568L23.6167 38.5014V44.0582H28.5782V30.563Z" fill="#002D5A"/>
<path d="M20.4413 25.392H15.4799V13.4951H30.9597C42.0734 14.3156 45.1165 23.9562 45.2488 28.6739C45.2488 38.3556 37.8396 42.9639 34.1351 44.0579V38.5197C39.3744 36.0582 40.2873 30.2465 40.0888 27.6483C38.8187 20.0999 31.7535 18.6231 28.3797 18.8282H20.4413V25.392Z" fill="white"/>
<path d="M206.34 51.6088C205.837 51.6088 205.354 51.5426 204.891 51.4103C204.428 51.2648 204.005 51.0663 203.621 50.815C203.25 50.5636 202.926 50.2659 202.648 49.9219L203.541 49.009C203.912 49.4588 204.329 49.7962 204.792 50.0211C205.268 50.2328 205.797 50.3387 206.379 50.3387C207.001 50.3387 207.484 50.2196 207.828 49.9814C208.185 49.7433 208.364 49.4125 208.364 48.9891C208.364 48.5922 208.238 48.2813 207.987 48.0564C207.736 47.8314 207.411 47.6528 207.015 47.5205C206.631 47.3882 206.221 47.2625 205.784 47.1435C205.347 47.0111 204.931 46.8524 204.534 46.6672C204.137 46.4687 203.813 46.1975 203.561 45.8535C203.323 45.5095 203.204 45.0596 203.204 44.5039C203.204 43.9747 203.33 43.5183 203.581 43.1346C203.846 42.7377 204.216 42.4333 204.693 42.2217C205.182 41.9967 205.758 41.8843 206.419 41.8843C207.12 41.8843 207.755 42.01 208.324 42.2614C208.893 42.5127 209.35 42.8832 209.694 43.3727L208.801 44.2658C208.523 43.9086 208.172 43.6373 207.749 43.4521C207.339 43.2536 206.876 43.1544 206.36 43.1544C205.764 43.1544 205.308 43.2735 204.99 43.5116C204.686 43.7366 204.534 44.0343 204.534 44.4047C204.534 44.7619 204.659 45.0464 204.911 45.2581C205.162 45.4565 205.48 45.6219 205.863 45.7542C206.26 45.8733 206.677 45.999 207.114 46.1313C207.55 46.2504 207.967 46.4158 208.364 46.6275C208.761 46.8259 209.078 47.1038 209.317 47.461C209.568 47.805 209.694 48.2747 209.694 48.8701C209.694 49.7036 209.389 50.3717 208.781 50.8745C208.185 51.364 207.372 51.6088 206.34 51.6088Z" fill="white"/>
<path d="M194.292 51.4103L189.529 46.6274L194.213 42.0827H195.939L190.839 46.9847L190.879 46.1908L196.138 51.4103H194.292ZM188.279 51.4103V37.3594H189.668V51.4103H188.279Z" fill="white"/>
<path d="M174.258 51.4103V42.0827H175.647V51.4103H174.258ZM175.647 45.9725L175.072 45.7145C175.072 44.537 175.356 43.6043 175.925 42.9163C176.507 42.2283 177.301 41.8843 178.307 41.8843C178.77 41.8843 179.193 41.9703 179.577 42.1423C179.96 42.301 180.318 42.559 180.648 42.9163L179.735 43.8887C179.511 43.6373 179.259 43.4587 178.981 43.3529C178.717 43.247 178.412 43.1941 178.068 43.1941C177.354 43.1941 176.772 43.4323 176.322 43.9086C175.872 44.3716 175.647 45.0596 175.647 45.9725Z" fill="white"/>
<path d="M161.053 51.6088C160.154 51.6088 159.333 51.3905 158.592 50.9539C157.865 50.5173 157.282 49.9285 156.846 49.1876C156.423 48.4467 156.211 47.6198 156.211 46.7068C156.211 45.8072 156.423 44.9935 156.846 44.2658C157.282 43.5381 157.865 42.9626 158.592 42.5392C159.333 42.1026 160.154 41.8843 161.053 41.8843C161.966 41.8843 162.786 42.096 163.514 42.5193C164.242 42.9427 164.817 43.5249 165.241 44.2658C165.677 44.9935 165.896 45.8072 165.896 46.7068C165.896 47.633 165.677 48.4665 165.241 49.2074C164.817 49.9351 164.242 50.5173 163.514 50.9539C162.786 51.3905 161.966 51.6088 161.053 51.6088ZM161.053 50.2593C161.715 50.2593 162.297 50.1071 162.8 49.8028C163.316 49.4985 163.719 49.0751 164.01 48.5327C164.315 47.9902 164.467 47.3816 164.467 46.7068C164.467 46.0321 164.315 45.4367 164.01 44.9207C163.719 44.3915 163.316 43.9747 162.8 43.6704C162.297 43.3661 161.715 43.214 161.053 43.214C160.405 43.214 159.823 43.3661 159.307 43.6704C158.791 43.9747 158.387 44.3915 158.096 44.9207C157.805 45.4367 157.66 46.0321 157.66 46.7068C157.66 47.3948 157.805 48.0101 158.096 48.5525C158.387 49.0817 158.791 49.4985 159.307 49.8028C159.823 50.1071 160.405 50.2593 161.053 50.2593Z" fill="white"/>
<path d="M138.777 51.4101L135.185 42.0825H136.633L139.471 49.8224L138.955 49.8423L141.774 42.0825H142.587L145.405 49.8423L144.889 49.8224L147.707 42.0825H149.176L145.564 51.4101H144.75L141.873 43.7694H142.468L139.61 51.4101H138.777Z" fill="white"/>
<path d="M126.017 51.4103V45.9328C126.017 45.1125 125.772 44.451 125.283 43.9482C124.806 43.4322 124.171 43.1742 123.377 43.1742C122.835 43.1742 122.359 43.2933 121.949 43.5315C121.538 43.7696 121.214 44.0938 120.976 44.5039C120.738 44.9141 120.619 45.3838 120.619 45.913L119.984 45.5558C119.984 44.8545 120.149 44.2261 120.48 43.6704C120.811 43.1147 121.254 42.6781 121.81 42.3606C122.379 42.043 123.027 41.8843 123.754 41.8843C124.469 41.8843 125.104 42.0496 125.66 42.3804C126.215 42.6979 126.645 43.1412 126.95 43.7101C127.267 44.279 127.426 44.9405 127.426 45.6947V51.4103H126.017ZM119.23 51.4103V37.3594H120.619V51.4103H119.23Z" fill="white"/>
<path d="M107.576 51.6088C106.663 51.6088 105.836 51.3971 105.095 50.9737C104.367 50.5371 103.785 49.9484 103.349 49.2074C102.925 48.4665 102.714 47.6396 102.714 46.7267C102.714 45.8138 102.925 44.9935 103.349 44.2658C103.785 43.5249 104.367 42.9427 105.095 42.5193C105.836 42.096 106.663 41.8843 107.576 41.8843C108.277 41.8843 108.932 42.0166 109.541 42.2812C110.149 42.5458 110.665 42.9163 111.089 43.3926L110.176 44.3253C109.858 43.9681 109.474 43.6969 109.025 43.5116C108.575 43.3132 108.092 43.214 107.576 43.214C106.914 43.214 106.326 43.3661 105.81 43.6704C105.294 43.9747 104.89 44.3915 104.599 44.9207C104.308 45.4367 104.162 46.0387 104.162 46.7267C104.162 47.4015 104.308 48.0101 104.599 48.5525C104.89 49.0817 105.294 49.4985 105.81 49.8028C106.326 50.1071 106.914 50.2593 107.576 50.2593C108.105 50.2593 108.595 50.1667 109.044 49.9814C109.494 49.783 109.878 49.5051 110.196 49.1479L111.128 50.0807C110.692 50.5702 110.162 50.9473 109.541 51.2119C108.932 51.4765 108.277 51.6088 107.576 51.6088Z" fill="white"/>
<path d="M90.8043 51.6088C89.8649 51.6088 89.0248 51.3971 88.2839 50.9737C87.543 50.5503 86.9542 49.9682 86.5176 49.2273C86.0942 48.4864 85.8825 47.6528 85.8825 46.7267C85.8825 45.8138 86.0942 44.9935 86.5176 44.2658C86.941 43.5249 87.5165 42.9427 88.2442 42.5193C88.9719 42.096 89.7855 41.8843 90.6852 41.8843C91.532 41.8843 92.2795 42.0761 92.9278 42.4598C93.5894 42.8435 94.1053 43.3793 94.4758 44.0673C94.8595 44.7421 95.0513 45.5227 95.0513 46.4092C95.0513 46.515 95.0447 46.6407 95.0315 46.7862C95.0183 46.9185 94.9918 47.0773 94.9521 47.2625H86.8748V46.0718H94.198L93.7018 46.5084C93.715 45.8204 93.596 45.2316 93.3446 44.7421C93.1064 44.2393 92.7558 43.8556 92.2928 43.591C91.8429 43.3132 91.2938 43.1743 90.6455 43.1743C89.9708 43.1743 89.382 43.3198 88.8792 43.6109C88.3765 43.9019 87.9796 44.3121 87.6885 44.8413C87.4106 45.3573 87.2717 45.9725 87.2717 46.687C87.2717 47.4015 87.4173 48.0299 87.7083 48.5724C88.0126 49.1148 88.4294 49.5382 88.9586 49.8425C89.5011 50.1468 90.1229 50.299 90.8242 50.299C91.3931 50.299 91.9157 50.1997 92.392 50.0013C92.8683 49.7896 93.2718 49.4787 93.6026 49.0685L94.4957 49.9814C94.059 50.4974 93.5166 50.901 92.8683 51.192C92.2332 51.4699 91.5452 51.6088 90.8043 51.6088Z" fill="white"/>
<path d="M75.0304 51.4104V38.1533H76.4196V51.4104H75.0304ZM72.6687 43.3331V42.0828H78.7614V43.3331H72.6687Z" fill="white"/>
<path d="M195.537 31.564V6.72998H200.341V31.564H195.537ZM199.07 31.564V27.2896H211.716V31.564H199.07Z" fill="white"/>
<path d="M167.664 31.564L177.661 6.72998H181.582L191.544 31.564H186.422L178.721 11.181H180.487L172.68 31.564H167.664ZM172.963 26.9363V22.9092H186.316V26.9363H172.963Z" fill="white"/>
<path d="M155.614 31.564V7.25987H160.454V31.564H155.614ZM147.701 11.0044V6.72998H168.366V11.0044H147.701Z" fill="white"/>
<path d="M138.507 31.564V6.72998H143.311V31.564H138.507Z" fill="white"/>
<path d="M121.433 31.9172C119.667 31.9172 118.006 31.5993 116.452 30.9634C114.921 30.304 113.567 29.3855 112.389 28.208C111.236 27.0305 110.329 25.6763 109.669 24.1455C109.034 22.5912 108.716 20.9191 108.716 19.1293C108.716 17.3159 109.045 15.6438 109.705 14.113C110.364 12.5587 111.283 11.2045 112.46 10.0505C113.638 8.87299 115.015 7.9663 116.593 7.33043C118.171 6.67102 119.879 6.34131 121.716 6.34131C123.764 6.34131 125.648 6.72989 127.368 7.50706C129.087 8.26068 130.512 9.33223 131.642 10.7217L128.392 13.9717C127.615 12.959 126.649 12.1818 125.495 11.6402C124.341 11.0985 123.07 10.8277 121.68 10.8277C120.102 10.8277 118.701 11.1809 117.476 11.8875C116.275 12.5704 115.333 13.536 114.65 14.7842C113.967 16.0088 113.626 17.4454 113.626 19.0939C113.626 20.7425 113.956 22.2026 114.615 23.4743C115.298 24.7225 116.216 25.6999 117.37 26.4064C118.548 27.1129 119.89 27.4661 121.398 27.4661C122.952 27.4661 124.283 27.1835 125.389 26.6183C126.496 26.0296 127.344 25.1817 127.933 24.0749C128.522 22.9444 128.816 21.5667 128.816 19.9417L131.96 22.0966L121.115 21.9906V17.8222H133.762V18.4934C133.762 21.4608 133.232 23.9453 132.172 25.9471C131.112 27.9254 129.652 29.4208 127.792 30.4335C125.955 31.4226 123.835 31.9172 121.433 31.9172Z" fill="white"/>
<path d="M98.9914 31.564V6.72998H103.796V31.564H98.9914Z" fill="white"/>
<path d="M74.8259 31.564V27.2896H81.1493C82.7507 27.2896 84.152 26.9599 85.353 26.3005C86.5541 25.6175 87.4844 24.6637 88.1438 23.4391C88.8267 22.2145 89.1682 20.7661 89.1682 19.094C89.1682 17.469 88.8267 16.056 88.1438 14.8549C87.4608 13.6303 86.5188 12.6883 85.3177 12.0289C84.1166 11.3459 82.7272 11.0044 81.1493 11.0044H74.72V6.72998H81.2199C83.0569 6.72998 84.7525 7.03614 86.3068 7.64845C87.8847 8.26076 89.2507 9.13213 90.4046 10.2626C91.5822 11.3694 92.4889 12.6765 93.1247 14.1837C93.7841 15.691 94.1138 17.3395 94.1138 19.1293C94.1138 20.9192 93.7841 22.5795 93.1247 24.1103C92.4889 25.6175 91.5939 26.9363 90.44 28.0668C89.286 29.1736 87.92 30.0332 86.3422 30.6455C84.7878 31.2579 83.104 31.564 81.2906 31.564H74.8259ZM71.5406 31.564V6.72998H76.345V31.564H71.5406Z" fill="white"/>
</svg>
