<svg width="23" height="19" viewBox="0 0 23 19" fill="none" xmlns="http://www.w3.org/2000/svg">
<path opacity="0.7" fill-rule="evenodd" clip-rule="evenodd" d="M4.96408 0.450196H18.5361C19.0295 0.450185 19.4553 0.450173 19.8078 0.474214C20.1788 0.499538 20.5499 0.555226 20.9167 0.707101C21.7435 1.04964 22.4007 1.70667 22.7431 2.53364C22.895 2.90031 22.9507 3.27146 22.9761 3.64252C23.0001 3.99494 23.0001 4.42073 23.0001 4.91421V13.9862C23.0001 14.4796 23.0001 14.9054 22.9761 15.2579C22.9507 15.6289 22.895 16.0001 22.7431 16.3668C22.4007 17.1937 21.7435 17.8508 20.9167 18.1932C20.5499 18.3451 20.1788 18.4008 19.8078 18.4262C19.4553 18.4502 19.0295 18.4502 18.5361 18.4502H4.96407C4.47059 18.4502 4.0448 18.4502 3.69238 18.4262C3.32133 18.4008 2.95018 18.3451 2.58351 18.1932C1.75654 17.8508 1.09951 17.1937 0.756966 16.3668C0.605091 16.0001 0.549404 15.6289 0.52408 15.2579C0.500039 14.9054 0.50005 14.4796 0.500062 13.9862V4.91422C0.50005 4.42074 0.500039 3.99494 0.52408 3.64252C0.549404 3.27146 0.605091 2.90031 0.756966 2.53364C1.09951 1.70667 1.75654 1.04964 2.58351 0.707101C2.95018 0.555226 3.32133 0.499538 3.69238 0.474214C4.0448 0.450173 4.4706 0.450185 4.96408 0.450196ZM3.10719 3.01269C3.51634 2.5451 4.22707 2.49772 4.69467 2.90686L11.0092 8.43207C11.4334 8.80321 12.0667 8.80321 12.4909 8.43207L18.8055 2.90686C19.273 2.49772 19.9838 2.5451 20.3929 3.01269C20.802 3.48028 20.7547 4.19101 20.2871 4.60015L13.9725 10.1254C12.7 11.2388 10.8001 11.2388 9.52762 10.1254L3.21303 4.60015C2.74544 4.19101 2.69805 3.48028 3.10719 3.01269Z" fill="white"/>
</svg>
