<svg width="198" height="101" viewBox="0 0 198 101" fill="none" xmlns="http://www.w3.org/2000/svg">
<path d="M157.88 96.5635H157.082V87.8867H153.542V86.2376H145.132V35.75H156.743V36.5464H145.929V85.4388H154.338V87.0855H157.879L157.88 96.5635Z" fill="white"/>
<path d="M166.283 22.1572H156.34V22.9536H166.283V22.1572Z" fill="white"/>
<path d="M142.8 87.0895V85.4404H150.151V86.238H143.595V87.8871H140.054V96.5664H139.258V87.0932L142.8 87.0895Z" fill="white"/>
<path d="M166.285 22.3867H165.487V96.5622H166.285V22.3867Z" fill="white"/>
<path d="M157.137 22.3867H156.34V84.9523H157.137V22.3867Z" fill="white"/>
<path d="M172.371 71.4065H171.573V58.368L170.946 57.7407V55.8723H169.287V54.0529L165.605 50.3712L166.169 49.8076L170.09 53.7282V55.0759H171.75V57.4124L172.377 58.0397L172.371 71.4065Z" fill="white"/>
<path d="M169.175 37.8145V40.3959H165.889V41.1923H169.972V38.6121H171.572V41.1935H173.753V96.5623H174.55V40.3959H172.369V37.8145H169.175Z" fill="white"/>
<path d="M152.093 87.5303H145.125V88.073H152.093V87.5303Z" fill="white"/>
<path d="M155.56 89.3066H141.921V89.8494H155.56V89.3066Z" fill="white"/>
<path d="M155.56 91.083H141.921V91.6258H155.56V91.083Z" fill="white"/>
<path d="M155.56 92.8594H141.921V93.4021H155.56V92.8594Z" fill="white"/>
<path d="M155.56 94.6367H141.921V95.1795H155.56V94.6367Z" fill="white"/>
<path d="M148.297 38.2139H147.854V84.6559H148.297V38.2139Z" fill="white"/>
<path d="M149.892 38.2139H149.449V84.6559H149.892V38.2139Z" fill="white"/>
<path d="M151.487 38.2139H151.045V84.6559H151.487V38.2139Z" fill="white"/>
<path d="M153.083 38.2139H152.64V84.6559H153.083V38.2139Z" fill="white"/>
<path d="M154.68 38.2139H154.236V84.6559H154.68V38.2139Z" fill="white"/>
<path d="M159.618 24.9355H158.915V26.7059H159.618V24.9355Z" fill="white"/>
<path d="M161.313 24.9355H160.609V26.7059H161.313V24.9355Z" fill="white"/>
<path d="M159.618 28.4023H158.915V30.1727H159.618V28.4023Z" fill="white"/>
<path d="M161.313 28.4023H160.609V30.1727H161.313V28.4023Z" fill="white"/>
<path d="M159.618 31.8701H158.915V33.6405H159.618V31.8701Z" fill="white"/>
<path d="M161.313 31.8701H160.609V33.6405H161.313V31.8701Z" fill="white"/>
<path d="M159.618 35.3369H158.915V37.1073H159.618V35.3369Z" fill="white"/>
<path d="M161.313 35.3369H160.609V37.1073H161.313V35.3369Z" fill="white"/>
<path d="M159.618 38.8027H158.915V40.5731H159.618V38.8027Z" fill="white"/>
<path d="M161.313 38.8027H160.609V40.5731H161.313V38.8027Z" fill="white"/>
<path d="M159.618 42.2705H158.915V44.0409H159.618V42.2705Z" fill="white"/>
<path d="M161.313 42.2705H160.609V44.0409H161.313V42.2705Z" fill="white"/>
<path d="M159.618 45.7373H158.915V47.5077H159.618V45.7373Z" fill="white"/>
<path d="M161.313 45.7373H160.609V47.5077H161.313V45.7373Z" fill="white"/>
<path d="M159.618 49.2041H158.915V50.9745H159.618V49.2041Z" fill="white"/>
<path d="M161.313 49.2041H160.609V50.9745H161.313V49.2041Z" fill="white"/>
<path d="M159.618 52.6709H158.915V54.4413H159.618V52.6709Z" fill="white"/>
<path d="M161.313 52.6709H160.609V54.4413H161.313V52.6709Z" fill="white"/>
<path d="M159.618 56.1387H158.915V57.9091H159.618V56.1387Z" fill="white"/>
<path d="M161.313 56.1387H160.609V57.9091H161.313V56.1387Z" fill="white"/>
<path d="M159.618 59.6045H158.915V61.3749H159.618V59.6045Z" fill="white"/>
<path d="M161.313 59.6045H160.609V61.3749H161.313V59.6045Z" fill="white"/>
<path d="M159.618 63.0713H158.915V64.8417H159.618V63.0713Z" fill="white"/>
<path d="M161.313 63.0713H160.609V64.8417H161.313V63.0713Z" fill="white"/>
<path d="M159.618 66.5381H158.915V68.3085H159.618V66.5381Z" fill="white"/>
<path d="M161.313 66.5381H160.609V68.3085H161.313V66.5381Z" fill="white"/>
<path d="M159.618 70.0049H158.915V71.7753H159.618V70.0049Z" fill="white"/>
<path d="M161.313 70.0049H160.609V71.7753H161.313V70.0049Z" fill="white"/>
<path d="M159.618 73.4727H158.915V75.2431H159.618V73.4727Z" fill="white"/>
<path d="M161.313 73.4727H160.609V75.2431H161.313V73.4727Z" fill="white"/>
<path d="M159.618 76.9395H158.915V78.7099H159.618V76.9395Z" fill="white"/>
<path d="M161.313 76.9395H160.609V78.7099H161.313V76.9395Z" fill="white"/>
<path d="M159.618 80.4053H158.915V82.1757H159.618V80.4053Z" fill="white"/>
<path d="M161.313 80.4053H160.609V82.1757H161.313V80.4053Z" fill="white"/>
<path d="M159.618 83.873H158.915V85.6434H159.618V83.873Z" fill="white"/>
<path d="M161.313 83.873H160.609V85.6434H161.313V83.873Z" fill="white"/>
<path d="M159.618 87.3398H158.915V89.1102H159.618V87.3398Z" fill="white"/>
<path d="M161.313 87.3398H160.609V89.1102H161.313V87.3398Z" fill="white"/>
<path d="M159.618 90.8066H158.915V92.577H159.618V90.8066Z" fill="white"/>
<path d="M161.313 90.8066H160.609V92.577H161.313V90.8066Z" fill="white"/>
<path d="M159.618 94.2734H158.915V96.0438H159.618V94.2734Z" fill="white"/>
<path d="M161.313 94.2734H160.609V96.0438H161.313V94.2734Z" fill="white"/>
<path d="M172.58 42.4922H167.201V43.1562H172.58V42.4922Z" fill="white"/>
<path d="M172.58 44.041H167.201V44.7051H172.58V44.041Z" fill="white"/>
<path d="M172.58 45.5898H167.201V46.2539H172.58V45.5898Z" fill="white"/>
<path d="M172.58 47.1377H167.201V47.8017H172.58V47.1377Z" fill="white"/>
<path d="M172.58 48.6875H167.201V49.3516H172.58V48.6875Z" fill="white"/>
<path d="M172.58 50.2363H170.533V50.9004H172.58V50.2363Z" fill="white"/>
<path d="M172.58 51.7852H170.533V52.4492H172.58V51.7852Z" fill="white"/>
<path d="M168.019 57.1895H167.46V58.3191H168.019V57.1895Z" fill="white"/>
<path d="M168.019 62.0723H167.46V63.2019H168.019V62.0723Z" fill="white"/>
<path d="M168.019 64.5127H167.46V65.6423H168.019V64.5127Z" fill="white"/>
<path d="M168.019 66.9531H167.46V68.0828H168.019V66.9531Z" fill="white"/>
<path d="M168.019 71.8359H167.46V72.9656H168.019V71.8359Z" fill="white"/>
<path d="M168.019 74.2773H167.46V75.407H168.019V74.2773Z" fill="white"/>
<path d="M168.019 76.7178H167.46V77.8474H168.019V76.7178Z" fill="white"/>
<path d="M168.019 81.6006H167.46V82.7302H168.019V81.6006Z" fill="white"/>
<path d="M168.019 84.042H167.46V85.1716H168.019V84.042Z" fill="white"/>
<path d="M168.019 86.4824H167.46V87.612H168.019V86.4824Z" fill="white"/>
<path d="M168.019 91.3652H167.46V92.4949H168.019V91.3652Z" fill="white"/>
<path d="M168.019 93.8057H167.46V94.9353H168.019V93.8057Z" fill="white"/>
<path d="M169.518 57.1895H168.959V58.3191H169.518V57.1895Z" fill="white"/>
<path d="M169.518 59.6299H168.959V60.7595H169.518V59.6299Z" fill="white"/>
<path d="M169.518 62.0723H168.959V63.2019H169.518V62.0723Z" fill="white"/>
<path d="M169.518 66.9531H168.959V68.0828H169.518V66.9531Z" fill="white"/>
<path d="M169.518 69.3945H168.959V70.5242H169.518V69.3945Z" fill="white"/>
<path d="M169.518 71.8359H168.959V72.9656H169.518V71.8359Z" fill="white"/>
<path d="M169.518 76.7178H168.959V77.8474H169.518V76.7178Z" fill="white"/>
<path d="M169.518 79.1592H168.959V80.2888H169.518V79.1592Z" fill="white"/>
<path d="M169.518 81.6006H168.959V82.7302H169.518V81.6006Z" fill="white"/>
<path d="M169.518 86.4824H168.959V87.612H169.518V86.4824Z" fill="white"/>
<path d="M169.518 88.9229H168.959V90.0525H169.518V88.9229Z" fill="white"/>
<path d="M169.518 91.3652H168.959V92.4949H169.518V91.3652Z" fill="white"/>
<mask id="mask0_1_903" style="mask-type:luminance" maskUnits="userSpaceOnUse" x="22" y="0" width="152" height="101">
<path d="M173.546 0.5H22.25V100.5H173.546V0.5Z" fill="white"/>
</mask>
<g mask="url(#mask0_1_903)">
<path d="M89.8254 39.8235L91.8935 28.5762L93.9616 39.8247L94.3022 37.7946C94.3087 37.7569 94.3211 37.7205 94.339 37.6867L92.3787 27.0484L91.8886 26.6943L91.3985 27.0496L89.4382 37.6867C89.4561 37.7209 89.4685 37.7577 89.475 37.7958L89.8254 39.8235Z" fill="white"/>
<path d="M100.663 63.3301H99.4762V63.6976C99.4762 63.798 99.4363 63.8943 99.3653 63.9653C99.2943 64.0363 99.198 64.0762 99.0976 64.0762H97.4117V64.0885H99.9062V64.7378H99.7163V65.495H100.662L100.663 63.3301Z" fill="white"/>
<path d="M84.0706 64.739H83.8807V64.0897H86.374V64.0774H84.6881C84.5877 64.0774 84.4914 64.0376 84.4204 63.9666C84.3494 63.8956 84.3096 63.7993 84.3096 63.6989V63.3301H83.1223V65.4938H84.0682L84.0706 64.739Z" fill="white"/>
<path d="M84.8302 97.0387V65.495H86.3446V64.7378H84.0743V97.0375L84.8302 97.0387Z" fill="white"/>
<path d="M98.9579 97.0389H99.7151V64.7393H97.4448V65.4964H98.9591L98.9579 97.0389Z" fill="white"/>
<path d="M97.446 81.8486H96.6889V97.0398H97.446V81.8486Z" fill="white"/>
<path d="M87.1017 81.8486H86.3446V97.0398H87.1017V81.8486Z" fill="white"/>
<path d="M93.3735 82.6748H90.4159V87.7312H93.3735V82.6748ZM92.6163 86.974H91.1718V83.432H92.6163V86.974Z" fill="white"/>
<path d="M97.4461 79.9756H96.6889V81.0905H87.1018V79.9756H86.3446V81.8477H97.4461V79.9756Z" fill="white"/>
<path d="M96.6876 72.6895V79.2197H87.1005V72.6895H86.3434V79.9769H97.4436V72.6895H96.6876Z" fill="white"/>
<path d="M86.3446 72.6893H97.4461V70.7964H96.6889V71.9321H87.1018V70.7964H86.3446V72.6893Z" fill="white"/>
<path d="M95.5703 48.3813V61.399C95.8457 61.5503 96.1002 61.7369 96.3274 61.954V48.3813H95.5703Z" fill="white"/>
<path d="M88.2179 61.399V48.3813H87.4608V61.9515C87.6881 61.7346 87.9426 61.548 88.2179 61.3965" fill="white"/>
<path d="M93.1677 46.3844C93.1677 46.4848 93.1278 46.5811 93.0568 46.6521C92.9858 46.7231 92.8895 46.763 92.7891 46.763H93.7827C93.6823 46.763 93.586 46.7231 93.515 46.6521C93.444 46.5811 93.4041 46.4848 93.4041 46.3844V46.0059H93.1677V46.3844Z" fill="white"/>
<path d="M88.2167 48.3803H97.1165V46.0059H95.9489V46.3845C95.9489 46.4849 95.909 46.5811 95.838 46.6521C95.767 46.7231 95.6707 46.763 95.5703 46.763H96.3593V47.6207H87.4301V46.763H88.2191C88.1187 46.763 88.0224 46.7231 87.9514 46.6521C87.8804 46.5811 87.8406 46.4849 87.8406 46.3845V46.0059H86.6729V48.3803H88.2167Z" fill="white"/>
<path d="M90.6217 46.3844V46.0059H90.3853V46.3844C90.3853 46.4848 90.3454 46.5811 90.2744 46.6521C90.2034 46.7231 90.1071 46.763 90.0067 46.763H91.0003C90.8999 46.763 90.8036 46.7231 90.7326 46.6521C90.6616 46.5811 90.6217 46.4848 90.6217 46.3844Z" fill="white"/>
<path d="M86.8604 63.7002C86.8604 63.8006 86.8205 63.8969 86.7495 63.9679C86.6785 64.0389 86.5822 64.0788 86.4818 64.0788H86.3801V64.091C86.359 64.249 86.3479 64.4082 86.347 64.5676V70.7977H97.4485V64.5676C97.4476 64.4082 97.4365 64.249 97.4154 64.091V64.0788H97.3137C97.2133 64.0788 97.117 64.0389 97.046 63.9679C96.975 63.8969 96.9351 63.8006 96.9351 63.7002V62.7029C96.605 62.1567 96.1368 61.7071 95.5776 61.3993C95.1739 61.172 94.7259 61.0345 94.2642 60.9962C93.6075 60.9509 93.1358 60.0785 92.8945 59.4365H92.0944C92.31 60.0981 92.952 61.6639 94.2115 61.7509C94.9014 61.8284 95.5377 62.1599 95.9965 62.6808C96.4553 63.2017 96.7039 63.8748 96.6938 64.5688V70.0418H87.1067V64.5688C87.0965 63.8748 87.3451 63.2017 87.8039 62.6808C88.2628 62.1599 88.8991 61.8284 89.5889 61.7509C90.8472 61.6639 91.4904 60.0981 91.7073 59.4365H90.906C90.6609 60.0785 90.1929 60.9509 89.5362 60.9962C89.0745 61.0347 88.6266 61.1721 88.2228 61.3993C87.664 61.7074 87.1958 62.157 86.8653 62.7029L86.8604 63.7002Z" fill="white"/>
<path d="M90.3889 64.1804V67.5472H93.4005V64.1657C93.3868 63.9803 93.3367 63.7995 93.2529 63.6336C93.1691 63.4678 93.0533 63.3201 92.9122 63.1992C92.7711 63.0782 92.6075 62.9864 92.4308 62.929C92.254 62.8715 92.0677 62.8496 91.8825 62.8645C91.6972 62.8485 91.5106 62.8701 91.3339 62.9282C91.1572 62.9863 90.9942 63.0796 90.8546 63.2025C90.715 63.3254 90.6018 63.4753 90.5217 63.6431C90.4417 63.811 90.3965 63.9945 90.3889 64.1804ZM92.6433 64.1914V66.7888H91.1449V64.184C91.1449 64.0897 91.1878 63.6204 91.88 63.6204C92.5392 63.6204 92.6298 64.048 92.6408 64.1914" fill="white"/>
<path d="M96.9302 63.7003C96.9302 63.8007 96.9701 63.897 97.0411 63.968C97.1121 64.039 97.2084 64.0789 97.3088 64.0789H99.0964C99.1968 64.0789 99.2931 64.039 99.3641 63.968C99.4351 63.897 99.475 63.8007 99.475 63.7003V59.9671C99.4747 59.9122 99.4625 59.858 99.4392 59.8083C99.416 59.7586 99.3822 59.7146 99.3402 59.6792L99.3769 59.9034C99.3862 59.9572 99.3836 60.0124 99.3694 60.0651C99.3553 60.1178 99.3298 60.1668 99.2949 60.2087C99.2599 60.2507 99.2163 60.2845 99.167 60.3079C99.1177 60.3314 99.0639 60.3438 99.0094 60.3445H98.7227V63.3205H97.6911V60.3445H97.4044C97.3499 60.3436 97.2962 60.331 97.247 60.3075C97.1978 60.284 97.1543 60.2502 97.1194 60.2083C97.0845 60.1664 97.059 60.1175 97.0448 60.0649C97.0305 60.0123 97.0278 59.9572 97.0368 59.9034L97.0748 59.6792C97.0328 59.7146 96.999 59.7586 96.9757 59.8083C96.9525 59.858 96.9403 59.9122 96.94 59.9671V63.7003H96.9302Z" fill="white"/>
<path d="M97.1152 60.2108C97.1508 60.2527 97.1951 60.2864 97.2451 60.3095C97.295 60.3325 97.3494 60.3444 97.4044 60.3444H99.0081C99.0627 60.3437 99.1165 60.3313 99.1658 60.3078C99.2151 60.2844 99.2587 60.2505 99.2936 60.2086C99.3286 60.1667 99.354 60.1177 99.3682 60.065C99.3823 60.0122 99.3849 59.9571 99.3757 59.9033L99.3389 59.6791L98.5744 55.1116C98.5592 55.0236 98.5135 54.9439 98.4452 54.8864C98.377 54.8289 98.2906 54.7974 98.2014 54.7974C98.1121 54.7974 98.0257 54.8289 97.9575 54.8864C97.8892 54.9439 97.8435 55.0236 97.8283 55.1116L97.0638 59.6791L97.0258 59.9033C97.0167 59.9576 97.0196 60.0133 97.0342 60.0664C97.0488 60.1195 97.0748 60.1687 97.1103 60.2108M98.2007 57.4664L98.556 59.5884H97.8454L98.2007 57.4664Z" fill="white"/>
<path d="M84.693 64.0776H86.4806C86.581 64.0776 86.6773 64.0377 86.7483 63.9667C86.8193 63.8957 86.8592 63.7995 86.8592 63.699V59.9659C86.8591 59.9112 86.847 59.8571 86.8237 59.8076C86.8004 59.758 86.7665 59.7142 86.7244 59.6792L86.7624 59.9034C86.7714 59.9572 86.7687 60.0123 86.7544 60.0649C86.7402 60.1175 86.7147 60.1664 86.6798 60.2083C86.6449 60.2502 86.6014 60.284 86.5522 60.3075C86.503 60.331 86.4493 60.3436 86.3948 60.3445H86.1081V63.3205H85.0765V60.3445H84.7911C84.736 60.3445 84.6817 60.3326 84.6317 60.3095C84.5818 60.2863 84.5375 60.2526 84.5019 60.2106C84.4663 60.1686 84.4403 60.1194 84.4257 60.0663C84.4111 60.0133 84.4083 59.9577 84.4174 59.9034L84.4554 59.6792C84.4134 59.7143 84.3796 59.7582 84.3563 59.8077C84.333 59.8572 84.3208 59.9112 84.3206 59.9659V63.699C84.3206 63.7995 84.3605 63.8957 84.4315 63.9667C84.5025 64.0377 84.5988 64.0776 84.6992 64.0776" fill="white"/>
<path d="M84.497 60.2106C84.5326 60.2525 84.5769 60.2862 84.6268 60.3092C84.6768 60.3323 84.7311 60.3442 84.7861 60.3441H86.3899C86.4444 60.3433 86.4981 60.3307 86.5473 60.3072C86.5965 60.2837 86.64 60.2498 86.6749 60.2079C86.7098 60.1661 86.7353 60.1171 86.7495 60.0645C86.7638 60.0119 86.7665 59.9568 86.7575 59.903L86.7195 59.6788L85.9599 55.1101C85.9447 55.0222 85.8989 54.9424 85.8307 54.8849C85.7624 54.8274 85.676 54.7959 85.5868 54.7959C85.4976 54.7959 85.4112 54.8274 85.3429 54.8849C85.2747 54.9424 85.2289 55.0222 85.2137 55.1101L84.4492 59.6788L84.4112 59.903C84.4022 59.9574 84.4051 60.013 84.4196 60.0661C84.4342 60.1192 84.4614 60.1685 84.497 60.2106ZM85.5874 57.4661L85.9415 59.5882H85.2321L85.5874 57.4661Z" fill="white"/>
<path d="M93.7362 59.0591C93.6588 58.628 93.4323 58.2379 93.0963 57.9569C92.7604 57.6759 92.3364 57.522 91.8984 57.522C91.4604 57.522 91.0364 57.6759 90.7005 57.9569C90.3645 58.2379 90.138 58.628 90.0606 59.0591C90.0606 59.1595 90.1005 59.2558 90.1715 59.3268C90.2425 59.3978 90.3388 59.4377 90.4392 59.4377H93.3637C93.4641 59.4377 93.5604 59.3978 93.6314 59.3268C93.7024 59.2558 93.7423 59.1595 93.7423 59.0591M90.9538 58.6805C91.0745 58.5494 91.2211 58.4447 91.3843 58.3731C91.5475 58.3015 91.7238 58.2645 91.9021 58.2645C92.0803 58.2645 92.2566 58.3015 92.4198 58.3731C92.5831 58.4447 92.7296 58.5494 92.8504 58.6805H90.9538Z" fill="white"/>
<path d="M91.8935 50.2915C91.2613 50.2915 90.6433 50.479 90.1176 50.8302C89.5919 51.1815 89.1822 51.6807 88.9403 52.2648C88.6983 52.8489 88.635 53.4916 88.7584 54.1116C88.8817 54.7317 89.1862 55.3013 89.6332 55.7483C90.0802 56.1953 90.6498 56.4998 91.2699 56.6231C91.8899 56.7465 92.5326 56.6832 93.1167 56.4412C93.7008 56.1993 94.2001 55.7896 94.5513 55.2639C94.9025 54.7382 95.09 54.1202 95.09 53.488C95.089 52.6406 94.7519 51.8281 94.1527 51.2288C93.5534 50.6296 92.741 50.2925 91.8935 50.2915ZM91.8935 55.9274C91.411 55.9274 90.9394 55.7843 90.5382 55.5163C90.1371 55.2482 89.8244 54.8673 89.6398 54.4215C89.4552 53.9758 89.4069 53.4853 89.501 53.0121C89.5951 52.5389 89.8274 52.1043 90.1686 51.7631C90.5097 51.422 90.9444 51.1897 91.4176 51.0955C91.8908 51.0014 92.3813 51.0497 92.827 51.2344C93.2727 51.419 93.6537 51.7316 93.9217 52.1328C94.1898 52.5339 94.3328 53.0056 94.3328 53.488C94.3319 54.1347 94.0746 54.7546 93.6173 55.2118C93.16 55.6691 92.5401 55.9264 91.8935 55.9274Z" fill="white"/>
<path d="M88.2191 46.7629H90.0067C90.1071 46.7629 90.2034 46.7231 90.2744 46.6521C90.3454 46.5811 90.3853 46.4848 90.3853 46.3844V42.6512C90.385 42.5963 90.3728 42.5421 90.3496 42.4924C90.3263 42.4427 90.2925 42.3986 90.2505 42.3633L90.2885 42.5887C90.2975 42.6425 90.2948 42.6976 90.2805 42.7502C90.2663 42.8028 90.2408 42.8517 90.2059 42.8936C90.171 42.9355 90.1275 42.9693 90.0783 42.9928C90.0291 43.0163 89.9754 43.0289 89.9209 43.0298H89.6342V46.0058H88.599V43.0298H88.3123C88.2577 43.0289 88.2041 43.0163 88.1549 42.9928C88.1057 42.9693 88.0621 42.9355 88.0272 42.8936C87.9923 42.8517 87.9669 42.8028 87.9527 42.7502C87.9384 42.6976 87.9357 42.6425 87.9447 42.5887L87.9815 42.3633C87.9395 42.3986 87.9057 42.4427 87.8824 42.4924C87.8591 42.5421 87.8469 42.5963 87.8467 42.6512V46.3807C87.8467 46.4811 87.8866 46.5774 87.9576 46.6484C88.0286 46.7194 88.1249 46.7593 88.2253 46.7593" fill="white"/>
<path d="M88.0219 42.8953C88.0575 42.9371 88.1019 42.9707 88.1518 42.9938C88.2017 43.0169 88.256 43.0288 88.311 43.0288H89.9148C89.9692 43.0279 90.0227 43.0154 90.0718 42.9919C90.1209 42.9685 90.1644 42.9348 90.1993 42.893C90.2342 42.8513 90.2596 42.8025 90.274 42.7501C90.2883 42.6976 90.2912 42.6426 90.2824 42.589L90.2444 42.3635L89.8192 39.8237L89.4799 37.796C89.4734 37.758 89.461 37.7212 89.4431 37.687C89.4072 37.6158 89.3498 37.5579 89.279 37.5214C89.2081 37.4849 89.1276 37.4718 89.0488 37.4839C88.9701 37.496 88.8972 37.5327 88.8406 37.5888C88.784 37.6448 88.7466 37.7174 88.7337 37.796L87.968 42.3635L87.9312 42.5877C87.922 42.6421 87.9248 42.6977 87.9394 42.7509C87.954 42.804 87.9801 42.8533 88.0158 42.8953M89.4615 42.2729H88.7509L89.1062 40.1508L89.4615 42.2729Z" fill="white"/>
<path d="M93.1664 46.3807V42.6512C93.1664 42.5963 93.1543 42.542 93.131 42.4923C93.1077 42.4426 93.0738 42.3985 93.0317 42.3633L93.0684 42.5875C93.0777 42.6413 93.0751 42.6964 93.0609 42.7492C93.0468 42.8019 93.0213 42.8509 92.9864 42.8928C92.9515 42.9347 92.9078 42.9686 92.8585 42.992C92.8093 43.0155 92.7555 43.0279 92.7009 43.0286H92.4142V46.0045H91.3826V43.0286H91.0959C91.0413 43.0279 90.9875 43.0155 90.9382 42.992C90.8889 42.9686 90.8453 42.9347 90.8104 42.8928C90.7754 42.8509 90.75 42.8019 90.7358 42.7492C90.7217 42.6964 90.7191 42.6413 90.7283 42.5875L90.7663 42.3633C90.7241 42.3985 90.6902 42.4425 90.6669 42.4922C90.6436 42.542 90.6315 42.5963 90.6315 42.6512V46.3807C90.6315 46.4811 90.6714 46.5774 90.7424 46.6484C90.8134 46.7194 90.9097 46.7593 91.0101 46.7593H92.7977C92.8981 46.7593 92.9944 46.7194 93.0654 46.6484C93.1364 46.5774 93.1763 46.4811 93.1763 46.3807" fill="white"/>
<path d="M90.8043 42.8954C90.8399 42.9373 90.8842 42.971 90.9341 42.994C90.984 43.0171 91.0384 43.029 91.0934 43.0289H92.7021C92.7567 43.0283 92.8105 43.0158 92.8597 42.9924C92.909 42.969 92.9527 42.9351 92.9876 42.8932C93.0226 42.8512 93.048 42.8022 93.0621 42.7495C93.0763 42.6968 93.0789 42.6416 93.0697 42.5879L93.0317 42.3636L92.2672 37.7961C92.252 37.7082 92.2062 37.6284 92.138 37.5709C92.0697 37.5135 91.9833 37.4819 91.8941 37.4819C91.8048 37.4819 91.7185 37.5135 91.6502 37.5709C91.5819 37.6284 91.5362 37.7082 91.521 37.7961L90.7565 42.3649L90.7185 42.5891C90.7095 42.6434 90.7123 42.699 90.7269 42.7521C90.7415 42.8052 90.7675 42.8545 90.803 42.8966M91.8947 40.1522L92.2488 42.2742H91.5394L91.8947 40.1522Z" fill="white"/>
<path d="M95.7675 42.895C95.7321 42.9372 95.6878 42.9712 95.6379 42.9944C95.5879 43.0177 95.5335 43.0298 95.4784 43.0298H95.1917V46.0058H94.1613V43.0298H93.8746C93.8201 43.0289 93.7664 43.0163 93.7172 42.9928C93.668 42.9693 93.6245 42.9355 93.5896 42.8936C93.5547 42.8517 93.5293 42.8028 93.515 42.7502C93.5008 42.6976 93.498 42.6425 93.507 42.5887L93.5438 42.3645C93.5018 42.3999 93.468 42.4439 93.4447 42.4936C93.4215 42.5433 93.4093 42.5975 93.409 42.6524V46.3807C93.409 46.4811 93.4489 46.5774 93.5199 46.6484C93.5909 46.7194 93.6872 46.7593 93.7876 46.7593H95.5739C95.6743 46.7593 95.7706 46.7194 95.8416 46.6484C95.9126 46.5774 95.9525 46.4811 95.9525 46.3807V42.6512C95.9524 42.5963 95.9402 42.5421 95.9169 42.4924C95.8937 42.4426 95.8598 42.3986 95.8178 42.3633L95.8545 42.5887C95.8635 42.6428 95.8607 42.6983 95.8461 42.7512C95.8315 42.8041 95.8055 42.8532 95.77 42.895" fill="white"/>
<path d="M93.9628 39.825L93.5377 42.3636L93.4997 42.5878C93.4905 42.6416 93.493 42.6967 93.5072 42.7495C93.5214 42.8022 93.5468 42.8512 93.5817 42.8931C93.6167 42.935 93.6603 42.9689 93.7096 42.9923C93.7589 43.0158 93.8127 43.0282 93.8672 43.0289H95.471C95.5255 43.0282 95.5791 43.0158 95.6283 42.9924C95.6775 42.969 95.7211 42.9353 95.756 42.8935C95.7909 42.8517 95.8164 42.8029 95.8306 42.7503C95.8449 42.6977 95.8476 42.6427 95.8386 42.589L95.8018 42.3636L95.0373 37.7961C95.0243 37.7175 94.9867 37.6451 94.93 37.5892C94.8734 37.5333 94.8004 37.4967 94.7217 37.4848C94.643 37.4728 94.5625 37.486 94.4918 37.5226C94.4211 37.5591 94.3637 37.6171 94.3279 37.6883C94.3101 37.7221 94.2977 37.7584 94.2912 37.7961L93.9628 39.825ZM95.0312 42.2754H94.3206L94.6771 40.1533L95.0312 42.2754Z" fill="white"/>
<path d="M91.8947 26.6931L92.3848 27.0472L94.4223 28.5272L93.4568 25.5586L95.9819 23.7208H92.8601L91.8959 20.7534L90.9305 23.7208H87.8075L90.3326 25.5586L89.3683 28.5272L91.4058 27.0484L91.8947 26.6931ZM90.1378 24.4817H91.4855L91.9008 23.2062L92.3162 24.4817H93.6639L92.5771 25.2707L92.9925 26.5473L91.907 25.7571L90.8202 26.5473L91.2355 25.2707L90.1378 24.4817Z" fill="white"/>
<path d="M75.754 58.3179H75.1206V60.1164H75.754V58.3179Z" fill="white"/>
<path d="M75.754 58.3179H75.1206V60.1164H75.754V58.3179Z" fill="white"/>
<path d="M28.4102 58.3179H27.7768V60.1164H28.4102V58.3179Z" fill="white"/>
<path d="M28.4102 58.3179H27.7768V60.1164H28.4102V58.3179Z" fill="white"/>
<path d="M28.4127 58.3191H42.5146V57.6857H27.2819V57.1454H41.5651V56.5132H26.6484V58.3191H28.4127Z" fill="white"/>
<path d="M28.4127 58.3191H42.5146V57.6857H27.2819V57.1454H41.5651V56.5132H26.6484V58.3191H28.4127Z" fill="white"/>
<path d="M61.967 57.1454H76.249V57.6857H61.0175V58.3191H76.8824V56.5132H61.967V57.1454Z" fill="white"/>
<path d="M61.967 57.1454H76.249V57.6857H61.0175V58.3191H76.8824V56.5132H61.967V57.1454Z" fill="white"/>
<path d="M78.2596 67.5654L78.5842 94.8149H79.2176L78.893 67.5654H78.2596Z" fill="white"/>
<path d="M78.2596 67.5654L78.5842 94.8149H79.2176L78.893 67.5654H78.2596Z" fill="white"/>
<path d="M76.1645 94.8163L76.4892 67.5669H75.8557L75.5311 94.8163H76.1645Z" fill="white"/>
<path d="M76.1645 94.8163L76.4892 67.5669H75.8557L75.5311 94.8163H76.1645Z" fill="white"/>
<path d="M78.583 94.8164H74.459V97.0218H80.2885V94.8164H78.583ZM79.655 95.4498V96.392H75.0924V95.4498H79.655Z" fill="white"/>
<path d="M78.583 94.8164H74.459V97.0218H80.2885V94.8164H78.583ZM79.655 95.4498V96.392H75.0924V95.4498H79.655Z" fill="white"/>
<path d="M76.4892 67.5667H79.8597V66.4297H79.2287V66.9345H75.5225V66.4297H74.8891V67.5667H76.4892Z" fill="white"/>
<path d="M76.4892 67.5667H79.8597V66.4297H79.2287V66.9345H75.5225V66.4297H74.8891V67.5667H76.4892Z" fill="white"/>
<path d="M65.9219 94.8163L66.2466 67.5669H65.6132L65.2885 94.8163H65.9219Z" fill="white"/>
<path d="M65.9219 94.8163L66.2466 67.5669H65.6132L65.2885 94.8163H65.9219Z" fill="white"/>
<path d="M68.0157 67.5654L68.3404 94.8149H68.9739L68.6492 67.5654H68.0157Z" fill="white"/>
<path d="M68.0157 67.5654L68.3404 94.8149H68.9739L68.6492 67.5654H68.0157Z" fill="white"/>
<path d="M68.3404 94.8164H64.2164V97.0218H70.0459V94.8164H68.3404ZM69.4125 95.4498V96.392H64.8499V95.4498H69.4125Z" fill="white"/>
<path d="M68.3404 94.8164H64.2164V97.0218H70.0459V94.8164H68.3404ZM69.4125 95.4498V96.392H64.8499V95.4498H69.4125Z" fill="white"/>
<path d="M68.9837 66.4287V66.9335H65.2787V66.4287H64.6453V67.5657H69.6159V66.4287H68.9837Z" fill="white"/>
<path d="M68.9837 66.4287V66.9335H65.2787V66.4287H64.6453V67.5657H69.6159V66.4287H68.9837Z" fill="white"/>
<path d="M57.7732 67.5654L58.0978 94.8149H58.7313L58.4066 67.5654H57.7732Z" fill="white"/>
<path d="M57.7732 67.5654L58.0978 94.8149H58.7313L58.4066 67.5654H57.7732Z" fill="white"/>
<path d="M55.6781 94.8163L56.0027 67.5669H55.3693L55.0446 94.8163H55.6781Z" fill="white"/>
<path d="M55.6781 94.8163L56.0027 67.5669H55.3693L55.0446 94.8163H55.6781Z" fill="white"/>
<path d="M58.0966 94.8164H53.9726V97.0218H59.8021V94.8164H58.0966ZM59.1687 95.4498V96.392H54.606V95.4498H59.1687Z" fill="white"/>
<path d="M58.0966 94.8164H53.9726V97.0218H59.8021V94.8164H58.0966ZM59.1687 95.4498V96.392H54.606V95.4498H59.1687Z" fill="white"/>
<path d="M58.7386 66.4287V66.9335H55.0361V66.4287H54.4026V67.5657H59.3732V66.4287H58.7386Z" fill="white"/>
<path d="M58.7386 66.4287V66.9335H55.0361V66.4287H54.4026V67.5657H59.3732V66.4287H58.7386Z" fill="white"/>
<path d="M45.4343 94.8163L45.7589 67.5669H45.1255L44.8008 94.8163H45.4343Z" fill="white"/>
<path d="M45.4343 94.8163L45.7589 67.5669H45.1255L44.8008 94.8163H45.4343Z" fill="white"/>
<path d="M47.5294 67.5654L47.854 94.8149H48.4875L48.1628 67.5654H47.5294Z" fill="white"/>
<path d="M47.5294 67.5654L47.854 94.8149H48.4875L48.1628 67.5654H47.5294Z" fill="white"/>
<path d="M47.8528 94.8164H43.7288V97.0218H49.5619V94.8164H47.8528ZM48.9249 95.4498V96.392H44.361V95.4498H48.9249Z" fill="white"/>
<path d="M47.8528 94.8164H43.7288V97.0218H49.5619V94.8164H47.8528ZM48.9249 95.4498V96.392H44.361V95.4498H48.9249Z" fill="white"/>
<path d="M48.496 66.4287V66.9335H44.791V66.4287H44.1576V67.5657H49.127V66.4287H48.496Z" fill="white"/>
<path d="M48.496 66.4287V66.9335H44.791V66.4287H44.1576V67.5657H49.127V66.4287H48.496Z" fill="white"/>
<path d="M35.1905 94.8163L35.5151 67.5669H34.8817L34.557 94.8163H35.1905Z" fill="white"/>
<path d="M35.1905 94.8163L35.5151 67.5669H34.8817L34.557 94.8163H35.1905Z" fill="white"/>
<path d="M37.2855 67.5654L37.6102 94.8149H38.2436L37.9189 67.5654H37.2855Z" fill="white"/>
<path d="M37.2855 67.5654L37.6102 94.8149H38.2436L37.9189 67.5654H37.2855Z" fill="white"/>
<path d="M37.6102 94.8164H33.485V97.0218H39.3144V94.8164H37.6102ZM38.6822 95.4498V96.392H34.1196V95.4498H38.6822Z" fill="white"/>
<path d="M37.6102 94.8164H33.485V97.0218H39.3144V94.8164H37.6102ZM38.6822 95.4498V96.392H34.1196V95.4498H38.6822Z" fill="white"/>
<path d="M38.2522 66.4287V66.9335H34.5485V66.4287H33.915V67.5657H38.8856V66.4287H38.2522Z" fill="white"/>
<path d="M38.2522 66.4287V66.9335H34.5485V66.4287H33.915V67.5657H38.8856V66.4287H38.2522Z" fill="white"/>
<path d="M27.0429 67.5654L27.3676 94.8149H28.001L27.6764 67.5654H27.0429Z" fill="white"/>
<path d="M27.0429 67.5654L27.3676 94.8149H28.001L27.6764 67.5654H27.0429Z" fill="white"/>
<path d="M24.9467 94.8163L25.2713 67.5669H24.6391L24.3145 94.8163H24.9467Z" fill="white"/>
<path d="M24.9467 94.8163L25.2713 67.5669H24.6391L24.3145 94.8163H24.9467Z" fill="white"/>
<path d="M27.3664 94.8164H23.2424V97.0218H29.0719V94.8164H27.3664ZM28.4384 95.4498V96.392H23.8746V95.4498H28.4335H28.4384Z" fill="white"/>
<path d="M27.3664 94.8164H23.2424V97.0218H29.0719V94.8164H27.3664ZM28.4384 95.4498V96.392H23.8746V95.4498H28.4335H28.4384Z" fill="white"/>
<path d="M28.0084 66.4287V66.9335H24.3047V66.4287H23.6712V67.5657H28.6418V66.4287H28.0084Z" fill="white"/>
<path d="M28.0084 66.4287V66.9335H24.3047V66.4287H23.6712V67.5657H28.6418V66.4287H28.0084Z" fill="white"/>
<path d="M75.5225 66.4284H81.2172V63.978H80.411V64.6114H80.585V65.7987H22.9496V64.6114H23.1236V63.978H22.3162V66.4284H75.5225Z" fill="white"/>
<path d="M75.5225 66.4284H81.2172V63.978H80.411V64.6114H80.585V65.7987H22.9496V64.6114H23.1236V63.978H22.3162V66.4284H75.5225Z" fill="white"/>
<path d="M23.1236 64.6078H25.2407V63.9744H23.757V62.2407H23.1236V64.6078Z" fill="white"/>
<path d="M23.1236 64.6078H25.2407V63.9744H23.757V62.2407H23.1236V64.6078Z" fill="white"/>
<path d="M79.7751 62.2422V63.9758H78.2902V64.6093H80.4073V62.2434L79.7751 62.2422Z" fill="white"/>
<path d="M79.7751 62.2422V63.9758H78.2902V64.6093H80.4073V62.2434L79.7751 62.2422Z" fill="white"/>
<path d="M74.0927 63.9756H72.1838V64.609H74.0927V63.9756Z" fill="white"/>
<path d="M74.0927 63.9756H72.1838V64.609H74.0927V63.9756Z" fill="white"/>
<path d="M55.7737 63.9756H53.8648V64.609H55.7737V63.9756Z" fill="white"/>
<path d="M55.7737 63.9756H53.8648V64.609H55.7737V63.9756Z" fill="white"/>
<path d="M37.4546 63.9756H35.5458V64.609H37.4546V63.9756Z" fill="white"/>
<path d="M37.4546 63.9756H35.5458V64.609H37.4546V63.9756Z" fill="white"/>
<path d="M43.5609 63.9756H41.6521V64.609H43.5609V63.9756Z" fill="white"/>
<path d="M43.5609 63.9756H41.6521V64.609H43.5609V63.9756Z" fill="white"/>
<path d="M31.3483 63.9756H29.4394V64.609H31.3483V63.9756Z" fill="white"/>
<path d="M31.3483 63.9756H29.4394V64.609H31.3483V63.9756Z" fill="white"/>
<path d="M61.88 63.9756H59.9712V64.609H61.88V63.9756Z" fill="white"/>
<path d="M61.88 63.9756H59.9712V64.609H61.88V63.9756Z" fill="white"/>
<path d="M67.9863 63.9756H66.0775V64.609H67.9863V63.9756Z" fill="white"/>
<path d="M67.9863 63.9756H66.0775V64.609H67.9863V63.9756Z" fill="white"/>
<path d="M49.6673 63.9756H47.7585V64.609H49.6673V63.9756Z" fill="white"/>
<path d="M49.6673 63.9756H47.7585V64.609H49.6673V63.9756Z" fill="white"/>
<path d="M49.6661 64.6078H50.6952V63.9744H50.2995V62.2407H49.6661V64.6078Z" fill="white"/>
<path d="M49.6661 64.6078H50.6952V63.9744H50.2995V62.2407H49.6661V64.6078Z" fill="white"/>
<path d="M52.8356 63.9756V64.609H53.8648V62.2432H53.2314V63.9768L52.8356 63.9756Z" fill="white"/>
<path d="M52.8356 63.9756V64.609H53.8648V62.2432H53.2314V63.9768L52.8356 63.9756Z" fill="white"/>
<path d="M50.6953 64.608H52.8357V62.2422H52.2035V63.9758H51.3287V62.2422H50.6953V64.608Z" fill="white"/>
<path d="M50.6953 64.608H52.8357V62.2422H52.2035V63.9758H51.3287V62.2422H50.6953V64.608Z" fill="white"/>
<path d="M26.2699 63.9758H25.8741V62.2422H25.2407V64.608H26.2699V63.9758Z" fill="white"/>
<path d="M26.2699 63.9758H25.8741V62.2422H25.2407V64.608H26.2699V63.9758Z" fill="white"/>
<path d="M28.4102 63.9756V64.609H29.4394V62.2432H28.806V63.9768L28.4102 63.9756Z" fill="white"/>
<path d="M28.4102 63.9756V64.609H29.4394V62.2432H28.806V63.9768L28.4102 63.9756Z" fill="white"/>
<path d="M26.2698 64.608H28.4151V62.2422H27.778V63.9758H26.9033V62.2422H26.2698V64.608Z" fill="white"/>
<path d="M26.2698 64.608H28.4151V62.2422H27.778V63.9758H26.9033V62.2422H26.2698V64.608Z" fill="white"/>
<path d="M31.347 64.6078H32.3762V63.9744H31.978V62.2407H31.3446V64.6066L31.347 64.6078Z" fill="white"/>
<path d="M31.347 64.6078H32.3762V63.9744H31.978V62.2407H31.3446V64.6066L31.347 64.6078Z" fill="white"/>
<path d="M34.5166 63.9756V64.609H35.5458V62.2432H34.9123V63.9768L34.5166 63.9756Z" fill="white"/>
<path d="M34.5166 63.9756V64.609H35.5458V62.2432H34.9123V63.9768L34.5166 63.9756Z" fill="white"/>
<path d="M32.3762 64.608H34.5178V62.2422H33.8844V63.9758H33.0096V62.2422H32.3762V64.608Z" fill="white"/>
<path d="M32.3762 64.608H34.5178V62.2422H33.8844V63.9758H33.0096V62.2422H32.3762V64.608Z" fill="white"/>
<path d="M37.4534 64.6078H38.4825V63.9744H38.0868V62.2407H37.4534V64.6078Z" fill="white"/>
<path d="M37.4534 64.6078H38.4825V63.9744H38.0868V62.2407H37.4534V64.6078Z" fill="white"/>
<path d="M40.623 63.9756V64.609H41.6521V62.2432H41.0187V63.9768L40.623 63.9756Z" fill="white"/>
<path d="M40.623 63.9756V64.609H41.6521V62.2432H41.0187V63.9768L40.623 63.9756Z" fill="white"/>
<path d="M38.4826 64.608H40.6242V62.2422H39.9908V63.9758H39.1135V62.2422H38.4801V64.608H38.4826Z" fill="white"/>
<path d="M38.4826 64.608H40.6242V62.2422H39.9908V63.9758H39.1135V62.2422H38.4801V64.608H38.4826Z" fill="white"/>
<path d="M43.5597 64.6078H44.5889V63.9744H44.1931V62.2407H43.5597V64.6078Z" fill="white"/>
<path d="M43.5597 64.6078H44.5889V63.9744H44.1931V62.2407H43.5597V64.6078Z" fill="white"/>
<path d="M46.7293 63.9756V64.609H47.7585V62.2432H47.1299V63.9768L46.7293 63.9756Z" fill="white"/>
<path d="M46.7293 63.9756V64.609H47.7585V62.2432H47.1299V63.9768L46.7293 63.9756Z" fill="white"/>
<path d="M44.5889 64.608H46.7293V62.2422H46.0971V63.9758H45.2223V62.2422H44.5889V64.608Z" fill="white"/>
<path d="M44.5889 64.608H46.7293V62.2422H46.0971V63.9758H45.2223V62.2422H44.5889V64.608Z" fill="white"/>
<path d="M55.7724 64.6078H56.8016V63.9744H56.4059V62.2407H55.7724V64.6078Z" fill="white"/>
<path d="M55.7724 64.6078H56.8016V63.9744H56.4059V62.2407H55.7724V64.6078Z" fill="white"/>
<path d="M58.942 63.9756V64.609H59.9712V62.2432H59.3377V63.9768L58.942 63.9756Z" fill="white"/>
<path d="M58.942 63.9756V64.609H59.9712V62.2432H59.3377V63.9768L58.942 63.9756Z" fill="white"/>
<path d="M56.8016 64.608H58.942V62.2422H58.3098V63.9758H57.435V62.2422H56.8016V64.608Z" fill="white"/>
<path d="M56.8016 64.608H58.942V62.2422H58.3098V63.9758H57.435V62.2422H56.8016V64.608Z" fill="white"/>
<path d="M61.8788 64.6078H62.9079V63.9744H62.5122V62.2407H61.8788V64.6078Z" fill="white"/>
<path d="M61.8788 64.6078H62.9079V63.9744H62.5122V62.2407H61.8788V64.6078Z" fill="white"/>
<path d="M65.0483 63.9756V64.609H66.0775V62.2432H65.4441V63.9768L65.0483 63.9756Z" fill="white"/>
<path d="M65.0483 63.9756V64.609H66.0775V62.2432H65.4441V63.9768L65.0483 63.9756Z" fill="white"/>
<path d="M62.9079 64.608H65.0434V62.2422H64.4112V63.9758H63.5364V62.2422H62.903V64.608H62.9079Z" fill="white"/>
<path d="M62.9079 64.608H65.0434V62.2422H64.4112V63.9758H63.5364V62.2422H62.903V64.608H62.9079Z" fill="white"/>
<path d="M67.9863 64.6078H69.0155V63.9744H68.6198V62.2407H67.9863V64.6078Z" fill="white"/>
<path d="M67.9863 64.6078H69.0155V63.9744H68.6198V62.2407H67.9863V64.6078Z" fill="white"/>
<path d="M71.1547 63.9756V64.609H72.1838V62.2432H71.5504V63.9768L71.1547 63.9756Z" fill="white"/>
<path d="M71.1547 63.9756V64.609H72.1838V62.2432H71.5504V63.9768L71.1547 63.9756Z" fill="white"/>
<path d="M69.0143 64.608H71.1559V62.2422H70.5225V63.9758H69.6477V62.2422H69.0143V64.608Z" fill="white"/>
<path d="M69.0143 64.608H71.1559V62.2422H70.5225V63.9758H69.6477V62.2422H69.0143V64.608Z" fill="white"/>
<path d="M74.0915 64.6078H75.1206V63.9744H74.7249V62.2407H74.0915V64.6078Z" fill="white"/>
<path d="M74.0915 64.6078H75.1206V63.9744H74.7249V62.2407H74.0915V64.6078Z" fill="white"/>
<path d="M77.261 63.9756V64.609H78.2902V62.2432H77.6568V63.9768L77.261 63.9756Z" fill="white"/>
<path d="M77.261 63.9756V64.609H78.2902V62.2432H77.6568V63.9768L77.261 63.9756Z" fill="white"/>
<path d="M75.1206 64.608H77.2622V62.2422H76.6288V63.9758H75.754V62.2422H75.1206V64.608Z" fill="white"/>
<path d="M75.1206 64.608H77.2622V62.2422H76.6288V63.9758H75.754V62.2422H75.1206V64.608Z" fill="white"/>
<path d="M23.7558 62.2444H80.966V60.1187H61.0162V60.7521H80.3326V61.6097H23.1971V60.7521H42.5134V60.1187H22.5649V62.2444H23.7558Z" fill="white"/>
<path d="M23.7558 62.2444H80.966V60.1187H61.0162V60.7521H80.3326V61.6097H23.1971V60.7521H42.5134V60.1187H22.5649V62.2444H23.7558Z" fill="white"/>
<path d="M61.0162 57.6858V57.1455H60.3828V60.1178H43.1469V57.1455H42.5134V60.75H61.0138V57.687L61.0162 57.6858Z" fill="white"/>
<path d="M61.0162 57.6858V57.1455H60.3828V60.1178H43.1469V57.1455H42.5134V60.75H61.0138V57.687L61.0162 57.6858Z" fill="white"/>
<path d="M41.5639 57.1455H61.9658V55.2061H57.5428V55.8383H61.3336V56.5121H42.1973V55.8383H45.9881V55.2061H41.5639V57.1455Z" fill="white"/>
<path d="M41.5639 57.1455H61.9658V55.2061H57.5428V55.8383H61.3336V56.5121H42.1973V55.8383H45.9881V55.2061H41.5639V57.1455Z" fill="white"/>
<path d="M50.0704 55.2061H49.3794V55.8395H50.0704V55.2061Z" fill="white"/>
<path d="M50.0704 55.2061H49.3794V55.8395H50.0704V55.2061Z" fill="white"/>
<path d="M54.1515 55.2061H53.4605V55.8395H54.1515V55.2061Z" fill="white"/>
<path d="M54.1515 55.2061H53.4605V55.8395H54.1515V55.2061Z" fill="white"/>
<path d="M50.0704 55.8417H53.4617V50.0662H52.6629V50.6959H52.8307V55.2034H50.7038V50.6959H50.8704V50.0625H50.0716L50.0704 55.8417Z" fill="white"/>
<path d="M50.0704 55.8417H53.4617V50.0662H52.6629V50.6959H52.8307V55.2034H50.7038V50.6959H50.8704V50.0625H50.0716L50.0704 55.8417Z" fill="white"/>
<path d="M54.1515 55.8395H57.5428V51.0796H54.1515V55.8395ZM54.7849 51.713H56.9106V55.206H54.7849V51.713Z" fill="white"/>
<path d="M54.1515 55.8395H57.5428V51.0796H54.1515V55.8395ZM54.7849 51.713H56.9106V55.206H54.7849V51.713Z" fill="white"/>
<path d="M45.9881 55.8395H49.3794V51.0796H45.9881V55.8395ZM46.6215 51.713H48.746V55.206H46.6239L46.6215 51.713Z" fill="white"/>
<path d="M45.9881 55.8395H49.3794V51.0796H45.9881V55.8395ZM46.6215 51.713H48.746V55.206H46.6239L46.6215 51.713Z" fill="white"/>
<path d="M50.8692 50.6984H52.6617V45.6445H50.8692V50.6984ZM51.5026 46.278H52.0282V50.065H51.5026V46.278Z" fill="white"/>
<path d="M50.8692 50.6984H52.6617V45.6445H50.8692V50.6984ZM51.5026 46.278H52.0282V50.065H51.5026V46.278Z" fill="white"/>
<path d="M145.246 96.5903H139.033V93.52C139.033 93.4167 138.992 93.3176 138.919 93.2445C138.845 93.1715 138.746 93.1304 138.643 93.1304H133.925V90.7364C133.925 90.7303 133.925 90.7241 133.925 90.718C133.923 90.6761 133.915 90.6347 133.9 90.5955C133.896 90.5834 133.89 90.5715 133.884 90.56C133.872 90.5347 133.858 90.5109 133.84 90.4889L132.115 88.3779V68.2762H133.532C133.583 68.2762 133.633 68.2661 133.681 68.2466C133.728 68.227 133.771 68.1983 133.807 68.1621C133.843 68.1259 133.872 68.083 133.892 68.0357C133.911 67.9884 133.921 67.9378 133.921 67.8866V65.5808C133.921 65.5296 133.911 65.479 133.892 65.4317C133.872 65.3844 133.843 65.3415 133.807 65.3053C133.771 65.2691 133.728 65.2404 133.681 65.2208C133.633 65.2013 133.583 65.1912 133.532 65.1912H132.078L131.278 55.4142C131.266 55.2426 130.477 44.51 129.898 36.2804L130.302 36.61C130.371 36.6672 130.457 36.6988 130.547 36.6994H130.6C130.652 36.6916 130.702 36.6735 130.747 36.6461C130.793 36.6188 130.832 36.5828 130.863 36.5401L132.518 34.2368L132.834 34.4818C132.973 34.5875 133.148 34.634 133.32 34.6111C133.493 34.5881 133.65 34.4975 133.756 34.3593L135.037 32.6734C135.143 32.5348 135.189 32.3601 135.166 32.1875C135.143 32.0148 135.053 31.8583 134.915 31.7521L134.58 31.4972L135.704 29.9486C135.762 29.868 135.787 29.7681 135.774 29.6695C135.761 29.5708 135.711 29.4809 135.634 29.4181L131.659 26.1775C131.619 26.1434 131.572 26.1181 131.521 26.1031C131.47 26.0881 131.417 26.0836 131.364 26.0901C131.311 26.0965 131.261 26.1137 131.215 26.1405C131.169 26.1673 131.13 26.2033 131.098 26.2461L129.759 28.0532L129.314 27.5828C129.299 27.2703 129.29 27.0694 129.292 27.0045C129.356 26.6509 129.311 26.2865 129.164 25.9587C129.017 25.6309 128.775 25.3549 128.469 25.1667L127.766 24.7783L126.646 19.9927C126.779 19.706 126.87 19.402 126.918 19.0897L127.679 18.3142C129.065 17.1601 130.649 15.8638 130.803 15.7707L130.986 15.6482L130.973 15.6188C131.009 15.5559 131.025 15.4837 131.019 15.4117C131.013 15.312 130.969 15.2183 130.897 15.1499C130.824 15.0815 130.728 15.0437 130.628 15.0442H130.573C130.485 15.0552 129.06 15.1814 127.641 15.3051C128.048 14.3508 128.376 13.3644 128.621 12.3561C128.62 12.2822 128.599 12.2099 128.561 12.147C128.522 12.0842 128.466 12.0332 128.4 11.9996C128.169 11.8856 128.067 11.8366 125.263 13.8851L124.116 10.5771C124.089 10.5014 124.039 10.4358 123.973 10.3892C123.907 10.3426 123.829 10.3171 123.748 10.3161C123.67 10.3152 123.592 10.338 123.527 10.3818C123.461 10.4255 123.41 10.488 123.381 10.5612L122.126 13.7847L119.545 12.0449C119.479 12.0007 119.401 11.9778 119.322 11.979C119.242 11.9803 119.165 12.0057 119.101 12.052C119.036 12.0982 118.988 12.163 118.961 12.2377C118.934 12.3124 118.931 12.3934 118.952 12.47L119.648 15.0797L118.055 14.7979L117.197 11.6957C117.442 10.6151 117.725 9.43891 117.8 9.23921C117.968 8.79079 117.445 7.8915 116.942 7.19191C116.846 7.10291 116.74 7.02521 116.626 6.96035L116.673 5.91772C116.974 5.74095 117.234 5.50327 117.438 5.21991C117.642 4.93656 117.784 4.61378 117.855 4.27229C117.867 4.2156 117.866 4.15704 117.852 4.10084C117.838 4.04465 117.812 3.99224 117.775 3.94742C117.739 3.9026 117.693 3.8665 117.64 3.84173C117.588 3.81697 117.531 3.80417 117.473 3.80426H115.738V3.43671C115.738 3.38554 115.728 3.33488 115.708 3.28761C115.689 3.24034 115.66 3.19739 115.624 3.16121C115.588 3.12503 115.545 3.09633 115.498 3.07675C115.45 3.05717 115.4 3.0471 115.349 3.0471H114.444C114.327 3.0471 114.215 3.00063 114.132 2.91791C114.05 2.83519 114.003 2.72301 114.003 2.60603C114.003 2.48905 114.05 2.37686 114.132 2.29415C114.215 2.21143 114.327 2.16496 114.444 2.16496H116.678C117.003 2.16496 117.314 2.03588 117.544 1.80611C117.774 1.57634 117.903 1.26471 117.903 0.93977C117.906 0.88685 117.898 0.83388 117.88 0.784102C117.862 0.734323 117.834 0.688783 117.797 0.650267C117.761 0.611752 117.717 0.581072 117.668 0.560103C117.619 0.539135 117.567 0.52832 117.514 0.52832C117.461 0.52832 117.409 0.539135 117.36 0.560103C117.311 0.581072 117.267 0.611752 117.231 0.650267C117.195 0.688783 117.166 0.734323 117.148 0.784102C117.13 0.83388 117.122 0.88685 117.125 0.93977C117.125 1.05665 117.078 1.16865 116.995 1.2513C116.913 1.33394 116.801 1.38052 116.684 1.38084H114.45C114.145 1.38091 113.85 1.49611 113.625 1.70354C113.4 1.91097 113.262 2.19542 113.237 2.50034C113.212 2.80526 113.303 3.10831 113.492 3.34922C113.68 3.59014 113.952 3.75127 114.254 3.80059H113.175C113.117 3.80053 113.06 3.81331 113.008 3.838C112.956 3.8627 112.91 3.89868 112.873 3.94335C112.837 3.98803 112.81 4.04028 112.797 4.09632C112.783 4.15236 112.781 4.21079 112.793 4.26739C112.87 4.63472 113.028 4.9801 113.257 5.27819C113.485 5.57627 113.777 5.8195 114.111 5.99L114.134 6.75452H114.088C114.002 6.76595 113.919 6.79424 113.844 6.83777C113.77 6.88129 113.704 6.93919 113.652 7.00814C113.599 7.07746 113.562 7.15656 113.541 7.24075C113.52 7.32493 113.516 7.41248 113.529 7.49821L113.81 9.59696C113.826 9.71573 113.875 9.82778 113.95 9.92104C114.025 10.0143 114.125 10.0853 114.237 10.1262L114.269 11.2007C114.272 11.302 114.314 11.3982 114.387 11.4687C114.46 11.5392 114.557 11.5785 114.659 11.5781H115.126C115.094 12.6085 114.982 16.2485 114.98 16.4323V16.4801C114.933 17.0168 114.99 17.5574 115.146 18.0728C115.187 18.4291 115.196 18.7882 115.175 19.1461C114.892 19.3976 114.683 19.722 114.572 20.084C114.461 20.4459 114.452 20.8314 114.545 21.1983C114.663 21.6749 114.939 22.0976 115.328 22.3977L115.681 26.7129C115.681 26.7227 115.687 26.73 115.689 26.7398L115.209 28.0716C115.189 28.1279 115.182 28.188 115.189 28.2472C115.196 28.3065 115.217 28.3634 115.249 28.4134L116.133 29.7807C116.019 30.0083 115.952 30.2563 115.936 30.5101C115.92 30.7639 115.955 31.0183 116.04 31.2583C116.119 31.7707 116.11 32.293 116.011 32.8021L114.798 43.0679C113.652 47.3769 112.422 51.9849 111.525 55.3382C111.503 55.4155 111.507 55.4976 111.534 55.5731C111.561 55.6485 111.611 55.7137 111.677 55.7597C111.706 55.7788 111.738 55.7941 111.771 55.805L109.399 65.19H107.958C107.855 65.1903 107.756 65.2314 107.683 65.3044C107.61 65.3774 107.569 65.4763 107.569 65.5796V67.8854C107.569 67.9887 107.61 68.0878 107.683 68.1609C107.756 68.2339 107.855 68.275 107.958 68.275H109.312V88.3852L107.653 90.4963C107.639 90.5158 107.627 90.5368 107.616 90.5587C107.61 90.5685 107.603 90.5787 107.598 90.5894C107.582 90.6304 107.573 90.674 107.572 90.718C107.572 90.718 107.572 90.729 107.572 90.7339V93.128H102.854C102.751 93.128 102.652 93.169 102.579 93.2421C102.505 93.3151 102.464 93.4142 102.464 93.5176V96.5891H96.5406C96.4895 96.5891 96.4388 96.5992 96.3915 96.6188C96.3443 96.6384 96.3013 96.6671 96.2651 96.7032C96.2289 96.7394 96.2002 96.7824 96.1807 96.8296C96.1611 96.8769 96.151 96.9276 96.151 96.9787V100.055C96.151 100.106 96.1611 100.157 96.1807 100.204C96.2002 100.252 96.2289 100.294 96.2651 100.331C96.3013 100.367 96.3443 100.396 96.3915 100.415C96.4388 100.435 96.4895 100.445 96.5406 100.445H145.243C145.346 100.445 145.446 100.404 145.519 100.331C145.592 100.258 145.633 100.159 145.633 100.055V96.9751C145.633 96.8717 145.592 96.7726 145.519 96.6996C145.446 96.6265 145.346 96.5854 145.243 96.5854M102.852 97.3647H144.851V99.6705H96.9315V97.3696L102.852 97.3647ZM103.241 93.9047H138.249V96.5867H103.245L103.241 93.9047ZM110.092 68.2713H131.33V88.1304H110.096L110.092 68.2713ZM109.893 88.906H131.534L132.708 90.3431H108.767L109.893 88.906ZM108.349 91.1897H133.142V93.1267H108.353L108.349 91.1897ZM108.349 65.9655H133.142V67.497H108.353L108.349 65.9655ZM115.991 28.1561L117.281 24.5761C117.298 24.5281 117.306 24.477 117.304 24.4259C117.302 24.3748 117.289 24.3246 117.267 24.2784C117.234 24.2086 117.182 24.1501 117.116 24.1103C117.05 24.0705 116.973 24.0511 116.897 24.0546C116.82 24.0582 116.745 24.0845 116.683 24.1302C116.621 24.1759 116.574 24.239 116.548 24.3115L116.303 24.9878L116.114 22.6771C116.194 22.6384 116.258 22.573 116.294 22.4921C116.337 22.3978 116.34 22.2907 116.303 22.1942C116.266 22.0977 116.193 22.0198 116.098 21.9775C115.902 21.8943 115.727 21.7675 115.587 21.6065C115.447 21.4456 115.345 21.2549 115.29 21.0488C115.246 20.8415 115.243 20.6275 115.281 20.4191C115.302 20.4357 115.325 20.4501 115.35 20.4619C115.756 20.6281 116.19 20.7155 116.629 20.7192C116.897 20.7201 117.164 20.6787 117.419 20.5967C118.012 20.411 118.511 20.0038 118.812 19.4597L118.867 19.9376L118.899 20.6653C118.905 20.7648 118.948 20.8583 119.021 20.9267C119.093 20.995 119.189 21.033 119.289 21.0329H119.306C119.408 21.0294 119.505 20.9853 119.575 20.9104C119.61 20.8729 119.638 20.8287 119.655 20.7805L121.849 22.7187L120.912 25.6188C120.896 25.6674 120.891 25.7186 120.895 25.7695C120.899 25.8204 120.913 25.8699 120.937 25.9153C120.959 25.9605 120.99 26.0008 121.029 26.0339C121.067 26.0669 121.112 26.092 121.16 26.1076L121.282 26.1284C121.364 26.1278 121.443 26.1014 121.509 26.053C121.575 26.0047 121.624 25.9367 121.65 25.8589L122.527 23.1525L124.065 23.7712L122.349 26.8011L116.869 31.8893C116.867 31.6063 116.836 31.3243 116.777 31.0476C116.719 30.8112 116.717 30.5643 116.772 30.3271C116.827 30.0899 116.938 29.8691 117.094 29.6827L118.375 28.1561C118.439 28.0771 118.471 27.976 118.462 27.8743C118.455 27.7978 118.425 27.7249 118.377 27.6651C118.329 27.6052 118.264 27.561 118.191 27.5379C118.117 27.5148 118.039 27.514 117.965 27.5355C117.891 27.557 117.825 27.5999 117.776 27.6587L116.587 29.0775L115.991 28.1561ZM116.919 4.57858C116.759 4.86229 116.527 5.09837 116.245 5.26265C115.964 5.42693 115.644 5.5135 115.318 5.5135C114.993 5.5135 114.673 5.42693 114.392 5.26265C114.11 5.09837 113.878 4.86229 113.718 4.57858H116.919ZM115.319 6.29385C115.507 6.29189 115.694 6.26971 115.878 6.22769L115.864 6.53766C115.84 6.53766 115.815 6.53031 115.792 6.53766L114.903 6.66018L114.89 6.26567C115.032 6.28952 115.175 6.30182 115.319 6.30243M115.775 7.32914L116.02 9.18652L114.55 9.38378L114.305 7.52639L115.775 7.32914ZM115.709 10.0148L115.673 10.8087H115.024L115.003 10.1079L115.709 10.0148ZM116.048 11.5793C116.148 11.5798 116.244 11.5418 116.316 11.4734C116.388 11.4049 116.431 11.3112 116.436 11.2118L116.498 9.85058C116.57 9.80766 116.634 9.75156 116.685 9.68518C116.738 9.61627 116.777 9.53742 116.8 9.45326C116.822 9.36909 116.827 9.28132 116.815 9.1951L116.683 8.21495C116.838 8.45968 116.962 8.72317 117.05 8.99907C116.92 9.38255 116.56 10.9336 116.407 11.621C116.392 11.683 116.392 11.7477 116.407 11.8097L117.352 15.223L118.266 18.531C118.241 18.8386 118.124 19.1315 117.929 19.3705C117.734 19.6096 117.47 19.7834 117.174 19.869C116.758 19.98 116.319 19.9711 115.907 19.8432C115.963 19.1905 115.954 18.5337 115.878 17.8829C115.741 17.4364 115.693 16.9671 115.738 16.5021V16.4531C115.738 16.3747 115.765 15.473 115.884 11.6099V11.5793H116.048ZM128.584 28.3191L127.718 29.0542H127.708L127.701 29.0628L125.58 30.8516C126.105 29.1363 126.664 27.3103 127.257 25.3737L128.135 25.8565C128.152 25.865 128.552 26.0635 128.517 26.9591C128.517 27.0743 128.536 27.557 128.583 28.3166M132.036 32.8756L133.17 31.3845L134.352 32.2826L133.218 33.7736L132.036 32.8756ZM133.544 30.6898C133.405 30.5845 133.231 30.5382 133.058 30.5612C132.886 30.5841 132.73 30.6744 132.624 30.8124L131.341 32.4982C131.236 32.6369 131.19 32.8116 131.213 32.9841C131.236 33.1566 131.326 33.3131 131.463 33.4196L131.902 33.7528L130.477 35.7364L129.823 35.2034C129.675 33.0924 129.545 31.1983 129.455 29.7599L131.487 27.0204L134.862 29.7722L133.966 31.0084L133.544 30.6898ZM115.534 43.3338C116.036 41.4446 116.538 39.5553 116.991 37.8462L117.009 37.8253L126.06 26.6124C124.345 32.214 119.356 48.5016 118.954 49.7611C118.532 50.1287 115.557 52.3181 112.566 54.4793C113.103 52.4737 114.322 47.9038 115.538 43.3301M121.101 29.0199L117.772 34.9082C118.385 32.6097 118.63 31.6479 118.709 31.2326L121.101 29.0199ZM119.631 19.7085L119.555 19.0591C119.559 18.9166 119.533 18.7748 119.479 18.6429C119.425 18.511 119.344 18.3919 119.241 18.2934C119.164 18.2257 119.076 18.1725 118.98 18.1365L118.812 17.5239C119.017 17.7531 119.223 17.9797 119.405 18.1696L120.197 19.0628V19.0848C120.206 19.1498 120.226 19.2074 120.239 19.2747C120.263 19.3801 120.282 19.4867 120.314 19.5896L120.335 19.6484L120.122 20.1385L119.631 19.7085ZM125.242 19.6215C125.242 20.0679 125.065 20.4961 124.749 20.8118C124.433 21.1275 124.005 21.3049 123.559 21.3049C123.112 21.3049 122.684 21.1275 122.368 20.8118C122.052 20.4961 121.875 20.0679 121.875 19.6215V18.8631C122.545 18.6138 123.137 18.191 123.59 17.6379C123.973 18.274 124.555 18.7655 125.247 19.0358L125.242 19.6215ZM121.631 21.1358C121.738 21.2703 121.858 21.3935 121.99 21.5034V21.7925L121.57 21.4249L121.631 21.1358ZM122.768 21.9432C123.318 22.1437 123.923 22.1305 124.464 21.9064V23.0765L122.768 22.3941V21.9432ZM125.079 24.1645L126.427 24.9094L119.367 33.6536L124.796 24.053L125.079 24.1645ZM125.516 23.5176L125.243 23.3669V21.4066C125.285 21.3674 125.323 21.3257 125.366 21.284L125.516 23.5176ZM126.15 18.5298C124.203 18.0263 124.052 16.7214 124.047 16.6651C124.038 16.5775 124 16.4955 123.938 16.4327C123.876 16.3698 123.795 16.3297 123.708 16.3189C123.62 16.3081 123.532 16.3272 123.457 16.3732C123.381 16.4192 123.324 16.4892 123.294 16.572C123.066 17.0275 122.735 17.4242 122.328 17.7311C121.922 18.038 121.45 18.2468 120.949 18.3411C121.003 17.6675 121.316 17.0409 121.822 16.5924C122.327 16.1438 122.987 15.908 123.662 15.934C124.338 15.9601 124.977 16.2462 125.446 16.7324C125.916 17.2186 126.179 17.8674 126.182 18.5433C126.172 18.5378 126.161 18.5329 126.151 18.5286M116.227 65.1789L117.001 58.9305C117.003 58.9097 117.003 58.8888 117.001 58.868L119.142 54.472L117.815 65.1777L116.227 65.1789ZM113.924 65.1789L115.961 60.9961L115.443 65.1789H113.924ZM119.651 50.1201C119.707 49.9976 121.559 43.9807 125.165 32.2164L127.511 30.2365L125.714 56.0537L118.72 50.9287C119.588 50.2622 119.623 50.1875 119.648 50.1311M120.113 52.916L121.451 53.8962L120.128 65.19H118.592L120.113 52.916ZM122.174 54.4267L123.688 55.5355L122.558 65.19H120.912L122.174 54.4267ZM124.411 56.066L125.823 57.1C125.855 57.1233 125.89 57.1415 125.928 57.1539L124.987 65.19H123.343L124.411 56.066ZM126.96 55.0466L128.567 55.3688L127.417 65.19H125.772L126.96 55.0466ZM130.714 58.0545L129.845 65.1912H128.202L129.334 55.5244L130.53 55.7695L130.714 58.0545ZM130.629 65.1912L131.028 61.9101L131.297 65.1912H130.629ZM126.62 54.1853L128.336 29.548L128.643 29.2882C129.036 35.4276 130.227 51.692 130.467 54.9572L126.62 54.1853ZM126.326 23.977L126.134 21.213L126.848 24.2662L126.326 23.977ZM127.654 17.3157C127.521 16.8877 127.321 16.4833 127.063 16.1174C127.076 16.1206 127.089 16.1226 127.103 16.1235L128.883 15.9679L129.341 15.9275C128.917 16.2718 128.351 16.7361 127.654 17.3157ZM126.704 15.6004C126.702 15.6212 126.702 15.6421 126.704 15.6629C126.563 15.5129 126.412 15.3728 126.251 15.2439C126.242 15.2318 126.233 15.2204 126.222 15.2096C126.21 15.2023 126.197 15.1957 126.184 15.19C125.95 15.0071 125.697 14.8486 125.431 14.717C126.146 14.1939 126.958 13.6144 127.556 13.2002C127.32 13.8913 126.985 14.8371 126.71 15.6004M123.804 14.2992C123.785 14.2936 123.766 14.2895 123.747 14.287C123.735 14.287 123.724 14.2931 123.712 14.2943C123.66 14.2943 123.61 14.287 123.559 14.287C123.282 14.2876 123.006 14.3135 122.734 14.3642L123.73 11.8244L124.633 14.4254C124.363 14.3552 124.086 14.3121 123.807 14.2968M120.563 15.4779C120.563 15.4779 120.563 15.4705 120.563 15.4668L119.976 13.2701L121.944 14.5921C121.429 14.7938 120.96 15.0952 120.563 15.4791M119.502 17.1429C119.012 16.5965 118.497 15.9937 118.332 15.7952L118.284 15.6237L120.122 15.9496C120.128 15.9496 120.134 15.9496 120.141 15.9496C119.866 16.3101 119.649 16.712 119.499 17.1405M116.771 33.0361L117.681 32.1931C117.369 33.3951 116.844 35.3786 116.211 37.7579L116.771 33.0361ZM118.073 51.4213L119.317 52.3328L113.055 65.1912H110.208L112.695 55.3517C115.422 53.384 117.072 52.1723 118.073 51.4213Z" fill="white"/>
</g>
<path d="M0.25 100.5C1.85 100.5 132.583 100.5 197.75 100.5" stroke="white"/>
</svg>
