<svg width="57" height="56" viewBox="0 0 57 56" fill="none" xmlns="http://www.w3.org/2000/svg">
<rect x="0.5" width="56" height="56" rx="11" fill="#134EDF"/>
<path d="M40.7745 24.3592C39.1811 23.3052 37.2974 22.7414 35.3688 22.7414C33.4403 22.7414 31.5565 23.3052 29.9632 24.3592L29.5684 24.6719L33.951 27.8606C34.0282 27.7181 34.1385 27.5951 34.2732 27.501C34.5931 27.2873 34.9723 27.1729 35.3608 27.1729C35.7492 27.1729 36.1285 27.2873 36.4483 27.501C36.583 27.5853 36.6938 27.701 36.7705 27.8376C36.8472 27.9741 36.8874 28.1271 36.8874 28.2826C36.8874 28.4381 36.8472 28.5911 36.7705 28.7276C36.6938 28.8641 36.583 28.9798 36.4483 29.0641C36.128 29.2616 35.7564 29.3664 35.3769 29.3664C34.9974 29.3664 34.6257 29.2616 34.3054 29.0641C34.1282 28.9235 33.6368 28.5796 33.6368 28.5796L32.5331 27.7824L29.3106 25.4769L28.9642 25.2268L28.4809 24.8751L27.0227 23.8278C26.485 23.4484 25.9004 23.136 25.2826 22.8978C23.631 22.2515 21.8304 22.0491 20.0703 22.3116C19.1538 22.441 18.2629 22.7045 17.4279 23.0931C17.0096 23.2956 16.6106 23.5336 16.2356 23.8044C13.2548 25.9614 13.2548 29.4784 16.2356 31.6198C17.8268 32.6752 19.7096 33.2399 21.6372 33.2399C23.5648 33.2399 25.4475 32.6752 27.0388 31.6198C27.1838 31.5182 27.3047 31.4166 27.4336 31.3072L23.0591 28.1732C22.978 28.3109 22.8683 28.4306 22.7368 28.5249C22.417 28.7349 22.0396 28.8471 21.6533 28.8471C21.2671 28.8471 20.8897 28.7349 20.5698 28.5249C20.4333 28.4419 20.3207 28.3267 20.2427 28.19C20.1647 28.0533 20.1238 27.8996 20.1238 27.7433C20.1238 27.5871 20.1647 27.4334 20.2427 27.2967C20.3207 27.16 20.4333 27.0447 20.5698 26.9618C20.8892 26.7508 21.2668 26.6379 21.6533 26.6379C22.0398 26.6379 22.4174 26.7508 22.7368 26.9618L27.9894 30.7757L29.931 32.1747C31.3304 33.0987 32.9555 33.65 34.6436 33.7734C36.3316 33.8969 38.0235 33.5881 39.5499 32.8781C39.9701 32.682 40.3695 32.4464 40.7423 32.1747C43.7472 30.0332 43.7472 26.5241 40.7745 24.3592Z" fill="white"/>
</svg>
