<svg width="57" height="56" viewBox="0 0 57 56" fill="none" xmlns="http://www.w3.org/2000/svg">
<rect x="0.5" width="56" height="56" rx="11" fill="#134EDF"/>
<g clip-path="url(#clip0_1_606)">
<mask id="mask0_1_606" style="mask-type:luminance" maskUnits="userSpaceOnUse" x="16" y="16" width="25" height="24">
<path d="M40.5 16H16.5V40H40.5V16Z" fill="white"/>
</mask>
<g mask="url(#mask0_1_606)">
<path fill-rule="evenodd" clip-rule="evenodd" d="M23.8895 18.0107C25.228 16.7642 27.0254 16 29 16C31.4937 16 33.7023 17.2176 35.0648 19.0869C38.1485 19.5954 40.5 22.2726 40.5 25.5C40.5 29.0899 37.5898 32 34 32H31.5V35C31.5 35.5523 31.9477 36 32.5 36H34.6707C35.0825 34.8348 36.1938 34 37.5 34C39.1569 34 40.5 35.3431 40.5 37C40.5 38.6569 39.1569 40 37.5 40C36.1938 40 35.0825 39.1652 34.6707 38H32.5C30.8431 38 29.5 36.6569 29.5 35V32H27.5V35C27.5 36.6569 26.1568 38 24.5 38H22.3293C21.9175 39.1652 20.8062 40 19.5 40C17.8432 40 16.5 38.6569 16.5 37C16.5 35.3431 17.8432 34 19.5 34C20.8062 34 21.9175 34.8348 22.3293 36H24.5C25.0523 36 25.5 35.5523 25.5 35V32H23.5C19.634 32 16.5 28.866 16.5 25C16.5 21.134 19.634 18 23.5 18C23.6306 18 23.7605 18.0036 23.8895 18.0107ZM22.4896 25.383C22.0991 24.9925 22.0991 24.3593 22.4896 23.9688C23.2789 23.1795 24.2159 22.5534 25.2472 22.1262C26.2784 21.6991 27.3837 21.4792 28.5 21.4792C29.6162 21.4792 30.7215 21.6991 31.7528 22.1262C32.7841 22.5534 33.7211 23.1795 34.5104 23.9688C34.9009 24.3593 34.9009 24.9925 34.5104 25.383C34.1199 25.7735 33.4867 25.7735 33.0962 25.383C32.4926 24.7794 31.776 24.3006 30.9874 23.974C30.1988 23.6473 29.3536 23.4792 28.5 23.4792C27.6464 23.4792 26.8012 23.6473 26.0125 23.974C25.2239 24.3006 24.5074 24.7794 23.9038 25.383C23.5133 25.7735 22.8801 25.7735 22.4896 25.383ZM25 27.9142C24.6095 27.5237 24.6095 26.8905 25 26.5C25.4596 26.0404 26.0053 25.6758 26.6058 25.427C27.2063 25.1783 27.85 25.0503 28.5 25.0503C29.15 25.0503 29.7936 25.1783 30.3942 25.427C30.9947 25.6758 31.5403 26.0404 32 26.5C32.3905 26.8905 32.3905 27.5237 32 27.9142C31.6094 28.3047 30.9763 28.3047 30.5858 27.9142C30.3118 27.6403 29.9867 27.423 29.6288 27.2748C29.2709 27.1265 28.8874 27.0502 28.5 27.0502C28.1126 27.0502 27.7291 27.1265 27.3712 27.2748C27.0133 27.423 26.6881 27.6403 26.4142 27.9142C26.0237 28.3047 25.3905 28.3047 25 27.9142Z" fill="white"/>
</g>
</g>
<defs>
<clipPath id="clip0_1_606">
<rect width="24" height="24" fill="white" transform="translate(16.5 16)"/>
</clipPath>
</defs>
</svg>
