<svg width="47" height="47" viewBox="0 0 47 47" fill="none" xmlns="http://www.w3.org/2000/svg">
<rect x="0.5" y="0.445068" width="46" height="46" rx="11" fill="white"/>
<path d="M34.6728 24.1439C32.9806 22.9852 32.4555 20.6846 33.4775 18.9064C34.0917 17.8374 33.772 16.7811 33.268 16.149C32.764 15.5171 31.8052 14.9705 30.6265 15.3313C28.6658 15.9319 26.5394 14.9081 25.7863 13.0004C25.3335 11.8537 24.3084 11.4451 23.5 11.4451C22.6917 11.4451 21.6665 11.8537 21.2137 13.0005C20.4606 14.9083 18.3344 15.9319 16.3735 15.3314C15.1947 14.9706 14.2361 15.5171 13.732 16.1491C13.228 16.7812 12.9083 17.8374 13.5225 18.9064C14.5445 20.6846 14.0194 22.9853 12.3272 24.144C11.3099 24.8406 11.1397 25.9309 11.3195 26.7191C11.4993 27.5072 12.1258 28.4156 13.3446 28.6018C15.372 28.9116 16.8432 30.7565 16.6942 32.802C16.6044 34.0317 17.3508 34.8446 18.0791 35.1954C18.8075 35.5461 19.9084 35.6229 20.8138 34.7861C21.5669 34.0902 22.5336 33.7421 23.4999 33.7421C24.4666 33.7421 25.4328 34.09 26.186 34.7861C27.0916 35.6229 28.1925 35.5462 28.9208 35.1954C29.6491 34.8447 30.3954 34.0317 30.3058 32.8021C30.1567 30.7565 31.628 28.9116 33.6554 28.6018C34.8742 28.4156 35.5006 27.5071 35.6805 26.7191C35.8603 25.9308 35.69 24.8405 34.6728 24.1439ZM23.5 31.9745C19.0647 31.9745 15.4563 28.3661 15.4563 23.9308C15.4563 19.4955 19.0646 15.887 23.5 15.887C27.9354 15.887 31.5437 19.4954 31.5437 23.9308C31.5436 28.3661 27.9353 31.9745 23.5 31.9745Z" fill="black"/>
<path d="M23.4962 17.3865C19.8878 17.3865 16.9522 20.3221 16.9522 23.9305C16.9522 27.5388 19.8877 30.4744 23.4962 30.4744C27.1046 30.4744 30.0402 27.5388 30.0402 23.9305C30.0402 20.3221 27.1046 17.3865 23.4962 17.3865ZM26.8498 23.296L22.7771 26.2707C22.6478 26.3651 22.4927 26.415 22.3348 26.415C22.2941 26.415 22.2532 26.4117 22.2125 26.405C22.0139 26.3722 21.8368 26.2609 21.7211 26.0961L20.5028 24.3616C20.2648 24.0226 20.3466 23.5549 20.6855 23.3169C21.0245 23.0788 21.4921 23.1606 21.7302 23.4995L22.5094 24.609L25.9652 22.0849C26.2997 21.8407 26.7689 21.9136 27.0131 22.2481C27.2574 22.5825 27.1842 23.0516 26.8498 23.296Z" fill="black"/>
</svg>
