<svg width="57" height="56" viewBox="0 0 57 56" fill="none" xmlns="http://www.w3.org/2000/svg">
<rect x="0.5" width="56" height="56" rx="11" fill="#134EDF"/>
<path d="M26.8805 17.8667H30.2522C30.4817 17.8522 30.7025 17.7728 30.8891 17.6376C31.0757 17.5024 31.2205 17.317 31.3069 17.1026L31.833 16H25.2997L25.8258 17.1026C25.9122 17.317 26.0571 17.5024 26.2437 17.6375C26.4302 17.7727 26.651 17.8521 26.8805 17.8667Z" fill="white"/>
<path d="M21.9 16C21.5288 16.0004 21.173 16.1481 20.9105 16.4105C20.6481 16.673 20.5004 17.0288 20.5 17.4V38.6C20.5004 38.9712 20.6481 39.327 20.9105 39.5895C21.173 39.8519 21.5288 39.9996 21.9 40H35.1C35.4712 39.9996 35.827 39.8519 36.0895 39.5895C36.3519 39.327 36.4996 38.9712 36.5 38.6V17.4C36.4996 17.0288 36.3519 16.673 36.0895 16.4105C35.827 16.1481 35.4712 16.0004 35.1 16H32.5197L31.868 17.3576C31.7425 17.6564 31.5348 17.9134 31.269 18.0988C31.0033 18.2843 30.6904 18.3906 30.3667 18.4053H26.7229C26.3994 18.3904 26.0866 18.284 25.8211 18.0986C25.5555 17.9132 25.3479 17.6562 25.2224 17.3576L24.5709 16H21.9ZM31.5179 27.1384C31.4327 27.0327 31.3693 26.9113 31.3312 26.781C31.2932 26.6508 31.2812 26.5143 31.2961 26.3794C31.311 26.2445 31.3524 26.1139 31.418 25.995C31.4835 25.8762 31.5719 25.7715 31.678 25.687C31.7842 25.6024 31.906 25.5397 32.0365 25.5024C32.167 25.4651 32.3035 25.4539 32.4383 25.4696C32.5731 25.4853 32.7035 25.5274 32.822 25.5936C32.9404 25.6598 33.0446 25.7488 33.1285 25.8555L35.0219 28.2224C35.1688 28.4046 35.249 28.6315 35.249 28.8656C35.249 29.0997 35.1688 29.3266 35.0219 29.5088L33.1259 31.88C32.9533 32.0914 32.7046 32.2265 32.4333 32.2562C32.162 32.2859 31.8899 32.2078 31.6757 32.0387C31.4638 31.8675 31.3282 31.6195 31.2987 31.3487C31.2691 31.0779 31.3479 30.8064 31.5179 30.5936L32.9 28.8667L31.5179 27.1384ZM26.9573 31L28.0424 26.2648V26.2603C28.1074 25.9984 28.2726 25.7725 28.5025 25.6312C28.7323 25.4899 29.0084 25.4445 29.2714 25.5047C29.5345 25.5649 29.7633 25.726 29.9088 25.9532C30.0543 26.1804 30.1047 26.4557 30.0493 26.7197L28.9619 31.4664C28.934 31.6008 28.8795 31.7282 28.8016 31.8412C28.7237 31.9543 28.624 32.0506 28.5084 32.1245C28.3928 32.1984 28.2635 32.2484 28.1282 32.2717C27.993 32.2949 27.8544 32.2908 27.7208 32.2597C27.5871 32.2286 27.461 32.1711 27.3499 32.0906C27.2387 32.01 27.1448 31.908 27.0737 31.7907C27.0026 31.6733 26.9556 31.5429 26.9357 31.4071C26.9157 31.2713 26.923 31.1329 26.9573 31ZM25.3171 25.6933C25.5293 25.8641 25.6653 26.112 25.6953 26.3827C25.7252 26.6535 25.6468 26.9251 25.4771 27.1381L24.1 28.8667L25.4787 30.5949C25.5676 30.7003 25.6344 30.8224 25.6753 30.9541C25.7161 31.0857 25.7301 31.2242 25.7164 31.3614C25.7028 31.4986 25.6617 31.6316 25.5956 31.7526C25.5296 31.8736 25.4399 31.9801 25.3319 32.0658C25.224 32.1515 25.0999 32.2147 24.9671 32.2516C24.8342 32.2884 24.6954 32.2982 24.5587 32.2804C24.422 32.2626 24.2902 32.2176 24.1713 32.1479C24.0523 32.0783 23.9486 31.9854 23.8661 31.8749L21.9765 29.5067C21.8303 29.3247 21.7506 29.0982 21.7506 28.8648C21.7506 28.6314 21.8303 28.4049 21.9765 28.2229L23.8672 25.8533C24.0399 25.6423 24.2884 25.5073 24.5595 25.4774C24.8305 25.4475 25.1025 25.525 25.3171 25.6933Z" fill="white"/>
</svg>
