<svg width="19" height="19" viewBox="0 0 19 19" fill="none" xmlns="http://www.w3.org/2000/svg">
<path opacity="0.7" d="M13.0563 11.9979L12.6008 12.4774C12.6008 12.4774 11.5182 13.6172 8.56316 10.5061C5.60818 7.395 6.69076 6.25527 6.69076 6.25527L6.97758 5.95331C7.68413 5.20944 7.75074 4.01517 7.1343 3.1433L5.87332 1.35981C5.11034 0.280695 3.63602 0.138146 2.76151 1.05884L1.19191 2.71134C0.758289 3.16786 0.467709 3.75965 0.502949 4.41614C0.593099 6.09566 1.31077 9.7092 5.31542 13.9254C9.56216 18.3964 13.5469 18.5741 15.1764 18.4133C15.6918 18.3624 16.14 18.0845 16.5012 17.7042L17.9218 16.2086C18.8807 15.1991 18.6103 13.4684 17.3834 12.7622L15.4729 11.6625C14.6673 11.1988 13.6859 11.335 13.0563 11.9979Z" fill="white"/>
</svg>
